<svg width="50.000000" height="50.000000" viewBox="0 0 50 50" fill="none" xmlns="http://www.w3.org/2000/svg" xmlns:xlink="http://www.w3.org/1999/xlink">
	<desc>
			Created with Pixso.
	</desc>
	<defs>
		<clipPath id="clip112_476">
			<rect id="settings 1" rx="0.000000" width="24.000000" height="24.000000" transform="translate(12.500000 12.500000)" fill="white" fill-opacity="0"/>
		</clipPath>
	</defs>
	<circle id="Ellipse 3" cx="25.000000" cy="25.000000" r="25.000000" fill="#F5F7FA" fill-opacity="1.000000"/>
	<rect id="settings 1" rx="0.000000" width="24.000000" height="24.000000" transform="translate(12.500000 12.500000)" fill="#FFFFFF" fill-opacity="0"/>
	<g clip-path="url(#clip112_476)">
		<path id="Vector" d="M25.28 37L23.71 37C22.44 37 21.41 35.96 21.41 34.69L21.41 34.16C20.87 33.99 20.35 33.77 19.84 33.51L19.47 33.89C18.55 34.8 17.09 34.77 16.21 33.89L15.1 32.78C14.22 31.89 14.19 30.44 15.1 29.52L15.48 29.15C15.22 28.64 15 28.12 14.83 27.58L14.3 27.58C13.03 27.58 12 26.55 12 25.28L12 23.71C12 22.44 13.03 21.41 14.3 21.41L14.83 21.41C15 20.87 15.22 20.35 15.48 19.84L15.1 19.47C14.19 18.56 14.22 17.1 15.1 16.21L16.21 15.1C17.1 14.21 18.56 14.19 19.47 15.1L19.84 15.48C20.35 15.22 20.87 15 21.41 14.83L21.41 14.3C21.41 13.03 22.44 12 23.71 12L25.28 12C26.55 12 27.58 13.03 27.58 14.3L27.58 14.83C28.12 15 28.64 15.22 29.15 15.48L29.52 15.1C30.44 14.19 31.89 14.22 32.78 15.1L33.89 16.21C34.77 17.1 34.8 18.55 33.89 19.47L33.51 19.84C33.77 20.35 33.99 20.87 34.16 21.41L34.69 21.41C35.96 21.41 37 22.44 37 23.71L37 25.28C37 26.55 35.96 27.58 34.69 27.58L34.16 27.58C33.99 28.12 33.77 28.64 33.51 29.15L33.89 29.52C34.8 30.43 34.77 31.89 33.89 32.78L32.78 33.89C31.89 34.78 30.43 34.8 29.52 33.89L29.15 33.51C28.64 33.77 28.12 33.99 27.58 34.16L27.58 34.69C27.58 35.96 26.55 37 25.28 37ZM20.09 31.97C20.79 32.39 21.54 32.7 22.32 32.9C22.65 32.99 22.87 33.28 22.87 33.61L22.87 34.69C22.87 35.15 23.25 35.53 23.71 35.53L25.28 35.53C25.74 35.53 26.12 35.15 26.12 34.69L26.12 33.61C26.12 33.28 26.34 32.99 26.67 32.9C27.45 32.7 28.2 32.39 28.9 31.97C29.19 31.8 29.56 31.85 29.79 32.09L30.56 32.85C30.89 33.18 31.42 33.18 31.74 32.85L32.85 31.74C33.17 31.42 33.18 30.89 32.85 30.56L32.09 29.79C31.85 29.56 31.8 29.19 31.97 28.9C32.39 28.2 32.7 27.45 32.9 26.67C32.99 26.34 33.28 26.12 33.61 26.12L34.69 26.12C35.16 26.12 35.53 25.74 35.53 25.28L35.53 23.71C35.53 23.25 35.16 22.87 34.69 22.87L33.61 22.87C33.28 22.87 32.99 22.65 32.9 22.32C32.7 21.54 32.39 20.79 31.97 20.09C31.8 19.8 31.85 19.43 32.09 19.2L32.85 18.43C33.18 18.1 33.18 17.57 32.85 17.25L31.74 16.14C31.42 15.82 30.89 15.81 30.56 16.14L29.79 16.9C29.56 17.14 29.19 17.19 28.9 17.02C28.2 16.6 27.45 16.29 26.67 16.09C26.34 16 26.12 15.71 26.12 15.38L26.12 14.3C26.12 13.84 25.74 13.46 25.28 13.46L23.71 13.46C23.25 13.46 22.87 13.84 22.87 14.3L22.87 15.38C22.87 15.71 22.65 16 22.32 16.09C21.54 16.29 20.79 16.6 20.09 17.02C19.8 17.19 19.43 17.14 19.2 16.9L18.43 16.14C18.1 15.81 17.57 15.81 17.25 16.14L16.14 17.25C15.82 17.57 15.81 18.1 16.14 18.43L16.9 19.2C17.14 19.43 17.19 19.8 17.02 20.09C16.6 20.79 16.29 21.54 16.09 22.32C16 22.65 15.71 22.87 15.38 22.87L14.3 22.87C13.83 22.87 13.46 23.25 13.46 23.71L13.46 25.28C13.46 25.74 13.83 26.12 14.3 26.12L15.38 26.12C15.71 26.12 16 26.34 16.09 26.67C16.29 27.45 16.6 28.2 17.02 28.9C17.19 29.19 17.14 29.56 16.9 29.79L16.14 30.56C15.81 30.89 15.82 31.42 16.14 31.74L17.25 32.85C17.57 33.17 18.1 33.18 18.43 32.85L19.2 32.09C19.37 31.91 19.73 31.76 20.09 31.97Z" fill="#718EBF" fill-opacity="1.000000" fill-rule="nonzero"/>
		<path id="Vector" d="M24.5 29.93C21.5 29.93 19.06 27.49 19.06 24.5C19.06 21.5 21.5 19.06 24.5 19.06C27.49 19.06 29.93 21.5 29.93 24.5C29.93 27.49 27.49 29.93 24.5 29.93ZM24.5 20.52C22.3 20.52 20.52 22.3 20.52 24.5C20.52 26.69 22.3 28.47 24.5 28.47C26.69 28.47 28.47 26.69 28.47 24.5C28.47 22.3 26.69 20.52 24.5 20.52Z" fill="#718EBF" fill-opacity="1.000000" fill-rule="nonzero"/>
	</g>
</svg>
