<svg width="25.000000" height="25.000000" viewBox="0 0 25 25" fill="none" xmlns="http://www.w3.org/2000/svg" xmlns:xlink="http://www.w3.org/1999/xlink">
	<desc>
			Created with Pixso.
	</desc>
	<defs>
		<clipPath id="clip101_552">
			<rect id="002-padlock" rx="0.000000" width="24.000000" height="24.000000" transform="translate(0.500000 0.500000)" fill="white" fill-opacity="0"/>
		</clipPath>
	</defs>
	<rect id="002-padlock" rx="0.000000" width="24.000000" height="24.000000" transform="translate(0.500000 0.500000)" fill="#FFFFFF" fill-opacity="0"/>
	<g clip-path="url(#clip101_552)">
		<path id="Vector" d="M19.53 9.17L17.77 9.17L17.77 5.16C17.77 2.31 15.4 0 12.49 0C9.59 0 7.22 2.31 7.22 5.16L7.22 9.17L5.46 9.17C3.85 9.17 2.53 10.49 2.53 12.1L2.53 22.07C2.53 23.68 3.85 25 5.46 25L19.53 25C21.14 25 22.46 23.68 22.46 22.07L22.46 12.1C22.46 10.49 21.14 9.17 19.53 9.17ZM9.17 5.16C9.17 3.39 10.66 1.95 12.49 1.95C14.32 1.95 15.81 3.39 15.81 5.16L15.81 9.17L9.17 9.17L9.17 5.16ZM20.5 22.07C20.5 22.6 20.06 23.04 19.53 23.04L5.46 23.04C4.93 23.04 4.49 22.6 4.49 22.07L4.49 12.1C4.49 11.57 4.93 11.13 5.46 11.13L19.53 11.13C20.06 11.13 20.5 11.57 20.5 12.1L20.5 22.07Z" fill="#396AFF" fill-opacity="1.000000" fill-rule="nonzero"/>
		<path id="Vector" d="M12.5 13.96C11.5 13.96 10.69 14.77 10.69 15.77C10.69 16.4 11.02 16.96 11.52 17.28L11.52 19.43C11.52 19.97 11.95 20.41 12.49 20.41C13.03 20.41 13.47 19.97 13.47 19.43L13.47 17.29C13.97 16.97 14.3 16.41 14.3 15.77C14.3 14.77 13.49 13.96 12.5 13.96Z" fill="#396AFF" fill-opacity="1.000000" fill-rule="nonzero"/>
	</g>
</svg>
