<svg width="188.035156" height="186.109985" viewBox="0 0 188.035 186.11" fill="none" xmlns="http://www.w3.org/2000/svg" xmlns:xlink="http://www.w3.org/1999/xlink">
	<desc>
			Created with Pixso.
	</desc>
	<defs>
		<radialGradient gradientTransform="translate(92.8642 109.964) rotate(0.54432) scale(76.1507 76.1507)" cx="0.000000" cy="0.000000" r="1.000000" id="paint_radial_112_132_0" gradientUnits="userSpaceOnUse">
			<stop stop-color="#000000"/>
			<stop offset="1.000000" stop-color="#000000" stop-opacity="0.000000"/>
		</radialGradient>
		<linearGradient x1="47.670471" y1="109.400764" x2="47.757515" y2="100.238281" id="paint_linear_112_144_0" gradientUnits="userSpaceOnUse">
			<stop stop-color="#FFFFFF"/>
			<stop offset="1.000000" stop-color="#000000"/>
		</linearGradient>
		<radialGradient gradientTransform="translate(94.9261 107.903) rotate(0.54431) scale(34.6508 34.6508)" cx="0.000000" cy="0.000000" r="1.000000" id="paint_radial_112_151_0" gradientUnits="userSpaceOnUse">
			<stop stop-color="#000000"/>
			<stop offset="1.000000" stop-color="#000000" stop-opacity="0.000000"/>
		</radialGradient>
	</defs>
	<g opacity="0.830000">
		<path id="Vector" d="M147.22 56.63C133.57 42.71 114.61 34.02 93.59 33.82C72.56 33.62 53.44 41.96 39.53 55.6C25.63 69.24 16.92 88.21 16.72 109.24C16.52 130.26 24.87 149.39 38.51 163.29C52.15 177.19 71.11 185.9 92.14 186.1C113.17 186.3 132.29 177.96 146.19 164.32C160.11 150.66 168.81 131.71 169.01 110.68C169.21 89.66 160.86 70.54 147.22 56.63Z" fill="url(#paint_radial_112_132_0)" fill-opacity="0.500000" fill-rule="nonzero"/>
	</g>
	<path id="Vector" d="M7.91 99.67C7.7 121.67 16.43 141.68 30.71 156.24C45 170.8 64.83 179.91 86.83 180.12L87.59 100.44L7.91 99.67Z" fill="#FFBB38" fill-opacity="1.000000" fill-rule="nonzero"/>
	<path id="Vector" d="M39.25 99.97C39.12 113.32 44.41 125.46 53.09 134.3C61.75 143.13 73.79 148.66 87.14 148.78L87.61 100.43L39.25 99.97Z" fill="#FFB11F" fill-opacity="1.000000" fill-rule="nonzero"/>
	<path id="Vector" d="M26.24 37.91C10.23 53.61 0.23 75.41 0 99.6L87.6 100.43L88.43 12.83C64.24 12.6 42.25 22.2 26.24 37.91Z" fill="#4C78FF" fill-opacity="1.000000" fill-rule="nonzero"/>
	<path id="Vector" d="M53.73 65.92C44.9 74.58 39.37 86.61 39.25 99.97L87.6 100.43L88.06 52.08C74.71 51.96 62.57 57.25 53.73 65.92Z" fill="#3464F3" fill-opacity="1.000000" fill-rule="nonzero"/>
	<path id="Vector" d="M159.3 30.09C141.29 11.73 116.29 0.26 88.55 0L87.59 100.43L188.03 101.4C188.3 73.65 177.3 48.43 159.3 30.09Z" fill="#16DBCC" fill-opacity="1.000000" fill-rule="nonzero"/>
	<path id="Vector" d="M122.11 66.57C113.44 57.74 101.41 52.21 88.05 52.08L87.59 100.43L135.94 100.9C136.07 87.54 130.78 75.4 122.11 66.57Z" fill="#1EC6B8" fill-opacity="1.000000" fill-rule="nonzero"/>
	<path id="Vector" d="M87.6 100.43L86.91 172.07C106.69 172.26 124.67 164.41 137.76 151.57C150.85 138.74 159.04 120.9 159.22 101.12L87.6 100.43Z" fill="#FF82AC" fill-opacity="1.000000" fill-rule="nonzero"/>
	<g opacity="0.080000">
		<path id="Vector" d="M87.52 108.22L87.6 100.43L7.92 99.67C7.9 102.3 8 104.9 8.23 107.46L87.52 108.22Z" fill="url(#paint_linear_112_144_0)" fill-opacity="1.000000" fill-rule="nonzero"/>
	</g>
	<path id="Vector" d="M87.6 100.43L87.13 148.78C100.49 148.91 112.63 143.62 121.46 134.95C130.29 126.29 135.82 114.25 135.95 100.9L87.6 100.43Z" fill="#FF6195" fill-opacity="1.000000" fill-rule="nonzero"/>
	<g opacity="0.830000">
		<path id="Vector" d="M119.65 83.63C113.44 77.31 104.82 73.34 95.25 73.25C85.67 73.15 76.98 76.96 70.65 83.16C64.32 89.37 60.36 97.99 60.26 107.57C60.17 117.14 63.97 125.83 70.17 132.16C76.39 138.49 85.01 142.45 94.58 142.55C104.15 142.64 112.85 138.84 119.18 132.64C125.51 126.43 129.47 117.8 129.56 108.23C129.66 98.66 125.87 89.96 119.65 83.63Z" fill="url(#paint_radial_112_151_0)" fill-opacity="0.500000" fill-rule="nonzero"/>
	</g>
	<path id="Vector" d="M112.33 76.16C106.12 69.83 97.5 65.87 87.92 65.78C78.35 65.68 69.66 69.49 63.33 75.69C57 81.9 53.04 90.52 52.94 100.1C52.85 109.67 56.65 118.36 62.85 124.69C69.06 131.02 77.69 134.98 87.26 135.08C96.83 135.17 105.53 131.37 111.86 125.17C118.18 118.96 122.15 110.33 122.24 100.76C122.34 91.19 118.54 82.49 112.33 76.16Z" fill="#FFFFFF" fill-opacity="1.000000" fill-rule="nonzero"/>
</svg>
