<svg width="20.497070" height="25.000000" viewBox="0 0 20.4971 25" fill="none" xmlns="http://www.w3.org/2000/svg" xmlns:xlink="http://www.w3.org/1999/xlink">
	<desc>
			Created with Pixso.
	</desc>
	<defs/>
	<path id="Vector" d="M19.79 17.2C19.01 16.73 17.38 15.75 17.38 13.21C17.38 11.07 18.82 9.98 19.59 9.4L19.61 9.39C19.92 9.16 19.99 8.72 19.77 8.4C18.05 5.82 15.1 5.74 14.52 5.75L14.52 5.75C14.12 5.75 13.75 5.8 13.39 5.87C13.52 5.76 13.65 5.65 13.77 5.53C15 4.34 15.68 2.58 15.63 0.71C15.62 0.31 15.29 0 14.9 0C13.56 0 12.05 0.79 10.94 2.07C9.83 3.36 9.31 4.91 9.52 6.32C9.53 6.43 9.58 6.54 9.64 6.63C9.45 6.57 9.24 6.49 9.04 6.41C8.26 6.13 7.38 5.81 6.56 5.81C6.54 5.81 4.87 5.82 3.2 6.86C1.74 7.76 0 9.65 0 13.5C0 15.51 0.78 18.31 1.99 20.65C2.83 22.26 4.56 24.97 6.79 24.98L6.81 24.98C8.44 24.98 9.79 24.02 10.7 24.02C12.27 24.02 12.83 25 14.52 25C16.03 25 17.5 23.84 18.89 21.57C19.39 20.74 19.79 19.91 20.03 19.37C20.49 18.33 20.49 18.19 20.49 18.09C20.49 17.62 20.14 17.4 19.79 17.2ZM12.05 3.03C12.65 2.33 13.41 1.82 14.13 1.59C13.99 2.73 13.51 3.75 12.75 4.48C12.23 4.99 11.59 5.33 10.95 5.44C11.01 4.64 11.4 3.79 12.05 3.03ZM17.57 20.92C16.52 22.61 15.44 23.53 14.52 23.53C13.25 23.53 12.66 22.56 10.7 22.56C9.38 22.56 8.13 23.53 6.8 23.52C5.76 23.51 4.42 22.16 3.29 19.97C2.18 17.83 1.46 15.29 1.46 13.5C1.46 10.98 2.29 9.17 3.93 8.13C5.2 7.32 6.51 7.27 6.56 7.27C7.71 7.27 9.29 8.28 10.45 8.28C11.49 8.28 12.88 7.22 14.52 7.22L14.55 7.22C14.95 7.21 16.82 7.25 18.14 8.68C17.21 9.47 15.92 10.88 15.92 13.21C15.92 16.38 17.92 17.77 18.87 18.35C18.64 18.92 18.19 19.93 17.57 20.92Z" fill="#16DBCC" fill-opacity="1.000000" fill-rule="nonzero"/>
	<path id="Vector" d="M7.47 5.92C7.16 5.85 6.86 5.81 6.56 5.81C6.54 5.81 4.87 5.82 3.2 6.86C1.74 7.76 0 9.65 0 13.5C0 15.51 0.78 18.31 1.99 20.65C2.83 22.26 4.56 24.97 6.79 24.98L6.81 24.98C8.44 24.98 9.79 24.02 10.7 24.02C12.27 24.02 12.83 25 14.52 25C16.03 25 17.5 23.84 18.89 21.57C19.39 20.74 19.79 19.91 20.03 19.37C20.49 18.33 20.49 18.19 20.49 18.09C20.49 17.62 20.14 17.4 19.79 17.2C19.01 16.73 17.38 15.75 17.38 13.21C17.38 11.07 18.82 9.98 19.59 9.4L19.61 9.39C19.92 9.16 19.99 8.72 19.77 8.4C18.73 6.83 17.23 6.19 16.08 5.93C15.34 5.76 14.75 5.75 14.52 5.75L14.52 5.75C14.45 5.75 14.38 5.75 14.31 5.76C13.99 5.77 13.68 5.81 13.39 5.87C13.52 5.76 13.65 5.65 13.77 5.53C13.87 5.44 13.96 5.34 14.05 5.24C14.45 4.8 14.77 4.3 15.02 3.76C15.45 2.84 15.66 1.79 15.63 0.71C15.62 0.31 15.29 0 14.9 0C13.56 0 12.05 0.79 10.94 2.07C10.3 2.82 9.85 3.66 9.63 4.5C9.5 5.01 9.45 5.51 9.48 6.01C9.49 6.11 9.5 6.21 9.52 6.32C9.53 6.43 9.58 6.54 9.64 6.63C9.45 6.57 9.24 6.49 9.04 6.41C8.98 6.39 8.92 6.37 8.86 6.35C8.42 6.19 7.94 6.02 7.47 5.92ZM7.86 7.55C7.4 7.39 6.95 7.27 6.56 7.27C6.51 7.27 5.2 7.32 3.93 8.13C2.29 9.17 1.46 10.98 1.46 13.5C1.46 15.29 2.18 17.83 3.29 19.97C4.42 22.16 5.76 23.51 6.8 23.52C7.47 23.52 8.11 23.28 8.76 23.04C9.41 22.8 10.05 22.56 10.7 22.56C12.66 22.56 13.25 23.53 14.52 23.53C15.44 23.53 16.52 22.61 17.57 20.92C18.03 20.17 18.4 19.42 18.66 18.85C18.67 18.82 18.68 18.79 18.7 18.77C18.76 18.61 18.82 18.47 18.87 18.35C18.76 18.28 18.63 18.2 18.49 18.11C18.47 18.09 18.44 18.07 18.42 18.06C17.4 17.34 15.92 15.93 15.92 13.21C15.92 11.3 16.78 10.01 17.61 9.17C17.65 9.13 17.7 9.08 17.75 9.04C17.78 9 17.82 8.97 17.86 8.93C17.95 8.84 18.05 8.76 18.14 8.68C18.06 8.59 17.98 8.51 17.89 8.43C17.85 8.39 17.8 8.35 17.76 8.32C17.33 7.95 16.86 7.71 16.41 7.54C15.81 7.32 15.25 7.25 14.89 7.22C14.74 7.21 14.62 7.21 14.55 7.22L14.52 7.22C14.5 7.22 14.49 7.22 14.47 7.22C14.15 7.22 13.85 7.26 13.55 7.33C13.28 7.39 13.01 7.48 12.75 7.57C11.87 7.88 11.09 8.28 10.45 8.28C9.94 8.28 9.34 8.09 8.74 7.86C8.73 7.86 8.73 7.86 8.73 7.86C8.55 7.8 8.37 7.73 8.18 7.66C8.07 7.62 7.96 7.58 7.86 7.55ZM12.37 4.81C12.5 4.71 12.63 4.6 12.75 4.48C12.86 4.38 12.95 4.28 13.05 4.17C13.13 4.07 13.21 3.96 13.29 3.86C13.63 3.36 13.88 2.79 14.03 2.17C14.05 2.04 14.08 1.92 14.1 1.79C14.11 1.73 14.12 1.66 14.13 1.59C14.06 1.61 14 1.63 13.93 1.66C13.81 1.7 13.69 1.76 13.56 1.82C13.03 2.1 12.5 2.51 12.05 3.03C11.4 3.79 11.01 4.64 10.95 5.44C11.13 5.41 11.31 5.36 11.49 5.29C11.8 5.18 12.1 5.01 12.37 4.81Z" fill="#16DBCC" fill-opacity="1.000000" fill-rule="evenodd"/>
</svg>
