<svg width="50.000000" height="50.000000" viewBox="0 0 50 50" fill="none" xmlns="http://www.w3.org/2000/svg" xmlns:xlink="http://www.w3.org/1999/xlink">
	<desc>
			Created with Pixso.
	</desc>
	<defs>
		<clipPath id="clip105_531">
			<rect id="002-notification-1" rx="0.000000" width="24.000000" height="24.000000" transform="translate(13.500000 12.500000)" fill="white" fill-opacity="0"/>
		</clipPath>
	</defs>
	<circle id="Ellipse 2" cx="25.000000" cy="25.000000" r="25.000000" fill="#F5F7FA" fill-opacity="1.000000"/>
	<rect id="002-notification-1" rx="0.000000" width="24.000000" height="24.000000" transform="translate(13.500000 12.500000)" fill="#FFFFFF" fill-opacity="0"/>
	<g clip-path="url(#clip105_531)">
		<path id="Vector" d="M24.44 37C22.28 37 20.53 35.24 20.53 33.09C20.53 32.66 20.88 32.31 21.31 32.31C21.74 32.31 22.09 32.66 22.09 33.09C22.09 34.38 23.15 35.43 24.44 35.43C25.73 35.43 26.78 34.38 26.78 33.09C26.78 32.66 27.13 32.31 27.56 32.31C27.99 32.31 28.34 32.66 28.34 33.09C28.34 35.24 26.59 37 24.44 37Z" fill="#FE5C73" fill-opacity="1.000000" fill-rule="nonzero"/>
		<path id="Vector" d="M33.03 33.87L15.84 33.87C14.84 33.87 14.02 33.05 14.02 32.05C14.02 31.51 14.25 31.01 14.66 30.66C14.68 30.64 14.71 30.62 14.74 30.6C16.27 29.26 17.15 27.35 17.15 25.32L17.15 22.41C17.15 18.39 20.42 15.12 24.44 15.12C24.6 15.12 24.78 15.12 24.95 15.15C25.38 15.22 25.66 15.63 25.59 16.05C25.52 16.48 25.11 16.76 24.69 16.69C24.61 16.68 24.52 16.68 24.44 16.68C21.28 16.68 18.71 19.25 18.71 22.41L18.71 25.32C18.71 27.83 17.6 30.22 15.68 31.85C15.67 31.86 15.65 31.87 15.64 31.89C15.61 31.92 15.58 31.98 15.58 32.05C15.58 32.19 15.7 32.31 15.84 32.31L33.03 32.31C33.17 32.31 33.29 32.19 33.29 32.05C33.29 31.97 33.26 31.92 33.24 31.89C33.22 31.87 33.21 31.86 33.19 31.85C31.27 30.21 30.17 27.83 30.17 25.32L30.17 24.18C30.17 23.75 30.52 23.4 30.95 23.4C31.38 23.4 31.73 23.75 31.73 24.18L31.73 25.32C31.73 27.35 32.6 29.27 34.14 30.6C34.16 30.62 34.19 30.64 34.22 30.66C34.62 31.01 34.85 31.51 34.85 32.05C34.85 33.05 34.04 33.87 33.03 33.87Z" fill="#FE5C73" fill-opacity="1.000000" fill-rule="nonzero"/>
		<path id="Vector" d="M31.73 22.41C28.86 22.41 26.52 20.08 26.52 17.2C26.52 14.33 28.86 12 31.73 12C34.6 12 36.94 14.33 36.94 17.2C36.94 20.08 34.6 22.41 31.73 22.41ZM31.73 13.56C29.72 13.56 28.08 15.19 28.08 17.2C28.08 19.21 29.72 20.85 31.73 20.85C33.74 20.85 35.37 19.21 35.37 17.2C35.37 15.19 33.74 13.56 31.73 13.56Z" fill="#FE5C73" fill-opacity="1.000000" fill-rule="nonzero"/>
	</g>
</svg>
