<svg width="25.000000" height="25.000000" viewBox="0 0 25 25" fill="none" xmlns="http://www.w3.org/2000/svg" xmlns:xlink="http://www.w3.org/1999/xlink">
	<desc>
			Created with Pixso.
	</desc>
	<defs>
		<clipPath id="clip101_565">
			<rect id="003-google-glass-logo" rx="0.000000" width="24.000000" height="24.000000" transform="translate(0.500000 0.500000)" fill="white" fill-opacity="0"/>
		</clipPath>
	</defs>
	<rect id="003-google-glass-logo" rx="0.000000" width="24.000000" height="24.000000" transform="translate(0.500000 0.500000)" fill="#FFFFFF" fill-opacity="0"/>
	<g clip-path="url(#clip101_565)">
		<path id="Vector" d="M14.06 11.25L14.06 14.37L21.43 14.37C20.68 18.75 17.18 21.87 12.81 21.87C7.68 21.87 3.43 17.62 3.43 12.5C3.43 7.37 7.68 3.12 12.81 3.12C15.43 3.12 17.68 4.25 19.31 6L21.56 3.75C19.31 1.5 16.31 0 12.81 0C5.93 0 0.31 5.62 0.31 12.5C0.31 19.37 5.93 25 12.81 25C19.68 25 24.68 19.37 24.68 12.5L24.68 11.25L14.06 11.25Z" fill="#FF82AC" fill-opacity="1.000000" fill-rule="nonzero"/>
	</g>
</svg>
