<svg width="25.000000" height="22.259033" viewBox="0 0 25 22.259" fill="none" xmlns="http://www.w3.org/2000/svg" xmlns:xlink="http://www.w3.org/1999/xlink">
	<desc>
			Created with Pixso.
	</desc>
	<defs/>
	<path id="Vector" d="M23.62 10.17L23.62 2.76C23.62 1.23 22.39 0 20.86 0L2.76 0C1.23 0 0 1.23 0 2.76L0 14.01C0 15.53 1.23 16.77 2.76 16.77L9.92 16.77C10.87 19.94 13.82 22.25 17.29 22.25C21.54 22.25 25 18.8 25 14.55C25 12.92 24.49 11.41 23.62 10.17ZM12.91 8.22L1.7 8.22L1.7 5.81L21.92 5.81L21.92 8.4C20.63 7.43 19.03 6.85 17.29 6.85C15.67 6.85 14.16 7.35 12.91 8.22ZM2.76 1.7L20.86 1.7C21.45 1.7 21.92 2.17 21.92 2.76L21.92 4.11L1.7 4.11L1.7 2.76C1.7 2.17 2.17 1.7 2.76 1.7ZM2.76 15.07C2.17 15.07 1.7 14.6 1.7 14.01L1.7 9.92L11.14 9.92C10.17 11.21 9.59 12.81 9.59 14.55C9.59 14.73 9.6 14.9 9.61 15.07L2.76 15.07L2.76 15.07ZM17.29 20.55C13.98 20.55 11.29 17.86 11.29 14.55C11.29 11.24 13.98 8.55 17.29 8.55C20.6 8.55 23.29 11.24 23.29 14.55C23.29 17.86 20.6 20.55 17.29 20.55Z" fill="#FFBB38" fill-opacity="1.000000" fill-rule="nonzero"/>
	<path id="Vector" d="M13.18 12.33C12.71 12.33 12.33 12.71 12.33 13.18L12.33 15.92C12.33 16.39 12.71 16.77 13.18 16.77L21.4 16.77C21.87 16.77 22.25 16.39 22.25 15.92L22.25 13.18C22.25 12.71 21.87 12.33 21.4 12.33L13.18 12.33ZM20.55 15.07L14.03 15.07L14.03 14.03L20.55 14.03L20.55 15.07Z" fill="#FFBB38" fill-opacity="1.000000" fill-rule="nonzero"/>
</svg>
