<svg width="14.000000" height="14.000000" viewBox="0 0 14 14" fill="none" xmlns="http://www.w3.org/2000/svg" xmlns:xlink="http://www.w3.org/1999/xlink">
	<desc>
			Created with Pixso.
	</desc>
	<defs/>
	<path id="Vector" d="M7 0C5.61 0 4.26 0.41 3.11 1.17C1.95 1.94 1.06 3.04 0.53 4.32C0 5.6 -0.14 7 0.13 8.36C0.4 9.72 1.07 10.97 2.05 11.94C3.02 12.92 4.27 13.59 5.63 13.86C6.99 14.13 8.39 13.99 9.67 13.46C10.95 12.93 12.05 12.04 12.82 10.88C13.58 9.73 14 8.38 14 7C14 5.14 13.26 3.36 11.94 2.05C10.63 0.73 8.85 0 7 0ZM6 9.79L3.5 7.29L4.29 6.5L6 8.2L9.7 4.5L10.5 5.29L6 9.79Z" fill="#CAC6DA" fill-opacity="1.000000" fill-rule="evenodd"/>
</svg>
