<svg width="180.000000" height="180.000000" viewBox="0 0 180 180" fill="none" xmlns="http://www.w3.org/2000/svg" xmlns:xlink="http://www.w3.org/1999/xlink">
	<desc>
			Created with Pixso.
	</desc>
	<defs/>
	<path id="Vector" d="M80.32 89.99L47.57 89.99C24.47 89.99 5.69 71.54 5.15 48.57C5.15 48.24 5.14 47.9 5.14 47.57L47.57 47.57C67.84 47.57 84.79 61.79 89 80.8C89.58 83.44 89.92 86.19 89.98 88.99C89.99 89.33 90 89.66 90 89.99L80.32 89.99ZM90 80.32L90 89.99C89.66 89.99 89.33 90 89 90.01C86.19 90.07 83.44 90.41 80.8 90.99C61.79 95.2 47.57 112.15 47.57 132.42L47.57 174.85C47.9 174.85 48.24 174.84 48.57 174.84C71.54 174.31 90 155.52 90 132.42L90 89.99C90 90.33 90 90.66 90.01 90.99C90.07 93.8 90.41 96.55 91 99.19C95.2 118.2 112.15 132.42 132.42 132.42L174.85 132.42C174.85 132.09 174.84 131.75 174.84 131.42C174.31 108.45 155.52 89.99 132.42 89.99L90 89.99C90.33 89.99 90.66 89.99 91 89.98C93.8 89.92 96.55 89.58 99.19 88.99C118.2 84.79 132.42 67.84 132.42 47.57L132.42 5.14C132.09 5.14 131.75 5.15 131.42 5.15C108.45 5.68 90 24.47 90 47.57L90 80.32ZM131.42 6.15Q123.41 6.32 116.52 9.18Q109.2 12.21 103.13 18.28Q97.06 24.34 94.03 31.66Q91 38.99 91 47.57L91 88.98Q99 88.82 105.9 85.96Q113.22 82.93 119.29 76.86Q125.36 70.79 128.39 63.47Q131.42 56.15 131.42 47.57L131.42 6.15ZM91.01 90.99L132.42 90.99Q141 90.99 148.33 94.03Q155.65 97.06 161.71 103.13Q167.78 109.2 170.82 116.52Q173.67 123.41 173.84 131.42L132.42 131.42Q123.84 131.42 116.52 128.39Q109.2 125.35 103.13 119.29Q97.06 113.22 94.03 105.9Q91.17 99 91.01 90.99ZM89 91.01L89 132.42Q89 141 85.96 148.33Q82.93 155.65 76.86 161.71Q70.79 167.78 63.47 170.82Q56.58 173.67 48.57 173.84L48.57 132.42Q48.57 123.84 51.6 116.52Q54.64 109.2 60.7 103.13Q66.77 97.06 74.09 94.03Q80.99 91.17 89 91.01ZM88.98 88.99L47.57 88.99Q38.99 88.99 31.67 85.96Q24.34 82.93 18.28 76.86Q12.21 70.79 9.18 63.47Q6.32 56.58 6.15 48.57L47.57 48.57Q56.15 48.57 63.47 51.6Q70.79 54.64 76.86 60.7Q82.93 66.77 85.96 74.09Q88.82 80.99 88.98 88.99Z" fill="#FFFFFF" fill-opacity="1.000000" fill-rule="evenodd"/>
	<path id="Vector" d="M89.28 89.3C87.25 87.36 85.07 85.66 82.78 84.2C66.37 73.73 44.33 75.66 30 90L0.7 119.29L0 120C0.23 120.23 0.47 120.46 0.71 120.69C17.33 136.56 43.66 136.33 60 120L90 90C89.76 90.23 89.53 90.47 89.3 90.71C87.36 92.74 85.66 94.92 84.2 97.21C73.73 113.62 75.66 135.66 90 150L120 180C120.23 179.76 120.46 179.52 120.69 179.28C136.56 162.66 136.33 136.33 120 120L90 90C90.23 90.23 90.47 90.46 90.71 90.69C92.74 92.63 94.92 94.33 97.21 95.79C113.62 106.26 135.66 104.33 150 90L180 60C179.76 59.76 179.52 59.53 179.28 59.3C162.66 43.43 136.33 43.66 120 60L90 90C90.23 89.76 90.46 89.52 90.69 89.28C92.63 87.25 94.33 85.07 95.79 82.78C106.26 66.37 104.33 44.33 90 30L60.7 0.7L60 0C59.76 0.23 59.53 0.47 59.3 0.71C43.43 17.33 43.66 43.66 60 60L90 90C89.76 89.76 89.52 89.53 89.28 89.3ZM89.99 88.57L60.7 59.29Q54.64 53.22 51.6 45.9Q48.57 38.57 48.57 30Q48.57 21.42 51.6 14.09Q54.46 7.2 60 1.42L89.29 30.7Q95.35 36.77 98.39 44.09Q101.42 51.42 101.42 60Q101.42 68.57 98.39 75.9Q95.53 82.79 89.99 88.57ZM91.42 89.99L120.7 60.7Q126.77 54.64 134.09 51.6Q141.42 48.57 150 48.57Q158.58 48.57 165.9 51.6Q172.79 54.46 178.57 60L149.29 89.29Q143.22 95.35 135.9 98.39Q128.58 101.42 120 101.42Q111.42 101.42 104.09 98.39Q97.2 95.53 91.42 89.99ZM90 91.42L119.29 120.7Q125.36 126.77 128.39 134.09Q131.42 141.42 131.42 150Q131.42 158.58 128.39 165.9Q125.53 172.79 119.99 178.57L90.7 149.29Q84.64 143.22 81.6 135.9Q78.57 128.58 78.57 120Q78.57 111.42 81.6 104.09Q84.46 97.2 90 91.42ZM88.57 90L59.29 119.29Q53.22 125.36 45.9 128.39Q38.57 131.42 30 131.42Q21.42 131.42 14.09 128.39Q7.2 125.53 1.42 119.99L30.7 90.7Q36.77 84.64 44.09 81.6Q51.42 78.57 60 78.57Q68.57 78.57 75.9 81.6Q82.79 84.46 88.57 90Z" fill="#FFFFFF" fill-opacity="1.000000" fill-rule="evenodd"/>
</svg>
