<svg width="350.000000" height="350.000000" viewBox="0 0 350 350" fill="none" xmlns="http://www.w3.org/2000/svg" xmlns:xlink="http://www.w3.org/1999/xlink">
	<desc>
			Created with Pixso.
	</desc>
	<defs>
		<clipPath id="clip14_3764">
			<rect id="DrawKit Vector Illustration Black Friday &amp; Online Shopping (7)" rx="0.000000" width="349.509796" height="349.509796" transform="translate(0.245098 0.245098)" fill="white" fill-opacity="0"/>
		</clipPath>
	</defs>
	<rect id="DrawKit Vector Illustration Black Friday &amp; Online Shopping (7)" rx="0.000000" width="349.509796" height="349.509796" transform="translate(0.245098 0.245098)" fill="#FFFFFF" fill-opacity="0"/>
	<g clip-path="url(#clip14_3764)">
		<path id="Vector" d="M199.7 40.31L29.83 201.88C17.75 213.37 22.63 233.63 38.63 238.35L263.48 304.67C279.47 309.4 294.57 295.04 290.66 278.82L235.68 50.93C231.77 34.72 211.78 28.82 199.7 40.31Z" fill="#FFF1C9" fill-opacity="1.000000" fill-rule="nonzero"/>
		<path id="Vector" d="M198 241.73L124.42 241.73C113.26 263.78 107.67 288.24 108.15 312.95L212.62 313.05C212.24 300 210.66 287.02 207.9 274.27C205.47 263.18 202.16 252.29 198 241.73Z" fill="#F9B800" fill-opacity="1.000000" fill-rule="nonzero"/>
		<path id="Vector" d="M132.75 153.18L191.58 153.18L191.58 215.88L132.75 215.88L132.75 153.18Z" fill="#262626" fill-opacity="1.000000" fill-rule="evenodd"/>
		<path id="Vector" d="M168.38 142.73L154.13 142.73C149.61 142.73 145.28 140.93 142.09 137.74C138.89 134.54 137.1 130.21 137.1 125.69L137.1 107.69C137.1 103.28 138.85 99.05 141.97 95.93C145.08 92.82 149.31 91.06 153.72 91.06L168.32 91.06C174.15 91.06 179.73 93.38 183.85 97.5C187.97 101.62 190.28 107.2 190.28 113.02L190.28 120.83C190.28 126.64 187.98 132.21 183.87 136.31C179.76 140.42 174.19 142.73 168.38 142.73Z" fill="#262626" fill-opacity="1.000000" fill-rule="nonzero"/>
		<path id="Vector" d="M186.13 136.71L194.85 107.86C194.97 107.46 195.18 107.09 195.46 106.77C195.75 106.46 196.09 106.21 196.48 106.05C196.87 105.89 197.29 105.81 197.71 105.83C198.13 105.85 198.54 105.96 198.91 106.15L208.34 111.05C208.75 111.26 209.1 111.57 209.36 111.95C209.63 112.33 209.79 112.76 209.85 113.22C209.91 113.68 209.86 114.14 209.7 114.57C209.55 115.01 209.29 115.39 208.95 115.71L186.13 136.71Z" fill="#D3B970" fill-opacity="1.000000" fill-rule="nonzero"/>
		<path id="Vector" d="M183.89 135.58L208.8 120.07C209.19 119.83 209.62 119.68 210.07 119.63C210.53 119.58 210.99 119.64 211.41 119.79C211.84 119.94 212.23 120.19 212.55 120.51C212.88 120.83 213.12 121.22 213.27 121.66L216.57 131.22C216.73 131.67 216.78 132.16 216.71 132.64C216.64 133.11 216.46 133.56 216.18 133.96C215.91 134.35 215.54 134.67 215.12 134.89C214.69 135.12 214.22 135.24 213.74 135.24L183.89 135.58Z" fill="#D3B970" fill-opacity="1.000000" fill-rule="nonzero"/>
		<path id="Vector" d="M191.58 137.67C190.57 137.67 189.58 137.37 188.75 136.81C187.91 136.25 187.26 135.46 186.87 134.53C186.49 133.6 186.39 132.57 186.58 131.59C186.78 130.6 187.26 129.69 187.98 128.98C188.69 128.27 189.6 127.78 190.58 127.59C191.57 127.39 192.59 127.49 193.52 127.88C194.45 128.26 195.25 128.91 195.81 129.75C196.37 130.59 196.66 131.57 196.66 132.58C196.66 133.93 196.13 135.22 195.17 136.17C194.22 137.13 192.92 137.67 191.58 137.67ZM191.58 128.89C190.85 128.89 190.13 129.11 189.53 129.51C188.92 129.92 188.45 130.49 188.17 131.17C187.89 131.84 187.81 132.58 187.96 133.3C188.1 134.01 188.45 134.67 188.97 135.19C189.48 135.7 190.14 136.06 190.86 136.2C191.57 136.34 192.31 136.27 192.99 135.99C193.66 135.71 194.24 135.24 194.64 134.63C195.05 134.02 195.26 133.31 195.26 132.58C195.26 131.6 194.87 130.66 194.18 129.97C193.49 129.28 192.55 128.89 191.58 128.89Z" fill="#262626" fill-opacity="1.000000" fill-rule="nonzero"/>
		<path id="Vector" d="M182.37 124.84C182.57 122.93 182.01 121.01 180.81 119.51C179.61 118.01 177.87 117.04 175.96 116.81L176.01 111.87C176.04 110.31 175.75 108.75 175.17 107.3C174.59 105.84 173.73 104.51 172.64 103.39C171.55 102.27 170.25 101.37 168.81 100.75C167.37 100.13 165.82 99.81 164.25 99.79L146.05 99.66C143.67 99.65 141.38 100.6 139.69 102.28C138 103.96 137.05 106.24 137.04 108.63L136.85 130.86C136.82 132.72 137.16 134.57 137.85 136.31C138.54 138.04 139.56 139.62 140.86 140.95C142.16 142.29 143.71 143.36 145.43 144.09C147.14 144.83 148.98 145.22 150.85 145.25L151.69 145.25L151.57 157.57L175.62 157.74L175.76 143.14L175.73 143.14L175.84 131.41C177.52 131.23 179.09 130.48 180.27 129.28C181.46 128.09 182.2 126.52 182.37 124.84Z" fill="#FFFFFF" fill-opacity="1.000000" fill-rule="nonzero"/>
		<path id="Vector" d="M229.16 186.45L200.31 203.46L218.23 240.5C218.23 240.5 226.31 255.85 241.47 248.66C244.53 247.18 247.26 245.09 249.49 242.53C251.73 239.97 253.41 236.98 254.46 233.75L270.04 186.45C270.04 186.45 292.94 178.68 296.34 158.67C296.47 158.04 296.48 157.39 296.37 156.75C296.2 155.8 295.76 154.91 295.11 154.19C295.34 153.66 295.53 153.11 295.67 152.55C295.99 151.28 296.29 150.04 295.26 148.99C294.83 148.53 294.24 148.25 293.61 148.21C292.98 148.17 292.36 148.38 291.88 148.78C292.12 147.48 291.76 146.33 290.96 145.83C290.63 145.64 290.25 145.55 289.87 145.57C288.06 145.68 286.74 148.16 286.37 148.86C284.83 151.66 281.6 156.39 276.8 163.03C276.8 163.03 283.7 153.68 280.03 151.1C278.93 150.33 277.62 151.41 276.9 152.17C275.57 153.57 275.05 155.51 274.06 157.12C272.76 159.14 271.01 160.83 268.96 162.08C265.72 164.14 262.14 165.23 259.18 167.74C257.84 168.87 256.64 170.17 255.61 171.59C254.41 173.28 253.99 175.27 252.95 176.98L236.92 203.21L229.16 186.45Z" fill="#FFFFFF" fill-opacity="1.000000" fill-rule="nonzero"/>
		<path id="Vector" d="M233.65 251.27C223.25 251.27 217.67 240.96 217.61 240.83L199.41 203.18L229.47 185.46L237 201.74L252.35 176.62C252.77 175.88 253.14 175.11 253.44 174.31C253.86 173.22 254.39 172.17 255.03 171.2C256.09 169.72 257.33 168.38 258.72 167.21C260.57 165.64 262.66 164.6 264.67 163.6C266 162.97 267.3 162.27 268.56 161.5C270.53 160.31 272.21 158.69 273.46 156.76C273.81 156.17 274.12 155.57 274.4 154.94C274.92 153.82 275.47 152.66 276.39 151.7C278.36 149.6 279.76 150.08 280.42 150.54C280.78 150.79 281.08 151.11 281.31 151.49C281.53 151.86 281.68 152.28 281.74 152.71C281.84 153.48 281.8 154.26 281.61 155.01C283.58 152.14 284.93 150.02 285.75 148.53L285.77 148.48C286.24 147.63 287.66 145.01 289.82 144.89C290.34 144.84 290.87 144.96 291.32 145.24C291.71 145.5 292.03 145.85 292.25 146.26C292.48 146.67 292.61 147.13 292.63 147.6C293.18 147.46 293.76 147.47 294.31 147.63C294.86 147.79 295.36 148.09 295.75 148.5C297.07 149.84 296.67 151.44 296.35 152.72C296.24 153.18 296.09 153.63 295.92 154.07C296.43 154.73 296.8 155.5 296.99 156.32C297.18 157.14 297.19 157.99 297.02 158.81C295.62 167.16 290.52 174.71 282.32 180.63C278.7 183.25 274.76 185.39 270.59 187L255.12 233.96C254.05 237.29 252.31 240.36 250.01 242.99C247.72 245.62 244.92 247.77 241.77 249.29C239.25 250.55 236.47 251.23 233.65 251.27ZM201.22 203.73L218.86 240.2C220.33 242.74 222.29 244.96 224.62 246.75C229.59 250.45 235.16 250.88 241.17 248.02C244.14 246.58 246.79 244.55 248.96 242.06C251.13 239.57 252.78 236.67 253.79 233.53L269.5 185.91L269.83 185.79C270.05 185.72 292.37 177.91 295.65 158.56C295.77 158 295.78 157.43 295.69 156.87C295.54 156.05 295.16 155.28 294.6 154.65L294.3 154.3L294.48 153.89C294.7 153.4 294.87 152.89 295 152.37C295.32 151.05 295.49 150.21 294.76 149.47C294.46 149.14 294.05 148.93 293.6 148.9C293.15 148.86 292.71 149 292.36 149.29L290.82 150.69L291.2 148.65C291.38 147.65 291.14 146.75 290.6 146.42C290.39 146.3 290.15 146.25 289.91 146.27C289 146.32 288.02 147.29 287.01 149.14L286.99 149.19C285.53 151.84 282.61 156.19 277.54 163.22L277.38 163.45L276.25 162.62L276.47 162.3C277.87 160.31 280.8 155.53 280.38 152.92C280.35 152.67 280.27 152.44 280.14 152.22C280.01 152 279.84 151.82 279.64 151.67C278.94 151.18 277.86 152.19 277.42 152.65C276.66 153.45 276.19 154.46 275.67 155.53C275.37 156.2 275.03 156.85 274.66 157.48C273.3 159.59 271.48 161.37 269.34 162.67C268.03 163.47 266.68 164.19 265.29 164.85C263.26 165.86 261.33 166.81 259.62 168.27C258.32 169.37 257.18 170.63 256.2 172.01C255.61 172.9 255.13 173.85 254.76 174.85C254.43 175.71 254.03 176.55 253.56 177.35L236.85 204.7L228.86 187.45L201.22 203.73Z" fill="#262626" fill-opacity="1.000000" fill-rule="nonzero"/>
		<path id="Vector" d="M175 127.63C174.9 127.64 174.8 127.64 174.7 127.63C174.14 127.58 173.6 127.35 173.17 126.99C172.73 126.63 172.41 126.15 172.24 125.6C172.08 125.06 172.08 124.48 172.25 123.93C172.41 123.39 172.74 122.91 173.18 122.55C173.62 122.19 174.15 121.97 174.72 121.91C175.29 121.86 175.85 121.97 176.36 122.24C176.86 122.51 177.27 122.92 177.53 123.42C177.8 123.93 177.91 124.5 177.85 125.06C177.78 125.77 177.45 126.43 176.92 126.9C176.4 127.38 175.71 127.65 175 127.65L175 127.63ZM175 123.29C174.71 123.29 174.43 123.37 174.19 123.52C173.95 123.68 173.76 123.9 173.65 124.16C173.53 124.42 173.5 124.71 173.54 124.99C173.59 125.27 173.71 125.54 173.9 125.75C174.09 125.96 174.34 126.11 174.62 126.18C174.89 126.26 175.19 126.25 175.46 126.16C175.73 126.07 175.97 125.9 176.14 125.68C176.32 125.46 176.43 125.19 176.46 124.91C176.5 124.52 176.38 124.13 176.14 123.83C175.89 123.53 175.53 123.33 175.14 123.29L175 123.29Z" fill="#262626" fill-opacity="1.000000" fill-rule="nonzero"/>
		<path id="Vector" d="M152 144.56L166.35 144.21C166.44 144.21 166.54 144.24 166.61 144.3C166.68 144.36 166.73 144.44 166.75 144.53C166.76 144.62 166.75 144.72 166.7 144.8C166.65 144.88 166.58 144.94 166.49 144.97L151.94 150.22L152 144.56Z" fill="#262626" fill-opacity="1.000000" fill-rule="nonzero"/>
		<path id="Vector" d="M172.85 125.81C172.67 125.81 172.5 125.75 172.37 125.63C172.25 125.52 172.16 125.36 172.15 125.18C172.07 124.41 172.19 123.62 172.51 122.91C172.83 122.2 173.34 121.58 173.97 121.13C174.58 120.71 175.28 120.45 176.01 120.36C176.74 120.27 177.48 120.36 178.17 120.61C178.26 120.64 178.34 120.69 178.41 120.75C178.48 120.82 178.54 120.89 178.58 120.98C178.62 121.07 178.64 121.16 178.64 121.25C178.65 121.35 178.63 121.44 178.59 121.53C178.56 121.62 178.51 121.7 178.44 121.77C178.38 121.83 178.3 121.89 178.21 121.92C178.12 121.96 178.03 121.98 177.93 121.97C177.84 121.97 177.75 121.95 177.66 121.91C177.19 121.75 176.68 121.69 176.18 121.75C175.68 121.81 175.21 121.99 174.79 122.26C174.36 122.58 174.01 123 173.79 123.48C173.57 123.97 173.49 124.51 173.54 125.04C173.55 125.13 173.54 125.22 173.52 125.31C173.49 125.4 173.45 125.48 173.39 125.55C173.33 125.62 173.26 125.68 173.18 125.73C173.1 125.77 173.01 125.8 172.92 125.81L172.85 125.81Z" fill="#262626" fill-opacity="1.000000" fill-rule="nonzero"/>
		<path id="Vector" d="M102.36 184.41L131.2 201.41L113.29 238.45C113.29 238.45 105.2 253.81 90.04 246.61C86.98 245.13 84.25 243.05 82.02 240.48C79.79 237.92 78.1 234.93 77.05 231.7L61.47 184.41C61.47 184.41 38.57 176.63 35.18 156.63C35.05 155.99 35.04 155.34 35.15 154.7C35.32 153.75 35.75 152.86 36.39 152.14C36.16 151.61 35.98 151.07 35.84 150.51C35.52 149.24 35.22 148 36.25 146.95C36.68 146.48 37.27 146.2 37.9 146.16C38.53 146.13 39.15 146.33 39.63 146.74C39.39 145.43 39.75 144.29 40.55 143.78C40.88 143.59 41.26 143.5 41.64 143.53C43.45 143.64 44.77 146.12 45.14 146.81C46.68 149.61 49.92 154.35 54.71 160.99C54.71 160.99 47.81 151.63 51.48 149.05C52.58 148.29 53.88 149.37 54.61 150.12C55.94 151.52 56.45 153.46 57.44 155.07C58.75 157.09 60.5 158.78 62.55 160.04C65.79 162.09 69.37 163.19 72.33 165.7C73.67 166.83 74.87 168.12 75.9 169.55C77.1 171.23 77.52 173.22 78.56 174.93L94.59 201.16L102.36 184.41Z" fill="#FFFFFF" fill-opacity="1.000000" fill-rule="nonzero"/>
		<path id="Vector" d="M97.87 249.22C95.04 249.18 92.26 248.5 89.74 247.24C86.6 245.72 83.79 243.58 81.5 240.94C79.21 238.31 77.47 235.24 76.39 231.92L60.89 184.95C56.73 183.35 52.79 181.21 49.17 178.59C40.97 172.66 35.89 165.11 34.47 156.74C34.3 155.92 34.32 155.08 34.51 154.26C34.7 153.45 35.06 152.68 35.58 152.02C35.41 151.58 35.26 151.13 35.15 150.68C34.83 149.39 34.45 147.79 35.74 146.46C36.13 146.04 36.63 145.74 37.18 145.58C37.73 145.42 38.31 145.41 38.87 145.55C38.89 145.08 39.01 144.62 39.24 144.21C39.47 143.8 39.79 143.45 40.17 143.19C40.62 142.92 41.15 142.79 41.67 142.84C43.83 142.97 45.26 145.58 45.73 146.44L45.75 146.48C46.58 148 47.91 150.09 49.88 152.97C49.7 152.22 49.66 151.43 49.76 150.66C49.81 150.23 49.96 149.81 50.19 149.44C50.41 149.06 50.72 148.74 51.07 148.49C51.73 148.03 53.13 147.57 55.11 149.65C56.02 150.61 56.57 151.78 57.1 152.9C57.38 153.52 57.69 154.12 58.04 154.71C59.28 156.64 60.95 158.26 62.92 159.46C64.18 160.22 65.48 160.92 66.81 161.56C68.83 162.56 70.93 163.6 72.76 165.17C74.15 166.34 75.39 167.68 76.45 169.16C77.09 170.13 77.63 171.17 78.03 172.27C78.34 173.06 78.71 173.84 79.14 174.58L94.48 199.7L102.02 183.42L132.08 201.14L113.88 238.76C113.84 238.91 108.26 249.22 97.87 249.22ZM38.11 146.85C37.6 146.86 37.11 147.07 36.76 147.44C36.03 148.17 36.19 149.02 36.52 150.34C36.65 150.86 36.82 151.37 37.04 151.86L37.22 152.27L36.92 152.62C36.36 153.24 35.98 154.01 35.83 154.84C35.74 155.39 35.75 155.95 35.86 156.5C39.15 175.89 61.47 183.68 61.69 183.76L62.02 183.87L77.72 231.49C78.74 234.64 80.38 237.54 82.55 240.03C84.72 242.52 87.37 244.55 90.34 245.99C96.37 248.86 101.95 248.42 106.93 244.68C109.25 242.9 111.2 240.68 112.67 238.14L130.29 201.7L102.67 185.42L94.68 202.65L77.97 175.29C77.5 174.49 77.1 173.65 76.77 172.79C76.4 171.79 75.92 170.84 75.34 169.95C74.34 168.58 73.18 167.33 71.88 166.25C70.16 164.78 68.24 163.83 66.2 162.82C64.83 162.17 63.48 161.44 62.18 160.64C60.04 159.34 58.22 157.57 56.86 155.45C56.48 154.82 56.15 154.17 55.85 153.5C55.34 152.43 54.87 151.43 54.1 150.62C53.66 150.17 52.58 149.16 51.88 149.64C51.68 149.79 51.5 149.98 51.38 150.19C51.25 150.41 51.17 150.65 51.14 150.9C50.72 153.5 53.62 158.25 55.04 160.27L55.27 160.59L54.14 161.42L53.98 161.2C48.89 154.14 45.97 149.81 44.53 147.16L44.51 147.12C43.5 145.27 42.52 144.3 41.6 144.24C41.36 144.22 41.12 144.28 40.92 144.39C40.37 144.75 40.13 145.63 40.32 146.63L40.69 148.66L39.16 147.26C38.88 147 38.5 146.85 38.11 146.85Z" fill="#262626" fill-opacity="1.000000" fill-rule="nonzero"/>
		<path id="Vector" d="M141.45 121.4C141.45 122.18 140.82 122.81 140.04 122.81C139.25 122.81 138.62 122.18 138.62 121.4C138.62 120.61 139.25 119.98 140.04 119.98C140.82 119.98 141.45 120.61 141.45 121.4Z" fill="#262626" fill-opacity="1.000000" fill-rule="evenodd"/>
		<path id="Vector" d="M156.66 121.17C156.66 121.95 156.02 122.58 155.24 122.58C154.46 122.58 153.82 121.95 153.82 121.17C153.82 120.38 154.46 119.75 155.24 119.75C156.02 119.75 156.66 120.38 156.66 121.17Z" fill="#262626" fill-opacity="1.000000" fill-rule="evenodd"/>
		<path id="Vector" d="M145.64 127.66C145.56 127.66 145.49 127.65 145.41 127.62C144.36 127.27 143.31 126.75 143.31 125.84C143.32 125.67 143.37 125.5 143.44 125.35C143.52 125.19 143.63 125.05 143.76 124.94C143.85 124.85 143.93 124.75 144.01 124.65C144.37 124.19 144.58 123.64 144.63 123.06L145.21 116.92C145.23 116.73 145.32 116.56 145.47 116.44C145.61 116.32 145.79 116.27 145.98 116.28C146.17 116.3 146.34 116.39 146.46 116.54C146.57 116.68 146.63 116.86 146.61 117.05L146.02 123.2C145.95 124.04 145.64 124.84 145.12 125.51C145.01 125.65 144.92 125.75 144.84 125.84C145.17 126.03 145.52 126.19 145.89 126.3C146.05 126.36 146.18 126.47 146.26 126.61C146.35 126.75 146.38 126.92 146.35 127.08C146.32 127.25 146.24 127.39 146.11 127.5C145.98 127.61 145.82 127.67 145.66 127.66L145.64 127.66Z" fill="#262626" fill-opacity="1.000000" fill-rule="nonzero"/>
		<path id="Vector" d="M147.76 133.78C146.69 133.75 145.64 133.44 144.73 132.88C144.65 132.83 144.58 132.76 144.52 132.69C144.46 132.61 144.42 132.53 144.4 132.43C144.38 132.34 144.38 132.25 144.4 132.15C144.41 132.06 144.45 131.97 144.5 131.89C144.55 131.81 144.62 131.75 144.7 131.69C144.77 131.64 144.86 131.61 144.95 131.59C145.05 131.57 145.14 131.57 145.23 131.59C145.33 131.61 145.41 131.65 145.49 131.7C145.52 131.72 146.96 132.63 148.37 132.32C148.76 132.22 149.13 132.04 149.44 131.8C149.76 131.55 150.02 131.25 150.22 130.9C150.32 130.74 150.48 130.63 150.66 130.59C150.84 130.55 151.03 130.58 151.19 130.68C151.34 130.78 151.45 130.94 151.49 131.12C151.53 131.3 151.5 131.49 151.4 131.65C151.04 132.3 150.52 132.84 149.87 133.22C149.23 133.59 148.5 133.79 147.76 133.78Z" fill="#262626" fill-opacity="1.000000" fill-rule="nonzero"/>
		<path id="Vector" d="M124.42 241.73L118.3 211.98C117.26 206.92 117.52 201.68 119.07 196.75L132.75 153.17L144.96 153.17L147.76 159.39C153.77 172.73 172.82 172.45 178.42 158.93L180.81 153.17L191.58 153.17L205.06 197.48C206.8 203.19 206.89 209.28 205.31 215.04L198 241.73L124.42 241.73Z" fill="#F9B800" fill-opacity="1.000000" fill-rule="nonzero"/>
		<path id="Vector" d="M163.62 109.8L156.86 109.8C154.77 109.8 152.76 108.97 151.28 107.5C149.81 106.02 148.98 104.01 148.98 101.92L148.98 96.85L163.62 96.85L163.62 109.8Z" fill="#262626" fill-opacity="1.000000" fill-rule="nonzero"/>
		<path id="Vector" d="M191.58 153.18L205.95 201.19L232.98 185.24C230 179.76 226.68 174.47 223.05 169.4C216.64 160.45 213.32 155.93 207.69 153.64C201.71 151.2 195.7 152.05 191.58 153.18Z" fill="#262626" fill-opacity="1.000000" fill-rule="nonzero"/>
		<path id="Vector" d="M182.41 117.44L170.26 117.44C169.09 117.44 167.93 117.21 166.85 116.76C165.77 116.31 164.78 115.66 163.96 114.83C163.13 114 162.47 113.02 162.02 111.93C161.58 110.85 161.35 109.69 161.35 108.52L161.35 104.49L182.41 104.49L182.41 117.44Z" fill="#262626" fill-opacity="1.000000" fill-rule="nonzero"/>
		<path id="Vector" d="M157.18 96.85L178.11 96.85L178.11 109.81L157.18 109.81L157.18 96.85Z" fill="#262626" fill-opacity="1.000000" fill-rule="evenodd"/>
		<path id="Vector" d="M204.81 149.57C204.81 158.77 197.36 166.23 188.16 166.23C178.96 166.23 171.51 158.77 171.51 149.57C171.51 140.38 178.96 132.92 188.16 132.92C197.36 132.92 204.81 140.38 204.81 149.57Z" fill="#262626" fill-opacity="1.000000" fill-rule="evenodd"/>
		<path id="Vector" d="M188.32 165.51C188.32 172.32 182.8 177.84 175.99 177.84C169.18 177.84 163.66 172.32 163.66 165.51C163.66 158.7 169.18 153.18 175.99 153.18C182.8 153.18 188.32 158.7 188.32 165.51Z" fill="#262626" fill-opacity="1.000000" fill-rule="evenodd"/>
		<path id="Vector" d="M210.45 166.21C210.45 173.02 204.93 178.54 198.12 178.54C191.31 178.54 185.79 173.02 185.79 166.21C185.79 159.4 191.31 153.88 198.12 153.88C204.93 153.88 210.45 159.4 210.45 166.21Z" fill="#262626" fill-opacity="1.000000" fill-rule="evenodd"/>
		<path id="Vector" d="M172.99 220.36L151.33 220.36C148.1 220.35 145 219.07 142.72 216.78C140.44 214.5 139.15 211.4 139.15 208.17L139.15 193.52C139.15 191.95 139.77 190.44 140.88 189.33C141.99 188.22 143.49 187.6 145.06 187.6L179.27 187.6C180.83 187.6 182.34 188.22 183.45 189.33C184.56 190.44 185.18 191.94 185.18 193.51L185.18 208.16C185.18 211.39 183.89 214.49 181.61 216.78C179.32 219.07 176.23 220.35 172.99 220.36ZM145.06 189C143.86 189 142.72 189.47 141.87 190.32C141.03 191.17 140.55 192.31 140.55 193.51L140.55 208.16C140.55 211.02 141.69 213.76 143.71 215.79C145.73 217.81 148.47 218.94 151.33 218.95L172.99 218.95C175.85 218.95 178.6 217.81 180.62 215.79C182.64 213.76 183.78 211.02 183.78 208.16L183.78 193.52C183.78 192.32 183.31 191.17 182.46 190.32C181.61 189.47 180.46 189 179.27 189L145.06 189Z" fill="#FFFFFF" fill-opacity="1.000000" fill-rule="nonzero"/>
		<path id="Vector" d="M198.12 182.29C198.12 189.1 192.6 194.62 185.79 194.62C178.98 194.62 173.46 189.1 173.46 182.29C173.46 175.48 178.98 169.96 185.79 169.96C192.6 169.96 198.12 175.48 198.12 182.29Z" fill="#262626" fill-opacity="1.000000" fill-rule="evenodd"/>
		<path id="Vector" d="M229.05 215.53C228.93 215.53 228.8 215.49 228.69 215.43C228.58 215.36 228.5 215.27 228.44 215.16C228.38 215.04 228.35 214.92 228.36 214.79C228.36 214.66 228.4 214.54 228.48 214.44L236.33 202.83C236.38 202.75 236.45 202.69 236.53 202.63C236.6 202.58 236.69 202.55 236.78 202.53C236.87 202.51 236.96 202.51 237.05 202.53C237.14 202.55 237.23 202.59 237.31 202.64C237.38 202.69 237.45 202.76 237.5 202.83C237.55 202.91 237.58 203 237.6 203.09C237.62 203.18 237.62 203.27 237.6 203.36C237.58 203.45 237.55 203.54 237.5 203.61L229.63 215.22C229.57 215.32 229.48 215.39 229.38 215.45C229.28 215.5 229.17 215.53 229.05 215.53Z" fill="#262626" fill-opacity="1.000000" fill-rule="nonzero"/>
		<path id="Vector" d="M287.5 169.05C287.35 169.05 287.22 169 287.1 168.92C286.98 168.84 286.89 168.73 286.84 168.6C286.79 168.47 286.78 168.32 286.81 168.18C286.85 168.05 286.92 167.92 287.02 167.83C291.33 163.9 294.3 154.35 294.32 154.25C294.35 154.16 294.4 154.08 294.45 154.01C294.51 153.94 294.58 153.88 294.67 153.84C294.75 153.79 294.84 153.77 294.93 153.76C295.02 153.75 295.11 153.76 295.2 153.78C295.29 153.81 295.37 153.86 295.44 153.91C295.51 153.97 295.57 154.05 295.61 154.13C295.66 154.21 295.68 154.3 295.69 154.39C295.7 154.48 295.69 154.57 295.66 154.66C295.54 155.07 292.56 164.67 287.96 168.86C287.84 168.98 287.67 169.04 287.5 169.05Z" fill="#262626" fill-opacity="1.000000" fill-rule="nonzero"/>
		<path id="Vector" d="M283.15 165.26C283 165.26 282.86 165.21 282.74 165.13C282.62 165.05 282.53 164.93 282.48 164.79C282.43 164.66 282.43 164.51 282.47 164.37C282.51 164.23 282.59 164.1 282.7 164.01C286.69 160.78 291.17 148.66 291.22 148.54C291.29 148.38 291.42 148.25 291.58 148.18C291.75 148.11 291.93 148.1 292.1 148.17C292.26 148.23 292.4 148.35 292.48 148.51C292.56 148.67 292.58 148.85 292.53 149.02C292.34 149.54 287.87 161.62 283.59 165.1C283.46 165.2 283.31 165.26 283.15 165.26Z" fill="#262626" fill-opacity="1.000000" fill-rule="nonzero"/>
		<path id="Vector" d="M102.46 213.5C102.34 213.5 102.23 213.47 102.13 213.41C102.03 213.36 101.94 213.28 101.88 213.19L94.02 201.58C93.96 201.5 93.92 201.42 93.9 201.32C93.88 201.23 93.88 201.14 93.89 201.04C93.91 200.95 93.94 200.86 93.99 200.78C94.05 200.7 94.11 200.64 94.19 200.58C94.27 200.53 94.36 200.49 94.45 200.47C94.54 200.46 94.64 200.46 94.73 200.48C94.82 200.5 94.91 200.54 94.99 200.59C95.06 200.64 95.13 200.71 95.18 200.79L103.04 212.4C103.11 212.51 103.15 212.63 103.16 212.76C103.16 212.89 103.14 213.01 103.08 213.12C103.02 213.24 102.93 213.33 102.82 213.4C102.71 213.46 102.59 213.5 102.46 213.5Z" fill="#262626" fill-opacity="1.000000" fill-rule="nonzero"/>
		<path id="Vector" d="M44.01 167C43.84 167 43.67 166.94 43.55 166.82C38.95 162.62 35.97 153.02 35.85 152.62C35.81 152.53 35.8 152.43 35.81 152.34C35.81 152.24 35.84 152.15 35.88 152.07C35.92 151.98 35.98 151.91 36.05 151.84C36.12 151.78 36.21 151.74 36.3 151.71C36.39 151.68 36.49 151.67 36.58 151.68C36.67 151.69 36.76 151.72 36.85 151.77C36.93 151.82 37 151.88 37.06 151.95C37.12 152.03 37.16 152.11 37.18 152.21C37.21 152.3 40.18 161.86 44.48 165.79C44.59 165.88 44.66 166.01 44.69 166.14C44.72 166.28 44.71 166.42 44.66 166.56C44.61 166.69 44.52 166.8 44.4 166.88C44.29 166.96 44.15 167 44.01 167L44.01 167Z" fill="#262626" fill-opacity="1.000000" fill-rule="nonzero"/>
		<path id="Vector" d="M48.36 163.21C48.2 163.21 48.05 163.16 47.92 163.05C43.63 159.58 39.17 147.49 38.97 146.98C38.94 146.89 38.93 146.8 38.93 146.71C38.94 146.62 38.96 146.53 39 146.44C39.04 146.36 39.09 146.28 39.16 146.22C39.23 146.16 39.3 146.11 39.39 146.08C39.48 146.05 39.57 146.03 39.66 146.04C39.75 146.04 39.84 146.06 39.93 146.1C40.01 146.14 40.09 146.19 40.15 146.26C40.21 146.33 40.26 146.41 40.29 146.5C40.34 146.62 44.81 158.75 48.8 161.97C48.91 162.06 49 162.18 49.03 162.32C49.07 162.46 49.07 162.61 49.02 162.75C48.97 162.88 48.88 163 48.76 163.08C48.65 163.17 48.51 163.21 48.36 163.21Z" fill="#262626" fill-opacity="1.000000" fill-rule="nonzero"/>
		<path id="Vector" d="M160.38 288.23C160.2 288.23 160.02 288.21 159.89 288.17C159.76 288.13 159.68 288.09 159.68 288.03L159.68 278.62C159.68 278.57 159.76 278.52 159.89 278.48C160.02 278.44 160.2 278.42 160.38 278.42C160.57 278.42 160.75 278.44 160.88 278.48C161.01 278.52 161.08 278.57 161.08 278.62L161.08 288.03C161.08 288.09 161.01 288.13 160.88 288.17C160.75 288.21 160.57 288.23 160.38 288.23Z" fill="#FFFFFF" fill-opacity="1.000000" fill-rule="nonzero"/>
		<path id="Vector" d="M160.38 258.65C160.2 258.65 160.02 258.57 159.89 258.44C159.76 258.31 159.68 258.13 159.68 257.95L159.68 241.73C159.68 241.54 159.76 241.37 159.89 241.24C160.02 241.1 160.2 241.03 160.38 241.03C160.57 241.03 160.75 241.1 160.88 241.24C161.01 241.37 161.08 241.54 161.08 241.73L161.08 257.95C161.08 258.13 161.01 258.31 160.88 258.44C160.75 258.57 160.57 258.65 160.38 258.65Z" fill="#FFFFFF" fill-opacity="1.000000" fill-rule="nonzero"/>
		<path id="Vector" d="M203.98 259.78C203.93 259.78 203.89 259.78 203.85 259.78C195.2 258.26 190.69 253.48 188.44 249.71C186.96 247.3 185.98 244.61 185.58 241.81C185.57 241.72 185.58 241.63 185.61 241.54C185.63 241.45 185.68 241.37 185.74 241.29C185.79 241.22 185.87 241.16 185.95 241.12C186.03 241.08 186.12 241.05 186.21 241.04C186.3 241.03 186.39 241.04 186.48 241.07C186.57 241.09 186.65 241.14 186.72 241.2C186.8 241.25 186.86 241.33 186.9 241.41C186.94 241.49 186.97 241.58 186.98 241.67C187.38 244.27 188.3 246.77 189.67 249.02C192.75 254.09 197.6 257.24 204.11 258.38C204.29 258.4 204.46 258.49 204.58 258.63C204.7 258.77 204.76 258.96 204.75 259.14C204.73 259.33 204.64 259.5 204.5 259.62C204.36 259.74 204.17 259.8 203.99 259.78L203.98 259.78Z" fill="#FFFFFF" fill-opacity="1.000000" fill-rule="nonzero"/>
		<path id="Vector" d="M119.74 260.71C118.7 260.7 117.66 260.63 116.62 260.5C116.43 260.48 116.26 260.38 116.15 260.23C116.04 260.08 115.98 259.9 116.01 259.71C116.03 259.53 116.13 259.36 116.28 259.24C116.42 259.13 116.61 259.08 116.8 259.1C122.01 259.77 126.2 258.73 129.26 256.01C134.92 250.99 134.92 241.82 134.92 241.73C134.92 241.54 134.99 241.36 135.12 241.23C135.25 241.1 135.43 241.03 135.62 241.03C135.8 241.03 135.98 241.1 136.11 241.23C136.24 241.36 136.32 241.54 136.32 241.73C136.32 242.13 136.32 251.61 130.2 257.06C127.47 259.49 123.96 260.71 119.74 260.71Z" fill="#FFFFFF" fill-opacity="1.000000" fill-rule="nonzero"/>
		<path id="Vector" d="M98.18 183.86L119.3 196.03L132.75 153.18C132.75 153.18 114.1 147.98 98.18 183.86Z" fill="#262626" fill-opacity="1.000000" fill-rule="nonzero"/>
		<path id="Vector" d="M106.88 140.92L52.63 140.92C49.91 140.92 47.31 139.84 45.39 137.92C43.46 136 42.38 133.39 42.38 130.67L42.38 87.27C42.38 85.92 42.64 84.59 43.16 83.34C43.67 82.09 44.43 80.96 45.38 80.01C46.33 79.05 47.46 78.3 48.71 77.78C49.95 77.26 51.29 77 52.64 77L106.89 77C109.61 77 112.21 78.08 114.13 80C116.06 81.92 117.14 84.53 117.14 87.25L117.14 130.65C117.14 132 116.88 133.33 116.36 134.58C115.85 135.82 115.09 136.96 114.14 137.91C113.19 138.87 112.06 139.62 110.81 140.14C109.57 140.66 108.23 140.92 106.88 140.92ZM52.64 78.39C50.29 78.4 48.04 79.33 46.38 80.99C44.72 82.65 43.79 84.9 43.79 87.25L43.79 130.65C43.79 132.99 44.72 135.24 46.38 136.9C48.04 138.56 50.29 139.5 52.64 139.5L106.89 139.5C109.24 139.5 111.49 138.56 113.15 136.9C114.81 135.24 115.74 132.99 115.74 130.65L115.74 87.25C115.74 84.9 114.8 82.65 113.14 80.99C111.48 79.33 109.23 78.39 106.88 78.39L52.64 78.39Z" fill="#262626" fill-opacity="1.000000" fill-rule="nonzero"/>
		<path id="Vector" d="M110.95 101.78L92.58 101.78C92.39 101.78 92.21 101.7 92.08 101.57C91.95 101.44 91.88 101.26 91.88 101.08C91.88 100.89 91.95 100.72 92.08 100.58C92.21 100.45 92.39 100.38 92.58 100.38L110.95 100.38C111.13 100.38 111.31 100.45 111.44 100.58C111.57 100.72 111.65 100.89 111.65 101.08C111.65 101.26 111.57 101.44 111.44 101.57C111.31 101.7 111.13 101.78 110.95 101.78Z" fill="#262626" fill-opacity="1.000000" fill-rule="nonzero"/>
		<path id="Vector" d="M110.95 109.01L92.58 109.01C92.39 109.01 92.21 108.94 92.08 108.8C91.95 108.67 91.88 108.5 91.88 108.31C91.88 108.12 91.95 107.95 92.08 107.81C92.21 107.68 92.39 107.61 92.58 107.61L110.95 107.61C111.13 107.61 111.31 107.68 111.44 107.81C111.57 107.95 111.65 108.12 111.65 108.31C111.65 108.5 111.57 108.67 111.44 108.8C111.31 108.94 111.13 109.01 110.95 109.01Z" fill="#262626" fill-opacity="1.000000" fill-rule="nonzero"/>
		<path id="Vector" d="M106.15 116.24L92.58 116.24C92.39 116.24 92.21 116.16 92.08 116.03C91.95 115.9 91.88 115.72 91.88 115.54C91.88 115.35 91.95 115.17 92.08 115.04C92.21 114.91 92.39 114.84 92.58 114.84L106.15 114.84C106.34 114.84 106.52 114.91 106.65 115.04C106.78 115.17 106.85 115.35 106.85 115.54C106.85 115.72 106.78 115.9 106.65 116.03C106.52 116.16 106.34 116.24 106.15 116.24Z" fill="#262626" fill-opacity="1.000000" fill-rule="nonzero"/>
		<path id="Vector" d="M82.07 123.12L58.1 123.12L55.91 115.41L83.56 115.41L82.07 123.12ZM59.14 121.71L80.92 121.71L81.85 116.81L57.75 116.81L59.14 121.71Z" fill="#262626" fill-opacity="1.000000" fill-rule="nonzero"/>
		<path id="Vector" d="M70.32 123.12C70.14 123.12 69.96 123.04 69.83 122.91C69.7 122.78 69.62 122.6 69.62 122.41L69.62 116.12C69.62 115.93 69.7 115.75 69.83 115.62C69.96 115.49 70.14 115.41 70.32 115.41C70.51 115.41 70.69 115.49 70.82 115.62C70.95 115.75 71.02 115.93 71.02 116.12L71.02 122.41C71.02 122.6 70.95 122.78 70.82 122.91C70.69 123.04 70.51 123.12 70.32 123.12Z" fill="#262626" fill-opacity="1.000000" fill-rule="nonzero"/>
		<path id="Vector" d="M82.7 122.41C82.7 123.48 81.85 124.34 80.8 124.34C79.75 124.34 78.9 123.48 78.9 122.41C78.9 121.35 79.75 120.49 80.8 120.49C81.85 120.49 82.7 121.35 82.7 122.41Z" fill="#262626" fill-opacity="1.000000" fill-rule="evenodd"/>
		<path id="Vector" d="M72.23 122.41C72.23 123.48 71.37 124.34 70.31 124.34C69.25 124.34 68.39 123.48 68.39 122.41C68.39 121.35 69.25 120.49 70.31 120.49C71.37 120.49 72.23 121.35 72.23 122.41Z" fill="#262626" fill-opacity="1.000000" fill-rule="evenodd"/>
		<path id="Vector" d="M61.24 122.41C61.24 123.48 60.39 124.34 59.34 124.34C58.29 124.34 57.44 123.48 57.44 122.41C57.44 121.35 58.29 120.49 59.34 120.49C60.39 120.49 61.24 121.35 61.24 122.41Z" fill="#262626" fill-opacity="1.000000" fill-rule="evenodd"/>
		<path id="Vector" d="M53.12 102.92C53.02 102.92 52.91 102.89 52.81 102.84C52.72 102.8 52.63 102.73 52.57 102.64L48.64 97.46C48.46 97.21 48.35 96.93 48.33 96.63C48.3 96.33 48.36 96.02 48.49 95.75C48.63 95.48 48.83 95.26 49.09 95.1C49.35 94.94 49.64 94.85 49.94 94.85L61.92 94.85C62.38 94.85 62.83 94.96 63.25 95.17C63.66 95.38 64.01 95.69 64.28 96.06L69.69 101.72C69.81 101.85 69.86 102.03 69.85 102.2C69.84 102.38 69.77 102.54 69.64 102.67C69.51 102.79 69.34 102.86 69.17 102.86C68.99 102.86 68.82 102.8 68.69 102.68L63.15 96.91C63.01 96.71 62.83 96.54 62.61 96.43C62.39 96.31 62.15 96.25 61.9 96.25L49.93 96.25C49.89 96.25 49.85 96.26 49.81 96.29C49.77 96.31 49.74 96.34 49.73 96.38C49.71 96.41 49.7 96.46 49.7 96.5C49.71 96.54 49.72 96.58 49.75 96.61L53.68 101.79C53.74 101.87 53.78 101.95 53.8 102.04C53.83 102.13 53.83 102.22 53.82 102.31C53.81 102.4 53.78 102.49 53.73 102.57C53.68 102.65 53.62 102.72 53.55 102.78C53.43 102.87 53.28 102.92 53.12 102.92Z" fill="#262626" fill-opacity="1.000000" fill-rule="nonzero"/>
		<path id="Vector" d="M70.32 116.97L83.39 116.97L86.66 102.33C86.71 102.1 86.7 101.86 86.65 101.63C86.59 101.4 86.49 101.18 86.34 101C86.19 100.81 86 100.66 85.78 100.56C85.57 100.46 85.33 100.41 85.09 100.41L70.32 100.41L70.32 116.97Z" fill="#FFE18B" fill-opacity="1.000000" fill-rule="nonzero"/>
		<path id="Vector" d="M56.17 116.97L70.32 116.97L70.32 100.41L52.84 100.41C52.59 100.41 52.33 100.47 52.1 100.59C51.87 100.71 51.67 100.88 51.51 101.09C51.36 101.3 51.26 101.55 51.22 101.8C51.18 102.06 51.21 102.32 51.29 102.57L56.17 116.97Z" fill="#FFE18B" fill-opacity="1.000000" fill-rule="nonzero"/>
		<path id="Vector" d="" fill="#FFFFFF" fill-opacity="1.000000" fill-rule="nonzero"/>
		<path id="Vector" d="M70.32 115.02C70.14 115.02 69.96 114.95 69.83 114.81C69.7 114.68 69.62 114.51 69.62 114.32L69.62 102.2C69.62 102.01 69.7 101.83 69.83 101.7C69.96 101.57 70.14 101.5 70.32 101.5C70.51 101.5 70.69 101.57 70.82 101.7C70.95 101.83 71.02 102.01 71.02 102.2L71.02 114.31C71.03 114.4 71.01 114.49 70.97 114.58C70.94 114.66 70.89 114.74 70.82 114.81C70.76 114.88 70.68 114.93 70.6 114.96C70.51 115 70.42 115.02 70.32 115.02Z" fill="#262626" fill-opacity="1.000000" fill-rule="nonzero"/>
		<path id="Vector" d="M64.82 257.4L42.34 257.4C41.22 257.4 40.14 256.95 39.35 256.16C38.55 255.36 38.1 254.28 38.1 253.16L38.1 230.68C38.1 229.56 38.55 228.48 39.35 227.69C40.14 226.89 41.22 226.45 42.34 226.45L64.81 226.45C65.94 226.45 67.02 226.89 67.81 227.69C68.61 228.48 69.06 229.56 69.06 230.69L69.06 253.16C69.06 254.28 68.61 255.36 67.81 256.16C67.02 256.95 65.94 257.4 64.82 257.4ZM42.34 227.85C41.59 227.85 40.87 228.15 40.34 228.68C39.8 229.21 39.5 229.93 39.5 230.69L39.5 253.16C39.5 253.91 39.8 254.64 40.34 255.17C40.87 255.7 41.59 256 42.34 256L64.81 256C65.57 256 66.29 255.7 66.82 255.17C67.36 254.64 67.66 253.91 67.66 253.16L67.66 230.68C67.66 229.93 67.36 229.21 66.82 228.68C66.29 228.14 65.57 227.84 64.81 227.84L42.34 227.85Z" fill="#262626" fill-opacity="1.000000" fill-rule="nonzero"/>
		<path id="Vector" d="M48.51 239.47C47.81 239.47 47.13 239.26 46.55 238.88C45.97 238.49 45.52 237.94 45.25 237.29C44.98 236.65 44.91 235.94 45.05 235.25C45.18 234.57 45.52 233.94 46.01 233.45C46.51 232.95 47.14 232.62 47.82 232.48C48.51 232.34 49.22 232.41 49.86 232.68C50.51 232.95 51.06 233.4 51.44 233.98C51.83 234.56 52.04 235.25 52.04 235.94C52.04 236.88 51.66 237.77 51 238.44C50.34 239.1 49.45 239.47 48.51 239.47ZM48.51 233.82C48.09 233.82 47.68 233.94 47.33 234.17C46.98 234.41 46.71 234.74 46.54 235.13C46.38 235.52 46.34 235.94 46.42 236.36C46.5 236.77 46.71 237.15 47 237.45C47.3 237.75 47.68 237.95 48.09 238.03C48.51 238.11 48.93 238.07 49.32 237.91C49.71 237.75 50.04 237.48 50.28 237.13C50.51 236.78 50.64 236.37 50.64 235.94C50.64 235.38 50.41 234.84 50.01 234.44C49.62 234.04 49.08 233.82 48.51 233.82Z" fill="#262626" fill-opacity="1.000000" fill-rule="nonzero"/>
		<path id="Vector" d="M58.66 250.3C57.97 250.3 57.28 250.09 56.7 249.71C56.12 249.32 55.67 248.77 55.41 248.13C55.14 247.48 55.07 246.77 55.21 246.09C55.34 245.41 55.68 244.78 56.17 244.28C56.66 243.79 57.29 243.46 57.97 243.32C58.66 243.18 59.37 243.25 60.01 243.52C60.65 243.79 61.21 244.24 61.59 244.82C61.98 245.4 62.19 246.08 62.19 246.78C62.19 247.71 61.81 248.61 61.15 249.27C60.49 249.93 59.6 250.3 58.66 250.3ZM58.66 244.65C58.24 244.65 57.83 244.78 57.48 245.01C57.13 245.24 56.86 245.58 56.7 245.96C56.54 246.35 56.5 246.78 56.58 247.19C56.66 247.6 56.86 247.98 57.16 248.28C57.46 248.58 57.84 248.78 58.25 248.86C58.66 248.94 59.09 248.9 59.48 248.74C59.86 248.58 60.2 248.31 60.43 247.96C60.66 247.61 60.79 247.2 60.79 246.78C60.79 246.5 60.73 246.22 60.63 245.96C60.52 245.7 60.36 245.47 60.17 245.27C59.97 245.07 59.74 244.91 59.48 244.81C59.22 244.7 58.94 244.65 58.66 244.65L58.66 244.65Z" fill="#262626" fill-opacity="1.000000" fill-rule="nonzero"/>
		<path id="Vector" d="M46.9 252.38C46.77 252.37 46.65 252.34 46.55 252.28C46.39 252.18 46.27 252.02 46.23 251.85C46.18 251.67 46.21 251.48 46.31 251.32L58.06 231.8C58.16 231.64 58.31 231.53 58.49 231.49C58.67 231.44 58.86 231.47 59.02 231.57C59.18 231.66 59.3 231.82 59.34 232C59.39 232.18 59.36 232.37 59.26 232.53L47.51 252.04C47.44 252.14 47.35 252.23 47.25 252.29C47.14 252.35 47.02 252.38 46.9 252.38Z" fill="#262626" fill-opacity="1.000000" fill-rule="nonzero"/>
		<path id="Vector" d="M314.27 263.83L283.82 263.83C281.75 263.83 279.76 263 278.29 261.54C276.83 260.07 276 258.09 276 256.01L276 195.75C276.01 193.69 276.83 191.7 278.29 190.24C279.75 188.78 281.73 187.95 283.8 187.95L314.25 187.95C316.32 187.95 318.31 188.77 319.78 190.24C321.24 191.7 322.07 193.69 322.07 195.76L322.07 256.01C322.07 258.08 321.24 260.07 319.78 261.53C318.32 263 316.34 263.82 314.27 263.83ZM283.8 189.35C282.1 189.35 280.47 190.02 279.27 191.23C278.07 192.43 277.39 194.06 277.39 195.76L277.39 256.01C277.39 257.71 278.07 259.35 279.27 260.55C280.47 261.75 282.1 262.43 283.8 262.43L314.25 262.43C315.95 262.43 317.59 261.75 318.79 260.55C319.99 259.35 320.67 257.71 320.67 256.01L320.67 195.75C320.67 194.06 319.99 192.43 318.79 191.23C317.59 190.03 315.96 189.35 314.27 189.35L283.8 189.35Z" fill="#262626" fill-opacity="1.000000" fill-rule="nonzero"/>
		<path id="Vector" d="M289.74 232.87L308.34 232.87C310.12 232.87 311.58 234.33 311.58 236.12L311.58 247.35C311.58 249.14 310.12 250.59 308.34 250.59L289.74 250.59C287.95 250.59 286.5 249.14 286.5 247.35L286.5 236.12C286.5 234.33 287.95 232.87 289.74 232.87Z" fill="#FFE18B" fill-opacity="1.000000" fill-rule="evenodd"/>
		<path id="Vector" d="M310.92 239.93L287.2 239.93C287.02 239.93 286.84 239.85 286.71 239.72C286.57 239.59 286.5 239.41 286.5 239.23C286.5 239.04 286.57 238.86 286.71 238.73C286.84 238.6 287.02 238.53 287.2 238.53L310.92 238.53C311.11 238.53 311.29 238.6 311.42 238.73C311.55 238.86 311.62 239.04 311.62 239.23C311.62 239.41 311.55 239.59 311.42 239.72C311.29 239.85 311.11 239.93 310.92 239.93Z" fill="#262626" fill-opacity="1.000000" fill-rule="nonzero"/>
		<path id="Vector" d="M294.51 248.4L291.47 248.4C290.83 248.38 290.22 248.11 289.77 247.64C289.32 247.18 289.07 246.56 289.07 245.91C289.07 245.27 289.32 244.64 289.77 244.18C290.22 243.71 290.83 243.44 291.47 243.42L294.51 243.42C295.16 243.44 295.77 243.71 296.22 244.18C296.67 244.64 296.92 245.27 296.92 245.91C296.92 246.56 296.67 247.18 296.22 247.64C295.77 248.11 295.16 248.38 294.51 248.4ZM291.47 244.82C291.19 244.83 290.93 244.95 290.74 245.16C290.54 245.36 290.44 245.63 290.44 245.91C290.44 246.19 290.54 246.46 290.74 246.66C290.93 246.87 291.19 246.99 291.47 247L294.51 247C294.79 246.99 295.06 246.87 295.25 246.66C295.44 246.46 295.55 246.19 295.55 245.91C295.55 245.63 295.44 245.36 295.25 245.16C295.06 244.95 294.79 244.83 294.51 244.82L291.47 244.82Z" fill="#262626" fill-opacity="1.000000" fill-rule="nonzero"/>
		<path id="Vector" d="M288.64 201.46L309.39 201.46C311.18 201.46 312.63 202.91 312.63 204.7L312.63 215.93C312.63 217.72 311.18 219.17 309.39 219.17L288.64 219.17C286.85 219.17 285.4 217.72 285.4 215.93L285.4 204.7C285.4 202.91 286.85 201.46 288.64 201.46Z" fill="#F9B800" fill-opacity="1.000000" fill-rule="evenodd"/>
		<path id="Vector" d="M299.01 214.79C298.13 214.79 297.26 214.53 296.52 214.03C295.78 213.54 295.21 212.84 294.87 212.02C294.53 211.2 294.44 210.3 294.61 209.43C294.79 208.56 295.21 207.76 295.84 207.13C296.47 206.5 297.27 206.08 298.14 205.9C299.01 205.73 299.91 205.82 300.73 206.16C301.55 206.5 302.25 207.07 302.75 207.81C303.24 208.55 303.5 209.42 303.5 210.3C303.5 211.49 303.03 212.63 302.19 213.47C301.34 214.32 300.2 214.79 299.01 214.79ZM299.01 207.22C298.4 207.22 297.81 207.4 297.3 207.74C296.79 208.08 296.4 208.56 296.16 209.12C295.93 209.69 295.87 210.31 295.99 210.91C296.1 211.5 296.4 212.05 296.83 212.49C297.26 212.92 297.81 213.21 298.41 213.33C299.01 213.45 299.63 213.39 300.2 213.16C300.76 212.92 301.24 212.53 301.58 212.02C301.92 211.51 302.1 210.91 302.1 210.3C302.1 209.48 301.78 208.7 301.2 208.12C300.62 207.54 299.83 207.22 299.01 207.22Z" fill="#262626" fill-opacity="1.000000" fill-rule="nonzero"/>
		<path id="Vector" d="M287.96 214.79L285.4 214.79L285.4 213.39L287.96 213.39C288.65 213.31 289.28 212.99 289.74 212.47C290.2 211.96 290.45 211.3 290.45 210.61C290.45 209.92 290.2 209.26 289.74 208.74C289.28 208.23 288.65 207.9 287.96 207.83L285.4 207.83L285.4 206.43L287.96 206.43C289.01 206.52 289.98 207 290.68 207.78C291.39 208.55 291.78 209.56 291.78 210.61C291.78 211.66 291.39 212.67 290.68 213.44C289.98 214.21 289.01 214.7 287.96 214.79Z" fill="#262626" fill-opacity="1.000000" fill-rule="nonzero"/>
		<path id="Vector" d="M312.67 214.81L310.1 214.81C309.05 214.72 308.07 214.24 307.36 213.47C306.65 212.69 306.26 211.68 306.26 210.63C306.26 209.58 306.65 208.56 307.36 207.79C308.07 207.01 309.05 206.53 310.1 206.44L312.66 206.44L312.66 207.84L310.1 207.84C309.41 207.92 308.77 208.24 308.31 208.75C307.85 209.27 307.59 209.94 307.59 210.63C307.59 211.32 307.85 211.99 308.31 212.5C308.77 213.01 309.41 213.34 310.1 213.41L312.66 213.41L312.67 214.81Z" fill="#262626" fill-opacity="1.000000" fill-rule="nonzero"/>
		<path id="Vector" d="M317.36 143.43L231.58 143.43C228.9 143.42 226.33 142.35 224.43 140.46C222.54 138.56 221.47 135.99 221.46 133.31L221.46 80.75C221.47 78.06 222.53 75.49 224.43 73.6C226.33 71.7 228.9 70.63 231.58 70.62L317.36 70.62C320.04 70.63 322.61 71.7 324.51 73.6C326.41 75.49 327.48 78.06 327.48 80.75L327.48 133.31C327.47 135.99 326.41 138.56 324.51 140.46C322.61 142.35 320.04 143.42 317.36 143.43ZM231.58 72.03C229.27 72.04 227.05 72.96 225.42 74.59C223.79 76.23 222.87 78.44 222.86 80.75L222.86 133.31C222.86 135.62 223.78 137.84 225.42 139.47C227.05 141.11 229.27 142.03 231.58 142.03L317.36 142.03C319.67 142.03 321.89 141.11 323.53 139.47C325.16 137.84 326.08 135.62 326.08 133.31L326.08 80.75C326.08 78.44 325.15 76.22 323.52 74.59C321.89 72.95 319.67 72.03 317.36 72.02L231.58 72.03Z" fill="#262626" fill-opacity="1.000000" fill-rule="nonzero"/>
		<path id="Vector" d="M239.17 84.71L266.1 84.71C268.87 84.71 271.12 86.96 271.12 89.73L271.12 121.35C271.12 124.12 268.87 126.37 266.1 126.37L239.17 126.37C236.4 126.37 234.15 124.12 234.15 121.35L234.15 89.73C234.15 86.96 236.4 84.71 239.17 84.71Z" fill="#FFE18B" fill-opacity="1.000000" fill-rule="evenodd"/>
		<path id="Vector" d="M251.94 107.03L253.34 107.03L253.34 126.38L251.94 126.38L251.94 107.03Z" fill="#262626" fill-opacity="1.000000" fill-rule="evenodd"/>
		<path id="Vector" d="M280.84 85.58L287.35 85.58C288.33 85.58 289.12 86.38 289.12 87.35L289.12 93.87C289.12 94.84 288.33 95.64 287.35 95.64L280.84 95.64C279.86 95.64 279.07 94.84 279.07 93.87L279.07 87.35C279.07 86.38 279.86 85.58 280.84 85.58Z" fill="#F9B800" fill-opacity="1.000000" fill-rule="evenodd"/>
		<path id="Vector" d="M294.93 85.58L301.45 85.58C302.43 85.58 303.22 86.38 303.22 87.35L303.22 93.87C303.22 94.84 302.43 95.64 301.45 95.64L294.93 95.64C293.96 95.64 293.17 94.84 293.17 93.87L293.17 87.35C293.17 86.38 293.96 85.58 294.93 85.58Z" fill="#F9B800" fill-opacity="1.000000" fill-rule="evenodd"/>
		<path id="Vector" d="M309.04 85.58L315.55 85.58C316.53 85.58 317.32 86.38 317.32 87.35L317.32 93.87C317.32 94.84 316.53 95.64 315.55 95.64L309.04 95.64C308.06 95.64 307.27 94.84 307.27 93.87L307.27 87.35C307.27 86.38 308.06 85.58 309.04 85.58Z" fill="#F9B800" fill-opacity="1.000000" fill-rule="evenodd"/>
		<path id="Vector" d="M317.32 105.49L279.76 105.49C279.58 105.49 279.4 105.42 279.27 105.29C279.14 105.16 279.06 104.98 279.06 104.79C279.06 104.61 279.14 104.43 279.27 104.3C279.4 104.17 279.58 104.09 279.76 104.09L317.32 104.09C317.51 104.09 317.69 104.17 317.82 104.3C317.95 104.43 318.02 104.61 318.02 104.79C318.02 104.98 317.95 105.16 317.82 105.29C317.69 105.42 317.51 105.49 317.32 105.49Z" fill="#262626" fill-opacity="1.000000" fill-rule="nonzero"/>
		<path id="Vector" d="M317.32 112.9L279.76 112.9C279.58 112.9 279.4 112.83 279.27 112.7C279.14 112.57 279.06 112.39 279.06 112.2C279.06 112.02 279.14 111.84 279.27 111.71C279.4 111.58 279.58 111.5 279.76 111.5L317.32 111.5C317.51 111.5 317.69 111.58 317.82 111.71C317.95 111.84 318.02 112.02 318.02 112.2C318.02 112.39 317.95 112.57 317.82 112.7C317.69 112.83 317.51 112.9 317.32 112.9Z" fill="#262626" fill-opacity="1.000000" fill-rule="nonzero"/>
		<path id="Vector" d="M304.25 120.31L279.75 120.31C279.56 120.31 279.39 120.24 279.26 120.11C279.12 119.97 279.05 119.8 279.05 119.61C279.05 119.43 279.12 119.25 279.26 119.12C279.39 118.99 279.56 118.91 279.75 118.91L304.25 118.91C304.44 118.91 304.61 118.99 304.75 119.12C304.88 119.25 304.95 119.43 304.95 119.61C304.95 119.8 304.88 119.97 304.75 120.11C304.61 120.24 304.44 120.31 304.25 120.31Z" fill="#262626" fill-opacity="1.000000" fill-rule="nonzero"/>
		<path id="Vector" d="M259.61 107.03L245.58 107.03C245.43 107.03 245.29 107 245.15 106.94C245.02 106.89 244.89 106.81 244.79 106.7C244.69 106.6 244.6 106.47 244.55 106.34C244.49 106.2 244.46 106.06 244.46 105.91L244.46 98.81C244.46 98.65 244.53 98.48 244.65 98.37C244.77 98.25 244.93 98.18 245.1 98.18L260.09 98.18C260.17 98.18 260.25 98.2 260.33 98.23C260.41 98.26 260.48 98.31 260.54 98.36C260.6 98.42 260.64 98.49 260.68 98.57C260.71 98.65 260.72 98.73 260.72 98.81L260.72 105.91C260.72 106.06 260.7 106.2 260.64 106.34C260.58 106.47 260.5 106.6 260.4 106.7C260.29 106.81 260.17 106.89 260.04 106.94C259.9 107 259.76 107.03 259.61 107.03Z" fill="#FFBB45" fill-opacity="1.000000" fill-rule="nonzero"/>
		<path id="Vector" d="M260.72 98.18C260.72 99.58 257.08 100.72 252.59 100.72C248.1 100.72 244.46 99.58 244.46 98.18C244.46 96.78 248.1 95.64 252.59 95.64C257.08 95.64 260.72 96.78 260.72 98.18Z" fill="#262626" fill-opacity="1.000000" fill-rule="evenodd"/>
		<path id="Vector" d="M196.9 242.43L125.5 242.43C125.32 242.43 125.14 242.36 125.01 242.22C124.88 242.09 124.8 241.92 124.8 241.73C124.8 241.54 124.88 241.37 125.01 241.24C125.14 241.1 125.32 241.03 125.5 241.03L196.9 241.03C197.09 241.03 197.27 241.1 197.4 241.24C197.53 241.37 197.6 241.54 197.6 241.73C197.6 241.92 197.53 242.09 197.4 242.22C197.27 242.36 197.09 242.43 196.9 242.43Z" fill="#FFFFFF" fill-opacity="1.000000" fill-rule="nonzero"/>
	</g>
</svg>
