<svg width="25.275635" height="25.275391" viewBox="0 0 25.2756 25.2754" fill="none" xmlns="http://www.w3.org/2000/svg" xmlns:xlink="http://www.w3.org/1999/xlink">
	<desc>
			Created with Pixso.
	</desc>
	<defs>
		<clipPath id="clip17_4500">
			<rect id="icon" rx="0.000000" width="24.433031" height="24.433031" transform="translate(0.421259 0.421259)" fill="white" fill-opacity="0"/>
		</clipPath>
	</defs>
	<g clip-path="url(#clip17_4500)">
		<path id="check_circle" d="M12.63 2.12C6.81 2.12 2.12 6.81 2.12 12.63C2.12 18.46 6.81 23.15 12.63 23.15C18.46 23.15 23.15 18.46 23.15 12.63C23.15 6.81 18.46 2.12 12.63 2.12ZM12.63 21.07C7.99 21.07 4.19 17.27 4.19 12.63C4.19 7.99 7.99 4.19 12.63 4.19C17.27 4.19 21.07 7.99 21.07 12.63C21.07 17.27 17.27 21.07 12.63 21.07ZM17.47 7.99L10.51 14.9L7.8 12.19L6.31 13.67L10.51 17.91L18.95 9.47L17.47 7.99Z" fill="#F9B800" fill-opacity="1.000000" fill-rule="nonzero"/>
	</g>
</svg>
