<svg width="13.917877" height="12.969482" viewBox="0 0 13.9179 12.9695" fill="none" xmlns="http://www.w3.org/2000/svg" xmlns:xlink="http://www.w3.org/1999/xlink">
	<desc>
			Created with Pixso.
	</desc>
	<defs/>
	<path id="Vector" d="M6.01 0.67C6.31 -0.23 7.59 -0.23 7.9 0.67L8.88 3.56C9.02 3.97 9.4 4.24 9.83 4.24L12.91 4.24C13.89 4.24 14.29 5.5 13.48 6.06L11.07 7.73C10.7 7.99 10.55 8.45 10.69 8.88L11.63 11.64C11.94 12.55 10.91 13.33 10.12 12.78L7.52 10.98C7.18 10.75 6.73 10.75 6.38 10.98L3.79 12.78C3 13.33 1.96 12.55 2.28 11.64L3.21 8.88C3.36 8.45 3.2 7.99 2.84 7.73L0.43 6.06C-0.38 5.5 0.02 4.24 1 4.24L4.08 4.24C4.51 4.24 4.89 3.97 5.02 3.56L6.01 0.67Z" fill="#FFA858" fill-opacity="1.000000" fill-rule="nonzero"/>
</svg>
