<svg width="16.500000" height="16.500000" viewBox="0 0 16.5 16.5" fill="none" xmlns="http://www.w3.org/2000/svg" xmlns:xlink="http://www.w3.org/1999/xlink">
	<desc>
			Created with Pixso.
	</desc>
	<defs/>
	<path id="Vector" d="M16.28 0.21C16.48 0.42 16.55 0.72 16.45 0.99L11.2 15.99C11.1 16.28 10.83 16.48 10.53 16.49C10.22 16.51 9.93 16.33 9.81 16.05L6.93 9.56L0.44 6.68C0.16 6.56 -0.02 6.27 0 5.96C0.01 5.66 0.21 5.39 0.5 5.29L15.5 0.04C15.77 -0.06 16.07 0.01 16.28 0.21ZM8.39 9.16L10.41 13.71L13.95 3.6L8.39 9.16ZM12.89 2.54L2.78 6.08L7.33 8.1L12.89 2.54Z" fill="#FFFFFF" fill-opacity="1.000000" fill-rule="evenodd"/>
</svg>
