<svg width="65.000000" height="56.000000" viewBox="0 0 65 56" fill="none" xmlns="http://www.w3.org/2000/svg" xmlns:xlink="http://www.w3.org/1999/xlink">
	<desc>
			Created with Pixso.
	</desc>
	<defs/>
	<path id="Rectangle 157" d="M47 56L20 56C17.23 56 15 53.76 15 51L15 17C15 11.47 19.47 7 25 7L60 7C62.76 7 65 9.23 65 12L65 38C65 47.94 56.94 56 47 56Z" fill="#E8F5E9" fill-opacity="1.000000" fill-rule="evenodd"/>
	<path id="Vector" d="M26.91 19.01C26.6 19.01 26.35 18.75 26.35 18.44L26.35 17.48C26.35 17.17 26.6 16.91 26.91 16.91C27.22 16.91 27.48 17.17 27.48 17.48L27.48 18.44C27.48 18.75 27.22 19.01 26.91 19.01Z" fill="#103E13" fill-opacity="1.000000" fill-rule="nonzero"/>
	<path id="Vector" d="M24.53 19.01C24.22 19.01 23.97 18.75 23.97 18.44L23.97 17.48C23.97 17.17 24.22 16.91 24.53 16.91C24.85 16.91 25.1 17.17 25.1 17.48L25.1 18.44C25.1 18.75 24.85 19.01 24.53 19.01Z" fill="#103E13" fill-opacity="1.000000" fill-rule="nonzero"/>
	<path id="Vector" d="M22.16 19.01C21.84 19.01 21.59 18.75 21.59 18.44L21.59 17.48C21.59 17.17 21.84 16.91 22.16 16.91C22.47 16.91 22.72 17.17 22.72 17.48L22.72 18.44C22.72 18.75 22.47 19.01 22.16 19.01Z" fill="#103E13" fill-opacity="1.000000" fill-rule="nonzero"/>
	<path id="Vector" d="M26.91 22.94C26.6 22.94 26.35 22.68 26.35 22.37L26.35 21.41C26.35 21.1 26.6 20.84 26.91 20.84C27.22 20.84 27.48 21.1 27.48 21.41L27.48 22.37C27.48 22.68 27.22 22.94 26.91 22.94Z" fill="#103E13" fill-opacity="1.000000" fill-rule="nonzero"/>
	<path id="Vector" d="M24.53 22.94C24.22 22.94 23.97 22.68 23.97 22.37L23.97 21.41C23.97 21.1 24.22 20.84 24.53 20.84C24.85 20.84 25.1 21.1 25.1 21.41L25.1 22.37C25.1 22.68 24.85 22.94 24.53 22.94Z" fill="#103E13" fill-opacity="1.000000" fill-rule="nonzero"/>
	<path id="Vector" d="M22.16 22.94C21.84 22.94 21.59 22.68 21.59 22.37L21.59 21.41C21.59 21.1 21.84 20.84 22.16 20.84C22.47 20.84 22.72 21.1 22.72 21.41L22.72 22.37C22.72 22.68 22.47 22.94 22.16 22.94Z" fill="#103E13" fill-opacity="1.000000" fill-rule="nonzero"/>
	<path id="Vector" d="M26.91 26.87C26.6 26.87 26.35 26.62 26.35 26.3L26.35 25.34C26.35 25.03 26.6 24.78 26.91 24.78C27.22 24.78 27.48 25.03 27.48 25.34L27.48 26.3C27.48 26.62 27.22 26.87 26.91 26.87Z" fill="#103E13" fill-opacity="1.000000" fill-rule="nonzero"/>
	<path id="Vector" d="M24.53 26.87C24.22 26.87 23.97 26.62 23.97 26.3L23.97 25.34C23.97 25.03 24.22 24.78 24.53 24.78C24.85 24.78 25.1 25.03 25.1 25.34L25.1 26.3C25.1 26.62 24.85 26.87 24.53 26.87Z" fill="#103E13" fill-opacity="1.000000" fill-rule="nonzero"/>
	<path id="Vector" d="M22.16 26.87C21.84 26.87 21.59 26.62 21.59 26.3L21.59 25.34C21.59 25.03 21.84 24.78 22.16 24.78C22.47 24.78 22.72 25.03 22.72 25.34L22.72 26.3C22.72 26.62 22.47 26.87 22.16 26.87Z" fill="#103E13" fill-opacity="1.000000" fill-rule="nonzero"/>
	<path id="Vector" d="M26.91 30.8C26.6 30.8 26.35 30.55 26.35 30.23L26.35 29.27C26.35 28.96 26.6 28.71 26.91 28.71C27.22 28.71 27.48 28.96 27.48 29.27L27.48 30.23C27.48 30.55 27.22 30.8 26.91 30.8Z" fill="#103E13" fill-opacity="1.000000" fill-rule="nonzero"/>
	<path id="Vector" d="M24.53 30.8C24.22 30.8 23.97 30.55 23.97 30.23L23.97 29.27C23.97 28.96 24.22 28.71 24.53 28.71C24.85 28.71 25.1 28.96 25.1 29.27L25.1 30.23C25.1 30.55 24.85 30.8 24.53 30.8Z" fill="#103E13" fill-opacity="1.000000" fill-rule="nonzero"/>
	<path id="Vector" d="M22.16 30.8C21.84 30.8 21.59 30.55 21.59 30.23L21.59 29.27C21.59 28.96 21.84 28.71 22.16 28.71C22.47 28.71 22.72 28.96 22.72 29.27L22.72 30.23C22.72 30.55 22.47 30.8 22.16 30.8Z" fill="#103E13" fill-opacity="1.000000" fill-rule="nonzero"/>
	<path id="Vector" d="M26.91 34.73C26.6 34.73 26.35 34.48 26.35 34.16L26.35 33.2C26.35 32.89 26.6 32.64 26.91 32.64C27.22 32.64 27.48 32.89 27.48 33.2L27.48 34.16C27.48 34.48 27.22 34.73 26.91 34.73Z" fill="#103E13" fill-opacity="1.000000" fill-rule="nonzero"/>
	<path id="Vector" d="M24.53 34.73C24.22 34.73 23.97 34.48 23.97 34.16L23.97 33.2C23.97 32.89 24.22 32.64 24.53 32.64C24.85 32.64 25.1 32.89 25.1 33.2L25.1 34.16C25.1 34.48 24.85 34.73 24.53 34.73Z" fill="#103E13" fill-opacity="1.000000" fill-rule="nonzero"/>
	<path id="Vector" d="M22.16 34.73C21.84 34.73 21.59 34.48 21.59 34.16L21.59 33.2C21.59 32.89 21.84 32.64 22.16 32.64C22.47 32.64 22.72 32.89 22.72 33.2L22.72 34.16C22.72 34.48 22.47 34.73 22.16 34.73Z" fill="#103E13" fill-opacity="1.000000" fill-rule="nonzero"/>
	<path id="Vector" d="M6 38.64C6 38.95 6.25 39.21 6.56 39.21L41.01 39.21C41.32 39.21 41.57 38.95 41.57 38.64C41.57 38.33 41.32 38.08 41.01 38.08L39.96 38.08L39.96 21.84C39.96 21.52 39.71 21.27 39.4 21.27L30.16 21.27L30.16 9.56C30.16 9.36 30.06 9.18 29.89 9.08C29.72 8.97 29.51 8.97 29.34 9.06L18.84 14.53C18.65 14.62 18.53 14.82 18.53 15.03L18.53 25.26L8.37 25.26C8.06 25.26 7.8 25.51 7.8 25.82L7.8 38.08L6.56 38.08C6.25 38.08 6 38.33 6 38.64L6 38.64ZM30.16 29.84L38.83 29.84L38.83 38.08L30.16 38.08L30.16 29.84ZM30.16 25.91L38.83 25.91L38.83 28.71L30.16 28.71L30.16 25.91ZM30.16 22.4L38.83 22.4L38.83 24.78L30.16 24.78L30.16 22.4ZM19.66 15.37L29.03 10.49L29.03 38.08L19.66 38.08L19.66 15.37ZM11.73 33.56C11.73 32.38 12.66 31.43 13.8 31.43C14.95 31.43 15.88 32.38 15.88 33.56L15.88 38.08L11.73 38.08L11.73 33.56ZM8.93 26.39L18.53 26.39L18.53 38.08L17.01 38.08L17.01 33.56C17.01 31.76 15.57 30.3 13.8 30.3C12.04 30.3 10.6 31.76 10.6 33.56L10.6 38.08L8.93 38.08L8.93 26.39Z" fill="#103E13" fill-opacity="1.000000" fill-rule="nonzero"/>
</svg>
