<svg width="48.000000" height="48.000000" viewBox="0 0 48 48" fill="none" xmlns="http://www.w3.org/2000/svg" xmlns:xlink="http://www.w3.org/1999/xlink">
	<desc>
			Created with Pixso.
	</desc>
	<defs>
		<clipPath id="clip16_1462">
			<rect id="Icon" rx="0.000000" width="47.000000" height="47.000000" transform="translate(0.500000 0.500000)" fill="white" fill-opacity="0"/>
		</clipPath>
	</defs>
	<rect id="Icon" rx="0.000000" width="47.000000" height="47.000000" transform="translate(0.500000 0.500000)" fill="#FFFFFF" fill-opacity="0"/>
	<g clip-path="url(#clip16_1462)">
		<path id="Vector" d="M40 42L40 38C40 35.87 39.15 33.84 37.65 32.34C36.15 30.84 34.12 30 32 30L30 30C29.46 30 28.96 29.78 28.58 29.41C28.21 29.03 28 28.53 28 28L28 18C28 16.93 27.57 15.92 26.82 15.17C26.07 14.42 25.06 14 24 14C22.93 14 21.92 14.42 21.17 15.17C20.42 15.92 20 16.93 20 18L20 36L15.2 29.6C14.82 29.1 14.34 28.7 13.78 28.42C13.23 28.14 12.62 28 12 28L11.13 28C9.4 28 8 29.4 8 31.13C8 31.7 8.15 32.25 8.44 32.74L14 42L40 42ZM24 8L24 6L24 8ZM36 20L38 20L36 20ZM10 20L12 20L10 20ZM14.68 10.68L13.27 9.27L14.68 10.68ZM33.31 10.68L34.72 9.27L33.31 10.68ZM40.98 41.98L41 42C41 42.56 40.56 43 40 43C39.43 43 39 42.56 39 42L39.02 41.98L40.98 41.98ZM14.83 41.47L14.85 41.48C15.14 41.96 14.99 42.56 14.51 42.85C14.03 43.14 13.43 42.99 13.14 42.51L13.14 42.48L14.83 41.47ZM24.98 7.98L25 8C25 8.56 24.56 9 24 9C23.43 9 23 8.56 23 8L23.02 7.98L24.98 7.98ZM23.02 6.01L23 6C23 5.44 23.43 5 24 5C24.56 5 25 5.44 25 6L24.98 6.01L23.02 6.01ZM36.02 20.98L36 21C35.43 21 35 20.56 35 20C35 19.44 35.43 19 36 19L36.02 19.02L36.02 20.98ZM37.98 19.02L38 19C38.56 19 39 19.44 39 20C39 20.56 38.56 21 38 21L37.98 20.98L37.98 19.02ZM10.02 20.98L10 21C9.43 21 9 20.56 9 20C9 19.44 9.43 19 10 19L10.02 19.02L10.02 20.98ZM11.98 19.02L12 19C12.56 19 13 19.44 13 20C13 20.56 12.56 21 12 21L11.98 20.98L11.98 19.02ZM15.36 9.97L15.39 9.97C15.78 10.37 15.78 10.99 15.39 11.39C14.99 11.78 14.37 11.78 13.97 11.39L13.97 11.36L15.36 9.97ZM12.59 9.97L12.56 9.97C12.16 9.58 12.16 8.96 12.56 8.56C12.96 8.16 13.58 8.16 13.97 8.56L13.97 8.59L12.59 9.97ZM34.02 11.36L34.02 11.39C33.62 11.78 33 11.78 32.6 11.39C32.21 10.99 32.21 10.37 32.6 9.97L32.63 9.97L34.02 11.36ZM34.02 8.59L34.02 8.56C34.41 8.16 35.03 8.16 35.43 8.56C35.83 8.96 35.83 9.58 35.43 9.97L35.4 9.97L34.02 8.59Z" fill="#4CAF4F" fill-opacity="1.000000" fill-rule="nonzero"/>
		<path id="Vector" d="M40 42L40 38C40 35.87 39.15 33.84 37.65 32.34C36.15 30.84 34.12 30 32 30L30 30C29.46 30 28.96 29.78 28.58 29.41C28.21 29.03 28 28.53 28 28L28 18C28 16.93 27.57 15.92 26.82 15.17C26.07 14.42 25.06 14 24 14C22.93 14 21.92 14.42 21.17 15.17C20.42 15.92 20 16.93 20 18L20 36L15.2 29.6C14.82 29.1 14.34 28.7 13.78 28.42C13.23 28.14 12.62 28 12 28L11.13 28C9.4 28 8 29.4 8 31.13C8 31.7 8.15 32.25 8.44 32.74L14 42M24 8L24 6M36 20L38 20M10 20L12 20M14.68 10.68L13.27 9.27M33.31 10.68L34.72 9.27" stroke="#4CAF4F" stroke-opacity="1.000000" stroke-width="2.000000" stroke-linejoin="round" stroke-linecap="round"/>
	</g>
</svg>
