<svg width="41.000000" height="27.000000" viewBox="0 0 41 27" fill="none" xmlns="http://www.w3.org/2000/svg" xmlns:xlink="http://www.w3.org/1999/xlink">
	<desc>
			Created with Pixso.
	</desc>
	<defs/>
	<path id="Vector" d="M13.66 27L17.81 27L16.6 25.8C16.28 25.49 15.85 25.31 15.4 25.31L13.66 25.31C7.06 25.31 1.7 20.02 1.7 13.5C1.7 6.97 7.06 1.68 13.66 1.68L27.33 1.68C33.93 1.68 39.29 6.97 39.29 13.5C39.29 20.02 33.93 25.31 27.33 25.31L22.22 25.31C21.54 25.31 20.88 25.04 20.4 24.57L18.99 23.17C18.19 22.38 17.1 21.93 15.97 21.93L13.66 21.93C8.94 21.93 5.12 18.15 5.12 13.5C5.12 8.84 8.94 5.06 13.66 5.06L27.33 5.06C32.05 5.06 35.87 8.84 35.87 13.5C35.87 18.15 32.05 21.93 27.33 21.93L24.05 21.93C23.37 21.93 22.71 21.67 22.23 21.19L20.82 19.79C20.02 19 18.93 18.56 17.8 18.56L13.66 18.56C10.83 18.56 8.54 16.29 8.54 13.5C8.54 10.7 10.83 8.43 13.66 8.43L27.33 8.43C30.16 8.43 32.45 10.7 32.45 13.5C32.45 16.26 30.21 18.5 27.43 18.56L27.43 18.56L26.18 18.56C25.5 18.56 24.85 18.29 24.37 17.82L22.95 16.42C22.3 15.77 21.45 15.35 20.54 15.22L20.5 15.18L13.66 15.18C12.72 15.18 11.95 14.43 11.95 13.5C11.95 12.56 12.72 11.81 13.66 11.81L27.33 11.81C28.27 11.81 29.04 12.56 29.04 13.5C29.04 14.43 28.27 15.18 27.33 15.18L23.91 15.18L25.12 16.38C25.44 16.69 25.87 16.87 26.33 16.87L27.33 16.87C29.22 16.87 30.75 15.36 30.75 13.5C30.75 11.63 29.22 10.12 27.33 10.12L13.66 10.12C11.77 10.12 10.25 11.63 10.25 13.5C10.25 15.36 11.77 16.87 13.66 16.87L19.93 16.87C20.61 16.87 21.27 17.14 21.75 17.61L23.16 19.01C23.96 19.8 25.05 20.25 26.18 20.25L27.76 20.25L27.76 20.23C31.33 20.01 34.16 17.08 34.16 13.5C34.16 9.77 31.1 6.75 27.33 6.75L13.66 6.75C9.89 6.75 6.83 9.77 6.83 13.5C6.83 17.22 9.89 20.25 13.66 20.25L17.8 20.25C18.48 20.25 19.13 20.51 19.61 20.99L21.03 22.38C21.83 23.18 22.91 23.62 24.05 23.62L27.33 23.62C32.99 23.62 37.58 19.09 37.58 13.5C37.58 7.9 32.99 3.37 27.33 3.37L13.66 3.37C8 3.37 3.41 7.9 3.41 13.5C3.41 19.09 8 23.62 13.66 23.62L15.97 23.62C16.65 23.62 17.3 23.89 17.78 24.36L19.2 25.76C20 26.55 21.08 27 22.22 27L27.33 27C34.88 27 41 20.95 41 13.5C41 6.04 34.88 0 27.33 0L13.66 0C6.11 0 0 6.04 0 13.5C0 20.95 6.11 27 13.66 27Z" fill="#212326" fill-opacity="1.000000" fill-rule="nonzero"/>
</svg>
