<svg width="40.000000" height="40.000000" viewBox="0 0 40 40" fill="none" xmlns="http://www.w3.org/2000/svg" xmlns:xlink="http://www.w3.org/1999/xlink">
	<desc>
			Created with Pixso.
	</desc>
	<defs/>
	<path id="Vector" d="M10 0C15.52 0 20 4.47 20 10L20 0L30 0C35.52 0 40 4.47 40 10C40 15.52 35.52 20 30 20C35.52 20 40 24.47 40 30C40 32.74 38.89 35.22 37.1 37.03L37.07 37.07L37.03 37.1C35.23 38.89 32.74 40 30 40C27.27 40 24.8 38.9 22.99 37.14C22.97 37.11 22.95 37.09 22.92 37.07C22.9 37.04 22.88 37.02 22.86 37C21.09 35.2 20 32.72 20 30C20 35.52 15.52 40 10 40C4.47 40 0 35.52 0 30L0 20L10 20C4.47 20 0 15.52 0 10C0 4.47 4.47 0 10 0ZM18 10C18 14.41 14.41 18 10 18L10 2C14.41 2 18 5.58 18 10ZM38 30C38 25.58 34.41 22 30 22C25.58 22 22 25.58 22 30L38 30ZM2 22L2 30C2 34.41 5.58 38 10 38C14.41 38 18 34.41 18 30L18 22L2 22ZM22 18L22 2L30 2C34.41 2 38 5.58 38 10C38 14.41 34.41 18 30 18L22 18Z" fill="#263238" fill-opacity="1.000000" fill-rule="evenodd"/>
</svg>
