<svg width="48.000000" height="48.000000" viewBox="0 0 48 48" fill="none" xmlns="http://www.w3.org/2000/svg" xmlns:xlink="http://www.w3.org/1999/xlink">
	<desc>
			Created with Pixso.
	</desc>
	<defs>
		<clipPath id="clip211_828">
			<rect id="Logo" rx="0.000000" width="46.000000" height="28.000000" transform="translate(1.500000 10.346802)" fill="white" fill-opacity="0"/>
		</clipPath>
	</defs>
	<rect id="Logo" rx="0.000000" width="46.000000" height="28.000000" transform="translate(1.500000 10.346802)" fill="#FFFFFF" fill-opacity="0"/>
	<g clip-path="url(#clip211_828)">
		<path id="Vector" d="M44.99 13.41C44.99 13.44 44.99 13.48 44.98 13.51C44.94 13.84 44.94 14.17 44.97 14.51C44.98 14.59 45 14.67 45.07 14.74C45.19 14.87 45.36 14.84 45.43 14.69C45.47 14.62 45.47 14.54 45.45 14.46C45.36 14.14 45.34 13.8 45.34 13.47C45.34 13.46 45.34 13.43 45.34 13.41C45.43 13.4 45.52 13.39 45.6 13.39C45.66 13.38 45.71 13.37 45.76 13.35C45.89 13.28 45.89 13.14 45.75 13.07C45.7 13.04 45.63 13.03 45.56 13.03C45.34 13.04 45.12 13.04 44.9 13.04C44.82 13.04 44.74 13.05 44.67 13.06C44.62 13.07 44.57 13.07 44.53 13.09C44.47 13.12 44.44 13.16 44.44 13.22C44.45 13.28 44.47 13.31 44.53 13.34C44.57 13.36 44.61 13.37 44.66 13.37C44.76 13.38 44.88 13.4 44.99 13.41ZM47.41 13.8C47.41 13.8 47.42 13.81 47.42 13.81C47.46 14.04 47.49 14.26 47.52 14.48C47.53 14.56 47.54 14.62 47.59 14.68C47.7 14.83 47.88 14.81 47.96 14.66C48 14.58 48 14.51 47.99 14.42C47.93 14.17 47.91 13.91 47.85 13.67C47.82 13.52 47.77 13.37 47.73 13.24C47.7 13.15 47.64 13.09 47.54 13.09C47.43 13.07 47.35 13.12 47.31 13.2C47.26 13.26 47.21 13.33 47.18 13.41C47.11 13.54 47.06 13.68 46.99 13.8C46.98 13.84 46.97 13.86 46.96 13.89C46.95 13.87 46.94 13.86 46.94 13.86C46.82 13.65 46.72 13.44 46.6 13.24C46.59 13.22 46.58 13.2 46.57 13.19C46.52 13.11 46.45 13.07 46.36 13.07C46.27 13.08 46.2 13.13 46.15 13.2C46.14 13.24 46.14 13.26 46.13 13.3C46.09 13.57 46.05 13.84 46.01 14.11C46 14.26 45.99 14.41 45.99 14.56C45.98 14.6 45.99 14.64 46 14.67C46.02 14.74 46.07 14.78 46.15 14.79C46.23 14.8 46.3 14.78 46.32 14.71C46.35 14.66 46.36 14.62 46.37 14.57C46.4 14.42 46.43 14.28 46.45 14.13C46.47 14.05 46.48 13.98 46.51 13.89C46.52 13.92 46.54 13.95 46.56 13.97C46.64 14.07 46.72 14.18 46.81 14.26C46.91 14.33 46.99 14.32 47.07 14.24C47.09 14.23 47.1 14.22 47.11 14.2C47.19 14.08 47.29 13.96 47.37 13.85C47.39 13.83 47.4 13.81 47.41 13.8Z" fill="#3A3B7B" fill-opacity="1.000000" fill-rule="nonzero"/>
		<path id="Vector" d="M27.12 13.57C27.06 13.73 27.05 13.85 27.07 13.95C27.11 14.08 27.19 14.12 27.3 14.09C28.33 13.84 30.6 14.54 31.44 14.73C31.64 14.77 31.8 14.53 31.66 14.31C31.47 14.09 29.2 13.18 28.33 13.13C27.99 13.11 27.39 13.03 27.12 13.57Z" fill="#3A3B7B" fill-opacity="1.000000" fill-rule="nonzero"/>
		<path id="Vector" d="M35.99 10.62C36.1 10.68 36.16 10.74 36.19 10.8C36.23 10.89 36.21 10.95 36.13 10.98C35.45 11.3 34.54 12.68 34.17 13.15C34.08 13.26 33.88 13.2 33.85 13.02C33.85 12.82 34.66 11.32 35.11 10.91C35.29 10.75 35.58 10.44 35.99 10.62Z" fill="#3A3B7B" fill-opacity="1.000000" fill-rule="nonzero"/>
		<path id="Vector" d="M30.54 9.94C30.67 9.84 30.81 9.81 30.88 9.87C31.91 10.72 32.46 12.06 32.8 13.29C32.81 13.32 32.81 13.36 32.8 13.4C32.8 13.44 32.77 13.48 32.72 13.51C32.68 13.54 32.64 13.55 32.62 13.52C32.17 12.93 29.58 10.63 30.54 9.94Z" fill="#3A3B7B" fill-opacity="1.000000" fill-rule="nonzero"/>
		<path id="Vector" d="M8.69 24.62C8.94 24.45 9.21 24.3 9.49 24.19C9.79 24.1 10.11 24.12 10.39 24.22C10.68 24.33 10.93 24.53 11.09 24.78C11.24 25.03 11.3 25.32 11.26 25.6C11.22 25.89 11.08 26.16 10.87 26.36C10.7 26.53 10.52 26.67 10.32 26.79C9.41 27.35 8.5 27.88 7.59 28.44C7.4 28.58 7.2 28.71 6.99 28.82C6.68 28.97 6.32 29.01 5.97 28.93C5.63 28.86 5.32 28.67 5.11 28.4C4.95 28.21 4.82 28 4.71 27.77C3.85 26.03 2.95 24.29 2.12 22.52C1.73 21.75 1.42 20.87 1.12 20.01C0.98 19.77 0.96 19.48 1.04 19.21C1.13 18.95 1.32 18.72 1.58 18.59C1.83 18.46 2.13 18.42 2.41 18.5C2.69 18.57 2.92 18.75 3.07 18.99C3.52 19.56 3.91 20.17 4.25 20.8C5.12 22.34 5.94 23.88 6.78 25.37C6.83 25.45 6.88 25.53 6.94 25.61C7.56 25.35 8.15 25.02 8.69 24.62Z" fill="#3A3B7B" fill-opacity="1.000000" fill-rule="nonzero"/>
		<path id="Vector" d="M17.63 24.09C15.65 26.31 12.34 25.75 10.67 22.89C9.49 20.86 9.28 17.51 11.86 15.4C12.41 14.95 13.07 14.65 13.77 14.52C14.64 14.4 15.52 14.55 16.29 14.94C17.06 15.33 17.68 15.94 18.07 16.7C19.48 19.15 19.28 22.29 17.63 24.09ZM16.83 18.91C16.62 18.3 16.2 17.79 15.64 17.45C15.32 17.23 14.93 17.13 14.54 17.15C14.15 17.17 13.79 17.32 13.5 17.58C12.35 18.55 12.11 20.87 12.95 22.24C13.05 22.47 13.21 22.67 13.4 22.83C13.6 22.99 13.83 23.11 14.07 23.17C14.32 23.24 14.58 23.25 14.83 23.21C15.09 23.17 15.33 23.08 15.54 22.94C16.16 22.48 16.62 21.84 16.84 21.12C17.07 20.4 17.06 19.63 16.81 18.92L16.83 18.91Z" fill="#3A3B7B" fill-opacity="1.000000" fill-rule="nonzero"/>
		<path id="Vector" d="M25.7 19.88C25.5 19.92 25.29 19.92 25.09 19.88C24.88 19.85 24.69 19.77 24.52 19.66C24.36 19.58 24.23 19.46 24.14 19.33C24.04 19.19 23.97 19.03 23.94 18.87C23.91 18.71 23.92 18.54 23.97 18.38C24.01 18.21 24.1 18.07 24.21 17.94C24.41 17.69 24.69 17.51 25.01 17.43C25.85 17.19 26.71 17.05 27.57 17C27.76 16.98 27.96 17 28.14 17.05C28.33 17.1 28.5 17.19 28.65 17.3C28.8 17.42 28.92 17.56 29.01 17.72C29.1 17.89 29.16 18.06 29.18 18.25C29.43 19.15 29.45 20.09 29.26 21.01C28.53 23.96 26.05 24.97 23.27 24.03C22.48 23.77 21.8 23.3 21.3 22.67C20.63 21.92 20.15 21.02 19.91 20.05C19.72 19.19 19.74 18.3 19.97 17.45C20.21 16.6 20.66 15.82 21.27 15.17C21.86 14.46 22.62 13.9 23.48 13.54C24.03 13.26 24.67 13.17 25.28 13.31C25.41 13.35 25.54 13.42 25.64 13.52C25.74 13.62 25.81 13.74 25.84 13.87C25.87 14.01 25.87 14.15 25.83 14.28C25.79 14.41 25.71 14.53 25.6 14.62C25.4 14.79 25.19 14.95 24.96 15.08C24.24 15.52 23.62 16.08 23.13 16.73C22.81 17.16 22.58 17.65 22.48 18.16C22.37 18.68 22.38 19.21 22.51 19.72C22.7 20.42 23.1 21.05 23.67 21.51C25.43 23.05 27.72 21.57 27.32 19.47C26.73 19.61 26.22 19.75 25.7 19.88Z" fill="#3A3B7B" fill-opacity="1.000000" fill-rule="nonzero"/>
		<path id="Vector" d="M36.46 24.21C33.86 25.75 30.9 24.21 30.25 20.98C29.78 18.68 30.67 15.45 33.81 14.22C34.48 13.97 35.2 13.88 35.92 13.96C36.77 14.11 37.56 14.52 38.17 15.12C38.77 15.72 39.16 16.49 39.29 17.32C39.82 20.06 38.61 22.99 36.46 24.21ZM37.37 19.04C37.37 18.4 37.13 17.78 36.7 17.29C36.47 16.99 36.14 16.78 35.76 16.68C35.39 16.59 34.99 16.62 34.64 16.78C33.23 17.36 32.23 19.48 32.59 21.04C32.62 21.29 32.7 21.53 32.84 21.74C32.97 21.95 33.15 22.13 33.36 22.27C33.57 22.4 33.82 22.49 34.07 22.53C34.32 22.57 34.58 22.56 34.83 22.49C35.57 22.24 36.22 21.77 36.67 21.15C37.13 20.54 37.37 19.8 37.37 19.04Z" fill="#3A3B7B" fill-opacity="1.000000" fill-rule="nonzero"/>
		<path id="Vector" d="M41.92 24.86C41.88 25.14 41.73 25.39 41.49 25.56C41.26 25.74 40.96 25.81 40.67 25.77C40.37 25.74 40.11 25.59 39.93 25.36C39.75 25.14 39.67 24.85 39.71 24.57C39.75 24.29 39.9 24.04 40.14 23.86C40.37 23.69 40.67 23.62 40.96 23.65C41.25 23.69 41.52 23.84 41.7 24.06C41.88 24.29 41.96 24.57 41.92 24.86ZM41.22 14.49C41.37 14.27 41.6 14.1 41.86 14.01C42.12 13.91 42.4 13.91 42.67 13.98C42.94 14.05 43.18 14.2 43.35 14.41C43.52 14.63 43.6 14.89 43.59 15.16C43.56 15.59 43.49 16.01 43.39 16.43C43.13 17.86 42.87 19.28 42.59 20.68C42.46 21.24 42.29 21.78 42.11 22.35C42.05 22.53 41.94 22.69 41.8 22.82C41.71 22.92 41.6 22.99 41.47 23.04C41.35 23.08 41.21 23.1 41.08 23.08C40.94 23.06 40.82 23.01 40.71 22.93C40.6 22.86 40.52 22.75 40.46 22.64C40.37 22.42 40.31 22.2 40.31 21.97C40.31 21.01 40.31 20.05 40.37 19.09C40.48 17.72 40.7 16.36 41.01 15.02C41.05 14.84 41.12 14.67 41.22 14.51L41.22 14.49Z" fill="#3A3B7B" fill-opacity="1.000000" fill-rule="nonzero"/>
		<path id="Vector" d="M5.31 31.03C5.21 31.23 5.19 31.46 5.23 31.68C5.26 31.96 5.33 32.24 5.43 32.52C5.56 32.85 5.71 33.17 5.88 33.58C5.92 33.67 5.97 33.77 6.01 33.87C6.25 34.42 6.55 35.12 6.95 36.13C7.06 36.42 7.16 36.71 7.26 37C7.3 37.12 7.34 37.23 7.39 37.35C7.54 37.77 7.8 38.15 8.14 38.45C8.28 38.62 8.48 38.74 8.69 38.8C8.91 38.86 9.15 38.86 9.37 38.79C9.59 38.72 9.78 38.59 9.92 38.41C10.06 38.24 10.14 38.04 10.15 37.82C10.24 37.4 10.21 36.96 10.07 36.56C9.83 35.89 9.57 35.21 9.26 34.56L9.26 34.55C8.75 33.52 8.24 32.5 7.7 31.47L7.7 31.47C7.54 31.2 7.34 30.96 7.09 30.76C6.94 30.58 6.72 30.46 6.48 30.42C6.24 30.38 5.98 30.42 5.77 30.54C5.56 30.65 5.4 30.83 5.31 31.03Z" fill="#3A3B7B" fill-opacity="1.000000" fill-rule="evenodd"/>
		<path id="Vector" d="M13.02 28.49C12.23 28.3 11.4 28.27 10.6 28.41C9.97 28.47 9.36 28.61 8.93 28.88C8.72 29.02 8.54 29.2 8.45 29.42C8.35 29.65 8.34 29.91 8.42 30.2C8.56 30.74 8.75 31.25 8.94 31.77L8.97 31.85L8.97 31.85C9.54 33.35 10.12 34.85 10.7 36.34C10.77 36.57 10.86 36.8 10.99 37.01L10.99 37.01C11.15 37.28 11.36 37.52 11.6 37.72C11.72 37.83 11.87 37.9 12.03 37.94C12.2 37.97 12.37 37.96 12.53 37.91C12.69 37.85 12.83 37.76 12.94 37.64C13.04 37.51 13.11 37.36 13.14 37.21C13.24 36.78 13.21 36.33 13.04 35.92C12.99 35.79 12.95 35.65 12.91 35.5C12.89 35.45 12.88 35.4 12.86 35.35C14.19 34.85 15.61 34.18 16.1 32.62C16.3 32.08 16.31 31.49 16.15 30.95C15.99 30.4 15.65 29.91 15.18 29.55C14.55 29.05 13.81 28.69 13.02 28.49ZM10.82 30.41C10.85 30.4 10.88 30.39 10.9 30.39C11.77 30.26 12.65 30.43 13.4 30.88C13.72 31.1 13.86 31.34 13.88 31.57C13.91 31.81 13.81 32.07 13.63 32.32C13.29 32.8 12.65 33.18 12.08 33.25C11.67 32.33 11.25 31.37 10.82 30.41Z" fill="#3A3B7B" fill-opacity="1.000000" fill-rule="evenodd"/>
		<path id="Vector" d="M18.29 26.81C19.24 26.39 20.4 26.32 21.32 26.62C21.55 26.68 21.75 26.82 21.88 27.01C22.02 27.2 22.08 27.43 22.06 27.65C22.06 27.8 22.02 27.95 21.95 28.08C21.88 28.21 21.77 28.33 21.64 28.41C21.51 28.5 21.37 28.55 21.21 28.57C21.05 28.59 20.9 28.58 20.75 28.53L20.74 28.52L20.73 28.52C20.65 28.48 20.57 28.45 20.49 28.43L20.48 28.43C19.84 28.27 19.23 28.54 19.01 28.87C18.91 29.03 18.89 29.19 18.98 29.34C19.08 29.49 19.31 29.67 19.78 29.8C19.9 29.83 20.04 29.86 20.17 29.89C20.54 29.99 20.92 30.08 21.29 30.21L21.3 30.22C23.01 30.84 23.65 32.14 23.43 33.36C23.21 34.56 22.16 35.66 20.59 35.92C20.01 36.04 19.42 36.02 18.85 35.85C18.29 35.68 17.78 35.37 17.38 34.96L17.37 34.95C17.24 34.79 17.16 34.61 17.12 34.42C17.09 34.24 17.1 34.06 17.17 33.89C17.24 33.73 17.36 33.58 17.51 33.48C17.67 33.36 17.86 33.29 18.06 33.28C18.26 33.26 18.46 33.3 18.63 33.4C18.81 33.48 18.97 33.58 19.12 33.7L19.12 33.71C19.38 33.93 19.69 33.99 19.99 33.94C20.29 33.88 20.58 33.71 20.76 33.48C20.95 33.25 21.02 32.98 20.93 32.72C20.84 32.46 20.58 32.16 20 31.91C19.85 31.85 19.69 31.8 19.53 31.75C19.49 31.74 19.44 31.73 19.4 31.71C19.28 31.68 19.15 31.64 19.03 31.6C18.95 31.57 18.86 31.55 18.78 31.52C18.56 31.45 18.34 31.38 18.13 31.29C17.67 31.14 17.27 30.85 16.99 30.47C16.72 30.08 16.58 29.62 16.6 29.16C16.6 28.02 17.35 27.23 18.29 26.81Z" fill="#3A3B7B" fill-opacity="1.000000" fill-rule="nonzero"/>
		<path id="Vector" d="M30.24 26.69C30.06 26.6 29.86 26.56 29.66 26.57C29.45 26.58 29.25 26.64 29.08 26.74C28.91 26.84 28.76 26.97 28.66 27.14C28.56 27.28 28.49 27.44 28.46 27.6C28.43 27.77 28.43 27.93 28.46 28.1C28.5 28.31 28.54 28.51 28.57 28.71C28.63 29.05 28.69 29.38 28.73 29.71L28.74 29.72C28.83 30.24 28.87 30.77 28.88 31.3L28.88 31.3C28.91 31.88 28.71 32.44 28.31 32.87L28.31 32.87C28.18 33.03 28.01 33.15 27.81 33.22C27.62 33.29 27.41 33.31 27.2 33.27C27 33.23 26.81 33.13 26.66 33C26.51 32.86 26.4 32.69 26.34 32.5C26.22 32.09 26.16 31.67 26.14 31.25L26.34 28.2C26.34 28.16 26.35 28.12 26.35 28.08C26.36 27.99 26.36 27.89 26.37 27.81C26.37 27.68 26.37 27.54 26.34 27.42C26.3 27.29 26.24 27.17 26.14 27.06C26.03 26.96 25.88 26.88 25.7 26.83C25.37 26.74 25.09 26.74 24.86 26.84C24.63 26.93 24.47 27.11 24.35 27.31C24.24 27.51 24.17 27.75 24.12 27.99C24.08 28.17 24.04 28.35 24.01 28.53C24 28.59 23.99 28.65 23.98 28.71L23.98 28.71C23.82 29.68 23.77 30.67 23.83 31.65C23.85 32.18 23.96 32.7 24.17 33.19C24.41 33.83 24.85 34.37 25.42 34.76C25.99 35.16 26.67 35.37 27.37 35.38C28.08 35.4 28.77 35.2 29.35 34.83C29.94 34.46 30.39 33.92 30.65 33.3C31.02 32.5 31.19 31.64 31.15 30.77C31.13 30.13 31.09 29.49 31.06 28.86C31.04 28.54 31.02 28.23 31.01 27.92C31 27.61 30.89 27.31 30.7 27.06C30.58 26.9 30.43 26.78 30.24 26.69Z" fill="#3A3B7B" fill-opacity="1.000000" fill-rule="nonzero"/>
		<path id="Vector" d="M36.71 31.47C36.69 31.49 36.67 31.52 36.65 31.54C36.51 30.72 36.37 29.9 36.23 29.07C36.18 28.78 36.13 28.48 36.08 28.18L36.07 28.15L36.06 28.12C36.02 28.07 36.02 28.02 36.02 27.9L36.02 27.89L36.02 27.88C35.98 27.65 35.87 27.43 35.7 27.26C35.54 27.09 35.32 26.97 35.08 26.92C34.84 26.86 34.59 26.87 34.36 26.95C34.14 27.03 33.94 27.17 33.79 27.36C33.67 27.51 33.57 27.67 33.49 27.84C33.33 28.2 33.16 28.57 32.98 28.94L32.98 28.95C32.56 29.87 32.13 30.8 31.71 31.74L31.71 31.74C31.45 32.35 31.24 32.99 31.03 33.63C30.99 33.76 30.95 33.88 30.9 34.01C30.83 34.21 30.79 34.43 30.81 34.64C30.79 34.83 30.84 35.02 30.94 35.19C31.05 35.36 31.21 35.49 31.39 35.57C31.59 35.65 31.81 35.67 32.02 35.62C32.23 35.56 32.42 35.45 32.55 35.29C32.72 35.08 32.87 34.86 32.99 34.63C33.34 33.94 33.68 33.24 34.02 32.54C34.15 32.27 34.27 32.03 34.42 31.76C34.43 31.79 34.44 31.83 34.45 31.86C34.6 32.49 34.85 33.1 35.2 33.66C35.27 33.78 35.36 33.89 35.47 33.97C35.58 34.05 35.71 34.11 35.85 34.14C35.99 34.17 36.13 34.17 36.27 34.14C36.41 34.11 36.54 34.05 36.65 33.97L36.88 33.81L38.61 32.41L38.51 33.03C38.37 33.9 38.23 34.75 38.08 35.61C37.98 35.99 37.98 36.38 38.08 36.76C38.12 36.97 38.23 37.17 38.39 37.32C38.55 37.48 38.75 37.59 38.98 37.63C39.2 37.67 39.43 37.65 39.64 37.56C39.85 37.48 40.03 37.33 40.15 37.15C40.43 36.81 40.61 36.4 40.66 35.97C40.73 35.35 40.82 34.73 40.9 34.11C41 33.39 41.09 32.67 41.17 31.97L41.17 31.97C41.25 31.2 41.29 30.43 41.29 29.65C41.3 29.41 41.24 29.16 41.11 28.96C40.97 28.75 40.77 28.59 40.53 28.49C40.28 28.39 40.01 28.36 39.74 28.41C39.48 28.46 39.24 28.6 39.06 28.79C38.74 29.08 38.44 29.38 38.16 29.7L38.16 29.7C37.86 30.07 37.56 30.44 37.26 30.8C37.08 31.03 36.89 31.25 36.71 31.47Z" fill="#3A3B7B" fill-opacity="1.000000" fill-rule="nonzero"/>
	</g>
</svg>
