<svg width="441.532837" height="328.995056" viewBox="0 0 441.533 328.995" fill="none" xmlns="http://www.w3.org/2000/svg" xmlns:xlink="http://www.w3.org/1999/xlink">
	<desc>
			Created with Pixso.
	</desc>
	<defs/>
	<g opacity="0.000000">
		<path id="Vector" d="M0 289.11L441.53 289.11L441.53 289.33L0 289.33L0 289.11Z" fill="#E6E6E6" fill-opacity="1.000000" fill-rule="evenodd"/>
		<path id="Vector" d="M80.97 302.47L110.22 302.47L110.22 302.69L80.97 302.69L80.97 302.47Z" fill="#E6E6E6" fill-opacity="1.000000" fill-rule="evenodd"/>
		<path id="Vector" d="M54.77 302.47L71.72 302.47L71.72 302.69L54.77 302.69L54.77 302.47Z" fill="#E6E6E6" fill-opacity="1.000000" fill-rule="evenodd"/>
		<path id="Vector" d="M168.98 305.72L185.93 305.72L185.93 305.94L168.98 305.94L168.98 305.72Z" fill="#E6E6E6" fill-opacity="1.000000" fill-rule="evenodd"/>
		<path id="Vector" d="M236.14 310.65L274.28 310.65L274.28 310.87L236.14 310.87L236.14 310.65Z" fill="#E6E6E6" fill-opacity="1.000000" fill-rule="evenodd"/>
		<path id="Vector" d="M222.7 310.65L228.29 310.65L228.29 310.87L222.7 310.87L222.7 310.65Z" fill="#E6E6E6" fill-opacity="1.000000" fill-rule="evenodd"/>
		<path id="Vector" d="M317.61 305.72L400.33 305.72L400.33 305.94L317.61 305.94L317.61 305.72Z" fill="#E6E6E6" fill-opacity="1.000000" fill-rule="evenodd"/>
		<path id="Vector" d="M209.28 249.73L38.77 249.73C37.43 249.72 36.15 249.19 35.21 248.25C34.27 247.3 33.74 246.02 33.74 244.68L33.74 4.99C33.75 3.67 34.28 2.4 35.23 1.46C36.17 0.52 37.44 0 38.77 0L209.28 0C210.62 0 211.9 0.53 212.85 1.47C213.79 2.42 214.32 3.7 214.32 5.04L214.32 244.68C214.32 246.02 213.79 247.3 212.85 248.25C211.9 249.2 210.62 249.73 209.28 249.73ZM38.77 0.17C37.49 0.17 36.27 0.68 35.37 1.59C34.46 2.49 33.96 3.72 33.96 4.99L33.96 244.68C33.96 245.96 34.46 247.19 35.37 248.09C36.27 248.99 37.49 249.5 38.77 249.51L209.28 249.51C210.56 249.5 211.79 248.99 212.69 248.09C213.59 247.19 214.1 245.96 214.1 244.68L214.1 4.99C214.1 3.72 213.59 2.49 212.69 1.59C211.79 0.68 210.56 0.17 209.28 0.17L38.77 0.17Z" fill="#E6E6E6" fill-opacity="1.000000" fill-rule="nonzero"/>
		<path id="Vector" d="M400.3 249.73L229.78 249.73C228.44 249.72 227.16 249.19 226.22 248.25C225.27 247.3 224.74 246.02 224.74 244.68L224.74 4.99C224.75 3.66 225.29 2.39 226.23 1.46C227.17 0.52 228.45 0 229.78 0L400.3 0C401.62 0 402.9 0.53 403.84 1.46C404.78 2.4 405.31 3.67 405.32 4.99L405.32 244.68C405.32 246.02 404.79 247.3 403.85 248.24C402.91 249.19 401.63 249.72 400.3 249.73ZM229.78 0.17C228.5 0.17 227.27 0.68 226.37 1.59C225.47 2.49 224.96 3.72 224.96 4.99L224.96 244.68C224.96 245.96 225.47 247.19 226.37 248.09C227.27 248.99 228.5 249.5 229.78 249.51L400.3 249.51C401.58 249.5 402.8 248.99 403.7 248.09C404.61 247.19 405.12 245.96 405.12 244.68L405.12 4.99C405.12 3.72 404.61 2.49 403.7 1.59C402.8 0.68 401.58 0.17 400.3 0.17L229.78 0.17Z" fill="#E6E6E6" fill-opacity="1.000000" fill-rule="nonzero"/>
		<path id="Vector" d="M216.71 213.68L236.13 213.68L236.13 290.71L216.71 290.71L216.71 213.68Z" fill="#E0E0E0" fill-opacity="1.000000" fill-rule="evenodd"/>
		<path id="Vector" d="M232.44 290.71L236.13 290.71L236.13 280.22L228.57 280.22L232.44 290.71Z" fill="#FAFAFA" fill-opacity="1.000000" fill-rule="nonzero"/>
		<path id="Vector" d="M131.62 213.68L151.03 213.68L151.03 290.71L131.62 290.71L131.62 213.68Z" fill="#E0E0E0" fill-opacity="1.000000" fill-rule="evenodd"/>
		<path id="Vector" d="M147.82 213.68L236.13 213.68L236.13 284.27L147.82 284.27L147.82 213.68Z" fill="#FAFAFA" fill-opacity="1.000000" fill-rule="evenodd"/>
		<path id="Vector" d="M232.92 217.15L232.92 235.83L151 235.83L151 217.15L232.9 217.15L232.92 217.15ZM233.24 216.81L150.68 216.81L150.68 236.16L233.27 236.16L233.27 216.81L233.24 216.81Z" fill="#E0E0E0" fill-opacity="1.000000" fill-rule="nonzero"/>
		<path id="Vector" d="M151.5 290.71L147.82 290.71L147.82 280.22L155.37 280.22L151.5 290.71Z" fill="#FAFAFA" fill-opacity="1.000000" fill-rule="nonzero"/>
		<path id="Vector" d="M190.02 226.48C190.02 226.87 190.14 227.25 190.35 227.57C190.57 227.89 190.87 228.14 191.23 228.29C191.58 228.43 191.98 228.47 192.35 228.4C192.73 228.32 193.08 228.14 193.35 227.86C193.63 227.59 193.81 227.24 193.89 226.86C193.96 226.49 193.92 226.09 193.78 225.74C193.63 225.38 193.38 225.08 193.06 224.86C192.74 224.65 192.36 224.53 191.97 224.53C191.46 224.53 190.96 224.74 190.59 225.1C190.23 225.47 190.02 225.97 190.02 226.48Z" fill="#E6E6E6" fill-opacity="1.000000" fill-rule="nonzero"/>
		<path id="Vector" d="M232.92 239.63L232.92 258.31L151 258.31L151 239.63L232.9 239.63L232.92 239.63ZM233.24 239.3L150.68 239.3L150.68 258.65L233.27 258.65L233.27 239.31L233.24 239.3Z" fill="#E0E0E0" fill-opacity="1.000000" fill-rule="nonzero"/>
		<path id="Vector" d="M190.02 249.02C190.02 249.41 190.14 249.78 190.35 250.1C190.57 250.43 190.87 250.68 191.23 250.82C191.58 250.97 191.98 251.01 192.35 250.93C192.73 250.86 193.08 250.67 193.35 250.4C193.63 250.13 193.81 249.78 193.89 249.4C193.96 249.02 193.92 248.63 193.78 248.27C193.63 247.92 193.38 247.61 193.06 247.4C192.74 247.18 192.36 247.07 191.97 247.07C191.46 247.07 190.96 247.27 190.59 247.64C190.23 248.01 190.02 248.5 190.02 249.02Z" fill="#E6E6E6" fill-opacity="1.000000" fill-rule="nonzero"/>
		<path id="Vector" d="M232.92 262.12L232.92 280.81L151 280.81L151 262.12L232.9 262.12L232.92 262.12ZM233.24 261.78L150.68 261.78L150.68 281.15L233.27 281.15L233.27 261.78L233.24 261.78Z" fill="#E0E0E0" fill-opacity="1.000000" fill-rule="nonzero"/>
		<path id="Vector" d="M190.02 271.47C190.02 271.85 190.14 272.23 190.36 272.55C190.57 272.87 190.88 273.12 191.23 273.26C191.59 273.41 191.98 273.45 192.36 273.37C192.74 273.29 193.09 273.11 193.36 272.84C193.63 272.56 193.81 272.21 193.89 271.84C193.96 271.46 193.92 271.07 193.78 270.71C193.63 270.35 193.38 270.05 193.06 269.84C192.74 269.62 192.36 269.51 191.97 269.51C191.72 269.51 191.46 269.56 191.23 269.66C190.99 269.76 190.77 269.9 190.59 270.08C190.41 270.26 190.27 270.48 190.17 270.72C190.07 270.96 190.02 271.21 190.02 271.47Z" fill="#E6E6E6" fill-opacity="1.000000" fill-rule="nonzero"/>
		<path id="Vector" d="M119.76 168.94L139.17 168.94L139.17 290.72L119.76 290.72L119.76 168.94Z" fill="#E0E0E0" fill-opacity="1.000000" fill-rule="evenodd"/>
		<path id="Vector" d="M135.48 290.71L139.17 290.71L139.17 280.22L131.63 280.22L135.48 290.71Z" fill="#FAFAFA" fill-opacity="1.000000" fill-rule="nonzero"/>
		<path id="Vector" d="M47.19 168.94L66.6 168.94L66.6 290.72L47.19 290.72L47.19 168.94Z" fill="#E0E0E0" fill-opacity="1.000000" fill-rule="evenodd"/>
		<path id="Vector" d="M63.38 168.94L139.17 168.94L139.17 284.28L63.38 284.28L63.38 168.94Z" fill="#FAFAFA" fill-opacity="1.000000" fill-rule="evenodd"/>
		<path id="Vector" d="M135.91 172.19L135.91 198.31L66.65 198.31L66.65 172.19L135.91 172.19ZM136.31 171.8L66.22 171.8L66.22 198.69L136.3 198.69L136.3 171.8L136.31 171.8Z" fill="#E0E0E0" fill-opacity="1.000000" fill-rule="nonzero"/>
		<path id="Vector" d="M135.91 201.49L135.91 270.75L102.92 270.75L102.92 201.49L135.91 201.49ZM136.31 201.09L102.52 201.09L102.52 271.16L136.31 271.16L136.31 201.09Z" fill="#E0E0E0" fill-opacity="1.000000" fill-rule="nonzero"/>
		<path id="Vector" d="M99.64 201.49L99.64 270.75L66.65 270.75L66.65 201.49L99.64 201.49ZM100.04 201.09L66.22 201.09L66.22 271.16L100.02 271.16L100.02 201.09L100.04 201.09Z" fill="#E0E0E0" fill-opacity="1.000000" fill-rule="nonzero"/>
		<path id="Vector" d="M67.07 290.71L63.38 290.71L63.38 280.22L70.94 280.22L67.07 290.71Z" fill="#FAFAFA" fill-opacity="1.000000" fill-rule="nonzero"/>
		<path id="Vector" d="M99.32 185.26C99.32 185.65 99.43 186.03 99.65 186.35C99.86 186.68 100.17 186.93 100.53 187.08C100.88 187.23 101.28 187.27 101.66 187.2C102.04 187.12 102.39 186.93 102.67 186.66C102.94 186.39 103.13 186.04 103.21 185.66C103.28 185.28 103.24 184.88 103.1 184.52C102.95 184.16 102.7 183.86 102.37 183.64C102.05 183.43 101.67 183.31 101.28 183.31C100.76 183.31 100.27 183.52 99.9 183.88C99.53 184.25 99.32 184.74 99.32 185.26Z" fill="#E6E6E6" fill-opacity="1.000000" fill-rule="nonzero"/>
		<path id="Vector" d="M106.32 234.48C106.32 234.86 106.43 235.24 106.65 235.57C106.86 235.89 107.17 236.14 107.53 236.29C107.89 236.44 108.28 236.47 108.66 236.4C109.04 236.32 109.39 236.13 109.67 235.86C109.94 235.58 110.13 235.23 110.2 234.85C110.28 234.47 110.24 234.08 110.09 233.72C109.94 233.36 109.68 233.06 109.36 232.84C109.04 232.63 108.66 232.51 108.27 232.52C108.01 232.52 107.76 232.57 107.52 232.66C107.28 232.76 107.07 232.91 106.89 233.09C106.7 233.27 106.56 233.49 106.46 233.73C106.37 233.96 106.32 234.22 106.32 234.48Z" fill="#E6E6E6" fill-opacity="1.000000" fill-rule="nonzero"/>
		<path id="Vector" d="M92.34 234.48C92.34 234.86 92.45 235.24 92.67 235.56C92.89 235.88 93.19 236.13 93.55 236.27C93.9 236.42 94.3 236.46 94.67 236.38C95.05 236.3 95.4 236.12 95.67 235.84C95.94 235.57 96.13 235.22 96.2 234.84C96.28 234.47 96.24 234.07 96.09 233.72C95.94 233.36 95.69 233.06 95.37 232.84C95.05 232.63 94.67 232.52 94.29 232.52C94.03 232.52 93.78 232.57 93.54 232.66C93.3 232.76 93.09 232.91 92.91 233.09C92.72 233.27 92.58 233.49 92.48 233.73C92.39 233.96 92.34 234.22 92.34 234.48Z" fill="#E6E6E6" fill-opacity="1.000000" fill-rule="nonzero"/>
		<path id="Vector" d="M90.13 134.99L81.94 134.99C82.7 138.96 83.17 142.98 83.37 147.02C83.37 151.43 77.13 168.94 86.01 168.94C94.9 168.94 88.66 151.48 88.66 147.02C88.87 142.98 89.36 138.96 90.13 134.99Z" fill="#E0E0E0" fill-opacity="1.000000" fill-rule="nonzero"/>
		<path id="Vector" d="M58.98 152.9L58.98 158.2C58.99 161.04 60.13 163.76 62.13 165.77C64.14 167.78 66.86 168.91 69.7 168.92L75 168.92C77.84 168.91 80.56 167.78 82.57 165.77C84.58 163.76 85.71 161.04 85.72 158.2L85.72 152.9L58.98 152.9Z" fill="#F5F5F5" fill-opacity="1.000000" fill-rule="nonzero"/>
		<path id="Vector" d="M172.78 202.45C172.78 208.63 179.7 213.68 188.15 213.68L195.78 213.68C204.23 213.68 211.15 208.63 211.15 202.45L172.78 202.45Z" fill="#E0E0E0" fill-opacity="1.000000" fill-rule="nonzero"/>
		<path id="Vector" d="M374.95 193.39C370.33 197.17 363.93 204.08 358.09 213.81C354.18 220.29 351.84 227.06 350.8 236.05C350.8 225.89 350.86 214.99 350.9 204.69C352.07 202.04 354.76 195.93 356.68 191.11C363.1 175.01 365.51 171.05 371.28 157.16C378.99 138.62 386.88 116.67 384.62 118.42C380.01 122 362.35 155.07 360.45 159.8C355.25 172.44 352.03 185.8 350.92 199.41C350.92 189.7 350.99 180.86 351.02 174.01C351.15 151.66 351.53 144.45 351.71 142.22C352.43 141.09 353.27 139.78 353.76 139.07C357.91 133.06 359.51 127.96 363.41 119.01C368.96 106.33 373.73 83.82 372.33 84.95C366.52 89.69 361.95 99.84 355.92 112.8C349.9 125.75 351.62 133.2 350.43 144.25C350.18 146.42 349.99 154.62 349.85 165.97C348.29 153.87 345.36 145.9 340.02 138.66C333.45 129.75 327.09 123.74 322.43 120.6C317.77 117.45 330.48 139.33 336.56 148.85C341.97 157.37 346.96 164.86 349.8 172.26C349.65 187.65 349.58 207.13 349.58 225.24C348.19 216.99 345.91 208.1 342.87 201.22C339.22 192.95 333.6 180.27 329.12 175.97C328.05 174.94 333.8 199.6 337.49 206.16C341.19 212.71 343.9 218.9 346.22 222.62C346.76 223.5 348.56 226.83 349.58 228.75C349.58 250.89 349.71 270.43 349.9 277.07L350.86 277.07C350.79 275.36 350.78 264.09 350.8 249.19C353.11 241.1 358.37 231.86 362.71 223.44C367.45 214.32 379.58 189.63 374.95 193.39Z" fill="#E0E0E0" fill-opacity="1.000000" fill-rule="nonzero"/>
		<path id="Vector" d="M364.21 290.71L336.53 290.71L334.44 263.58L366.3 263.58L364.21 290.71Z" fill="#F0F0F0" fill-opacity="1.000000" fill-rule="nonzero"/>
		<path id="Vector" d="M368.36 266.74L332.37 266.74L331.35 257.59L369.39 257.59L368.36 266.74Z" fill="#F5F5F5" fill-opacity="1.000000" fill-rule="nonzero"/>
		<path id="Vector" d="M60.23 18.1L109.73 18.1L109.73 72.45L60.23 72.45L60.23 18.1Z" fill="#E0E0E0" fill-opacity="1.000000" fill-rule="evenodd"/>
		<path id="Vector" d="M63.96 18.1L115.09 18.1L115.09 72.45L63.96 72.45L63.96 18.1Z" fill="#F5F5F5" fill-opacity="1.000000" fill-rule="evenodd"/>
		<path id="Vector" d="M110.8 22.38L110.8 68.17L68.24 68.17L68.24 22.38L110.8 22.38Z" fill="#FFFFFF" fill-opacity="1.000000" fill-rule="evenodd"/>
		<path id="Vector" d="M100.48 33.47L100.48 57.06L78.55 57.06L78.55 33.47L100.48 33.47Z" fill="#F5F5F5" fill-opacity="1.000000" fill-rule="evenodd"/>
		<path id="Vector" d="M316.12 24.43L362.1 24.43L362.1 74.92L316.12 74.92L316.12 24.43Z" fill="#E0E0E0" fill-opacity="1.000000" fill-rule="evenodd"/>
		<path id="Vector" d="M319.59 24.43L367.08 24.43L367.08 74.92L319.59 74.92L319.59 24.43Z" fill="#F5F5F5" fill-opacity="1.000000" fill-rule="evenodd"/>
		<path id="Vector" d="M363.1 28.41L363.1 70.94L323.57 70.94L323.57 28.41L363.1 28.41Z" fill="#FFFFFF" fill-opacity="1.000000" fill-rule="evenodd"/>
		<path id="Vector" d="M355.67 49.68C355.67 56.49 350.14 62.01 343.33 62.01C336.52 62.01 331 56.49 331 49.68C331 42.86 336.52 37.34 343.33 37.34C350.14 37.34 355.67 42.86 355.67 49.68Z" fill="#F5F5F5" fill-opacity="1.000000" fill-rule="evenodd"/>
		<path id="Vector" d="M124.43 50.51L161.15 50.51L161.15 90.83L124.43 90.83L124.43 50.51Z" fill="#E0E0E0" fill-opacity="1.000000" fill-rule="evenodd"/>
		<path id="Vector" d="M127.19 50.51L165.12 50.51L165.12 90.83L127.19 90.83L127.19 50.51Z" fill="#F5F5F5" fill-opacity="1.000000" fill-rule="evenodd"/>
		<path id="Vector" d="M161.94 53.69L161.94 87.65L130.37 87.65L130.37 53.69L161.94 53.69Z" fill="#FFFFFF" fill-opacity="1.000000" fill-rule="evenodd"/>
		<path id="Vector" d="M146.16 62.07L137.52 77.03L154.8 77.03L146.16 62.07Z" fill="#F5F5F5" fill-opacity="1.000000" fill-rule="nonzero"/>
	</g>
	<g opacity="0.000000">
		<path id="Vector" d="M118.73 161.37C170.43 214.67 238.36 251.67 301.33 191.95C333.79 161.18 376.69 78.09 334.36 40.06C276.01 -12.34 242.52 73.4 198.92 85.02C169.02 92.96 143.88 47.04 108.09 77.72C79.8 101.96 97.24 139.21 118.73 161.37Z" fill="#4CAF4F" fill-opacity="1.000000" fill-rule="nonzero"/>
		<g opacity="0.900000">
			<path id="Vector" d="M118.73 161.37C170.43 214.67 238.36 251.67 301.33 191.95C333.79 161.18 376.69 78.09 334.36 40.06C276.01 -12.34 242.52 73.4 198.92 85.02C169.02 92.96 143.88 47.04 108.09 77.72C79.8 101.96 97.24 139.21 118.73 161.37Z" fill="#FFFFFF" fill-opacity="1.000000" fill-rule="nonzero"/>
		</g>
	</g>
	<path id="Vector" d="M391.98 318.99C391.98 324.51 315.32 328.99 220.76 328.99C126.2 328.99 49.54 324.51 49.54 318.99C49.54 313.47 126.2 309 220.76 309C315.32 309 391.98 313.47 391.98 318.99Z" fill="#F5F5F5" fill-opacity="1.000000" fill-rule="evenodd"/>
	<path id="Vector" d="M308.41 95.75L299.65 92.21C299.65 92.21 288.09 113.29 284.78 114.36C280.27 115.81 270.95 119.84 265.42 120.54C264.67 121.43 263.44 124.17 263.56 125.17C270.98 127.65 287.3 124.36 290.8 121.76C298.75 115.87 308.41 95.75 308.41 95.75Z" fill="#E58A7B" fill-opacity="1.000000" fill-rule="nonzero"/>
	<path id="Vector" d="M311.1 90.95C312.73 96.98 303.88 109.12 303.88 109.12L292.29 102.62C292.29 102.62 294.46 97.63 297.11 92.55C301.36 84.35 309.24 84.07 311.1 90.95Z" fill="#4CAF4F" fill-opacity="1.000000" fill-rule="nonzero"/>
	<g opacity="0.200000">
		<path id="Vector" d="M311.1 90.95C312.73 96.98 303.88 109.12 303.88 109.12L292.29 102.62C292.29 102.62 294.46 97.63 297.11 92.55C301.36 84.35 309.24 84.07 311.1 90.95Z" fill="#000000" fill-opacity="1.000000" fill-rule="nonzero"/>
	</g>
	<g opacity="0.200000">
		<path id="Vector" d="M296.89 105.21L301.46 107.77L302.26 93.76C299.6 95.8 297.73 101.95 296.89 105.21Z" fill="#000000" fill-opacity="1.000000" fill-rule="nonzero"/>
	</g>
	<path id="Vector" d="M303.47 86.41C303.47 86.41 294.44 106.49 299.71 143.88L335.27 143.88C335.83 138.42 333.96 111.79 340.74 86.08C336.83 85.31 332.89 84.81 328.92 84.57C323.89 84.27 318.84 84.27 313.81 84.57C310.32 84.92 306.87 85.54 303.47 86.41Z" fill="#4CAF4F" fill-opacity="1.000000" fill-rule="nonzero"/>
	<g opacity="0.200000">
		<path id="Vector" d="M303.47 86.41C303.47 86.41 294.44 106.49 299.71 143.88L335.27 143.88C335.83 138.42 333.96 111.79 340.74 86.08C336.83 85.31 332.89 84.81 328.92 84.57C323.89 84.27 318.84 84.27 313.81 84.57C310.32 84.92 306.87 85.54 303.47 86.41Z" fill="#000000" fill-opacity="1.000000" fill-rule="nonzero"/>
	</g>
	<g style="mix-blend-mode:multiply">
		<path id="Vector" d="M295.22 319.79C295.17 320.74 308.65 321.51 325.33 321.51C342.02 321.51 355.6 320.74 355.65 319.79C355.7 318.84 342.23 318.07 325.54 318.07C308.85 318.07 295.28 318.84 295.22 319.79Z" fill="#E8ECF1" fill-opacity="1.000000" fill-rule="nonzero"/>
	</g>
	<path id="Vector" d="M312.65 297.17L318.96 294.73L324.39 308.76L318.09 311.21L312.65 297.17Z" fill="#E58A7B" fill-opacity="1.000000" fill-rule="evenodd"/>
	<path id="Vector" d="M347.08 313L340.44 313L338 297.61L344.65 297.61L347.08 313Z" fill="#E58A7B" fill-opacity="1.000000" fill-rule="nonzero"/>
	<path id="Vector" d="M339.98 312.23L347.45 312.23C347.58 312.23 347.7 312.28 347.8 312.36C347.9 312.44 347.96 312.56 347.99 312.69L348.95 318.6C348.97 318.75 348.96 318.9 348.91 319.04C348.87 319.18 348.8 319.31 348.7 319.43C348.6 319.54 348.48 319.63 348.34 319.69C348.2 319.75 348.06 319.78 347.91 319.78C345.3 319.74 344.05 319.58 340.76 319.58C338.74 319.58 334.58 319.79 331.77 319.79C328.96 319.79 328.78 317.03 329.94 316.78C335.13 315.66 337.14 314.13 338.87 312.64C339.18 312.38 339.57 312.23 339.98 312.23Z" fill="#263238" fill-opacity="1.000000" fill-rule="nonzero"/>
	<path id="Vector" d="M317.9 309.95L324.96 307.89C325.09 307.85 325.22 307.86 325.34 307.91C325.47 307.96 325.56 308.05 325.63 308.17L328.28 313.47C328.34 313.6 328.37 313.75 328.37 313.89C328.37 314.04 328.33 314.19 328.27 314.32C328.21 314.46 328.12 314.57 328 314.67C327.89 314.76 327.76 314.83 327.61 314.87C325.04 315.58 323.32 316.01 320.11 316.95C317.89 317.59 315.63 318.64 313.44 319.34C311.92 319.82 308.35 319.84 306.51 319.84C303.78 319.84 303.17 316.96 304.34 316.83C307.3 316.5 307.7 316.65 309.33 315.83C312.01 314.66 314.43 312.99 316.47 310.91C316.85 310.47 317.35 310.14 317.9 309.95Z" fill="#263238" fill-opacity="1.000000" fill-rule="nonzero"/>
	<path id="Vector" d="M266.53 120.51L259.22 117.44L256.21 125.55C259.21 126.01 262.25 126.01 265.25 125.55L266.53 120.51Z" fill="#E58A7B" fill-opacity="1.000000" fill-rule="nonzero"/>
	<path id="Vector" d="M253.78 117.23L253.59 122.62L256.21 125.53L259.22 117.43L253.78 117.23Z" fill="#E58A7B" fill-opacity="1.000000" fill-rule="nonzero"/>
	<path id="Vector" d="M313.5 298.36L319.82 295.92L322.63 303.18L316.3 305.62L313.5 298.36Z" fill="#CF6F64" fill-opacity="1.000000" fill-rule="evenodd"/>
	<path id="Vector" d="M344.65 297.61L338 297.61L339.26 305.54L345.91 305.54L344.65 297.61Z" fill="#CF6F64" fill-opacity="1.000000" fill-rule="nonzero"/>
	<g opacity="0.200000">
		<path id="Vector" d="M298.58 133.77C298.71 135.37 298.86 137 299.05 138.68L325.49 130.1C329.62 128.87 333.21 126.28 335.67 122.74C335.77 120.38 335.9 117.9 336.11 115.32C336.2 114.06 336.3 112.77 336.42 111.46C336.53 110.16 336.69 108.71 336.86 107.31L298.58 133.77Z" fill="#000000" fill-opacity="1.000000" fill-rule="nonzero"/>
	</g>
	<path id="Vector" d="M307.21 104.81L306.33 104.7C306.85 100.29 310.15 96.81 313.62 96.89L313.62 97.78C310.58 97.72 307.68 100.85 307.21 104.81Z" fill="#FFFFFF" fill-opacity="1.000000" fill-rule="nonzero"/>
	<path id="Vector" d="M311.92 112.96L311.77 112.96L311.77 112.07C314.81 112.19 317.66 109.02 318.13 105.07L319.01 105.18C318.54 109.5 315.35 112.96 311.92 112.96Z" fill="#FFFFFF" fill-opacity="1.000000" fill-rule="nonzero"/>
	<path id="Vector" d="M328.43 67.55C327.18 72.42 325.71 81.33 328.92 84.57C328.92 84.57 326.68 89.5 317.64 89.5C309.39 89.5 313.81 84.57 313.81 84.57C319.3 83.28 319.4 79.27 318.68 75.47L328.43 67.55Z" fill="#E58A7B" fill-opacity="1.000000" fill-rule="nonzero"/>
	<path id="Vector" d="M324.45 70.78L318.69 75.47C318.86 76.34 318.97 77.23 318.99 78.12C320.68 79.8 324.06 75.55 324.41 73.38C324.58 72.52 324.6 71.64 324.45 70.78Z" fill="#CF6F64" fill-opacity="1.000000" fill-rule="nonzero"/>
	<path id="Vector" d="M308.77 67.49C309.17 68.18 309.71 68.79 310.35 69.27C311 69.74 311.74 70.08 312.52 70.26C314.64 70.73 315.7 68.78 315.12 66.82C314.6 65.05 312.86 62.68 310.7 63.08C310.24 63.18 309.81 63.38 309.44 63.68C309.07 63.97 308.79 64.35 308.6 64.78C308.41 65.22 308.32 65.69 308.35 66.16C308.38 66.63 308.53 67.08 308.77 67.49Z" fill="#CF6F64" fill-opacity="1.000000" fill-rule="nonzero"/>
	<path id="Vector" d="M312.27 51.92C308.97 53.43 307.81 66.55 311.96 68.49C316.11 70.44 318.53 49.05 312.27 51.92Z" fill="#263238" fill-opacity="1.000000" fill-rule="nonzero"/>
	<path id="Vector" d="M329.43 60.23C328.64 66.82 328.55 70.69 325.02 74.07C323.92 75.19 322.54 75.98 321.02 76.36C319.5 76.75 317.91 76.7 316.41 76.24C314.92 75.77 313.58 74.9 312.55 73.72C311.52 72.55 310.83 71.11 310.57 69.56C309.5 63.65 310.98 53.87 317.58 51.25C318.97 50.64 320.5 50.41 322 50.58C323.51 50.76 324.94 51.34 326.15 52.25C327.36 53.17 328.3 54.39 328.88 55.79C329.45 57.2 329.65 58.73 329.43 60.23Z" fill="#E58A7B" fill-opacity="1.000000" fill-rule="nonzero"/>
	<path id="Vector" d="M318.58 55.33C323.47 54.08 327.07 53.24 325.78 57.31C324.07 62.75 322.02 68.01 324.77 68.25C326.45 68.4 333.86 65.25 332.92 62.07C332.1 59.29 335.57 58.53 336.19 57.13C338.47 52.04 331.93 52.71 333.1 49.62C334.26 46.53 327.8 41.55 324.27 44.03C318.52 48.04 308.65 47.98 313.84 41.38C317.55 36.68 310.92 37.64 310.92 37.64C310.92 37.64 314.93 40.02 308.19 43.69C301.05 47.61 307.59 58.14 318.58 55.33Z" fill="#263238" fill-opacity="1.000000" fill-rule="nonzero"/>
	<path id="Vector" d="M332.03 67.49C331.06 68.89 329.61 69.87 327.96 70.26C325.78 70.73 324.94 68.78 325.76 66.82C326.49 65.05 328.5 62.68 330.59 63.08C332.67 63.49 333.15 65.76 332.03 67.49Z" fill="#E58A7B" fill-opacity="1.000000" fill-rule="nonzero"/>
	<path id="Vector" d="M299.71 143.88C299.71 143.88 293.74 197.31 293.27 217.58C292.79 238.67 313.5 304.47 313.5 304.47L324.1 300.05C324.1 300.05 311.74 239.93 313.5 219.23C315.37 196.65 323.11 143.92 323.11 143.92L299.71 143.88Z" fill="#4CAF4F" fill-opacity="1.000000" fill-rule="nonzero"/>
	<g opacity="0.200000">
		<path id="Vector" d="M314.54 158.55C309.78 168.42 312.99 187.95 315.57 199.52C316.55 191.35 317.71 182.48 318.82 174.28C318.71 161.67 317.73 151.93 314.54 158.55Z" fill="#000000" fill-opacity="1.000000" fill-rule="nonzero"/>
	</g>
	<path id="Vector" d="M323.63 296.56C323.68 296.56 324.88 299.93 324.88 299.93L312.66 305.07L310.74 301.48L323.63 296.56Z" fill="#4CAF4F" fill-opacity="1.000000" fill-rule="nonzero"/>
	<path id="Vector" d="M312.33 143.88C312.33 143.88 316.89 194.69 319.91 213.72C323.23 234.57 336.25 304.01 336.25 304.01L348.43 304.01C348.43 304.01 341.13 236.26 339.76 215.61C338.25 193.22 335.27 143.88 335.27 143.88L312.33 143.88Z" fill="#4CAF4F" fill-opacity="1.000000" fill-rule="nonzero"/>
	<path id="Vector" d="M348.61 300.84C348.67 300.84 349.02 304.24 349.02 304.24L335.63 304.24L334.68 300.33L348.61 300.84Z" fill="#4CAF4F" fill-opacity="1.000000" fill-rule="nonzero"/>
	<g opacity="0.200000">
		<path id="Vector" d="M343.95 296.81C343.92 296.81 343.9 296.8 343.87 296.78C343.85 296.77 343.84 296.74 343.83 296.71C343.76 296.1 337.19 234.9 335.95 216.36C334.61 196.24 331.9 151.62 331.88 151.17C331.88 151.15 331.88 151.14 331.88 151.12C331.89 151.11 331.9 151.1 331.91 151.09C331.92 151.08 331.93 151.07 331.94 151.06C331.95 151.06 331.97 151.05 331.98 151.05C332.01 151.05 332.04 151.06 332.06 151.08C332.08 151.1 332.1 151.13 332.1 151.16C332.1 151.61 334.83 196.2 336.17 216.35C337.41 234.89 343.98 296.04 344.05 296.71C344.05 296.72 344.05 296.74 344.04 296.75C344.04 296.76 344.03 296.78 344.03 296.79C344.02 296.8 344 296.81 343.99 296.82C343.98 296.82 343.96 296.83 343.95 296.83L343.95 296.81Z" fill="#000000" fill-opacity="1.000000" fill-rule="nonzero"/>
	</g>
	<path id="Vector" d="M319.33 62.07C319.33 62.6 318.99 63.04 318.64 63.04C318.29 63.04 318.03 62.6 318.07 62.07C318.1 61.53 318.4 61.09 318.76 61.09C319.11 61.09 319.37 61.54 319.33 62.07Z" fill="#263238" fill-opacity="1.000000" fill-rule="nonzero"/>
	<path id="Vector" d="M313.27 62.07C313.27 62.6 312.93 63.04 312.58 63.04C312.24 63.04 311.97 62.6 312 62.07C312.03 61.53 312.34 61.09 312.7 61.09C313.05 61.09 313.31 61.54 313.27 62.07Z" fill="#263238" fill-opacity="1.000000" fill-rule="nonzero"/>
	<path id="Vector" d="M315.18 62.34C314.44 63.98 313.49 65.53 312.35 66.92C313.24 67.81 314.89 67.4 314.89 67.4L315.18 62.34Z" fill="#DF5753" fill-opacity="1.000000" fill-rule="nonzero"/>
	<path id="Vector" d="M315.34 69.65C315.32 69.65 315.3 69.65 315.28 69.64C315.26 69.63 315.24 69.62 315.23 69.6C315.21 69.59 315.2 69.57 315.2 69.55C315.19 69.53 315.19 69.51 315.19 69.49C315.19 69.45 315.21 69.41 315.24 69.38C315.27 69.35 315.31 69.33 315.35 69.33C316.03 69.34 316.7 69.19 317.31 68.9C317.92 68.62 318.46 68.2 318.89 67.67C318.92 67.65 318.96 67.63 319 67.63C319.04 67.63 319.08 67.65 319.11 67.67C319.14 67.7 319.15 67.74 319.15 67.78C319.15 67.82 319.14 67.86 319.11 67.89C318.65 68.45 318.07 68.9 317.42 69.2C316.77 69.5 316.06 69.66 315.34 69.65Z" fill="#263238" fill-opacity="1.000000" fill-rule="nonzero"/>
	<path id="Vector" d="M320.41 60.44C320.36 60.46 320.32 60.47 320.27 60.47C320.22 60.47 320.18 60.46 320.13 60.44C319.8 60.23 319.43 60.09 319.04 60.05C318.64 60.01 318.25 60.06 317.88 60.2C317.85 60.22 317.81 60.23 317.77 60.23C317.73 60.24 317.69 60.23 317.65 60.22C317.61 60.2 317.57 60.18 317.55 60.16C317.52 60.13 317.49 60.1 317.48 60.06C317.44 59.98 317.44 59.89 317.47 59.82C317.5 59.74 317.57 59.67 317.64 59.64C318.1 59.45 318.6 59.37 319.1 59.42C319.6 59.47 320.08 59.63 320.5 59.9C320.53 59.93 320.56 59.95 320.58 59.99C320.6 60.02 320.62 60.06 320.63 60.1C320.63 60.14 320.63 60.18 320.62 60.22C320.61 60.26 320.6 60.3 320.57 60.33C320.53 60.39 320.47 60.42 320.41 60.44Z" fill="#263238" fill-opacity="1.000000" fill-rule="nonzero"/>
	<path id="Vector" d="M310.93 58.67C310.88 58.66 310.84 58.64 310.81 58.6C310.78 58.58 310.76 58.54 310.74 58.5C310.72 58.47 310.72 58.42 310.72 58.38C310.72 58.34 310.72 58.3 310.74 58.26C310.76 58.23 310.78 58.19 310.81 58.16C311.15 57.78 311.57 57.49 312.04 57.3C312.51 57.11 313.02 57.03 313.53 57.07C313.57 57.07 313.61 57.09 313.64 57.11C313.68 57.13 313.71 57.16 313.73 57.2C313.75 57.23 313.77 57.27 313.78 57.31C313.78 57.35 313.78 57.39 313.78 57.43C313.76 57.51 313.71 57.58 313.64 57.63C313.57 57.68 313.49 57.7 313.4 57.69C313 57.67 312.6 57.74 312.23 57.89C311.86 58.04 311.53 58.28 311.26 58.58C311.22 58.62 311.17 58.66 311.11 58.67C311.05 58.69 310.99 58.69 310.93 58.67Z" fill="#263238" fill-opacity="1.000000" fill-rule="nonzero"/>
	<path id="Vector" d="M344.15 94.77L334.97 92.32C334.97 92.32 325.96 114.49 322.77 115.93C318.45 117.91 307.49 124.76 302.82 128C302.57 129.11 302.77 132.03 303.35 132.83C311.3 131.39 326.52 125.53 329.7 122.56C336.95 115.77 344.15 94.77 344.15 94.77Z" fill="#E58A7B" fill-opacity="1.000000" fill-rule="nonzero"/>
	<path id="Vector" d="M337.74 313.4C337.29 313.43 336.85 313.31 336.48 313.05C336.37 312.95 336.28 312.82 336.23 312.67C336.18 312.53 336.17 312.37 336.21 312.22C336.21 312.13 336.24 312.04 336.29 311.96C336.35 311.88 336.42 311.82 336.51 311.78C337.25 311.4 339.32 312.72 339.56 312.87C339.59 312.88 339.61 312.91 339.62 312.93C339.63 312.96 339.63 313 339.62 313.02C339.62 313.06 339.6 313.08 339.58 313.11C339.56 313.13 339.53 313.15 339.5 313.16C338.92 313.3 338.33 313.38 337.74 313.4ZM336.86 312.02C336.79 312 336.72 312 336.66 312.02C336.62 312.04 336.59 312.06 336.57 312.09C336.56 312.13 336.55 312.17 336.55 312.2C336.53 312.31 336.53 312.41 336.56 312.51C336.59 312.61 336.65 312.71 336.73 312.78C337.07 313.09 337.94 313.12 339.08 312.9C338.4 312.45 337.63 312.15 336.83 312.02L336.86 312.02Z" fill="#4CAF4F" fill-opacity="1.000000" fill-rule="nonzero"/>
	<path id="Vector" d="M339.45 313.16C339.43 313.16 339.41 313.16 339.38 313.16C338.72 312.79 337.48 311.33 337.66 310.59C337.69 310.47 337.76 310.37 337.85 310.29C337.95 310.21 338.06 310.17 338.18 310.17C338.3 310.16 338.42 310.17 338.54 310.2C338.65 310.24 338.76 310.29 338.85 310.38C339.58 311 339.62 312.93 339.62 313.02C339.63 313.05 339.62 313.08 339.61 313.11C339.59 313.13 339.57 313.15 339.54 313.17C339.51 313.17 339.48 313.17 339.45 313.16ZM338.27 310.46L338.21 310.46C338.01 310.46 337.98 310.58 337.97 310.62C337.87 311.06 338.65 312.16 339.3 312.68C339.3 311.93 339.07 311.21 338.64 310.6C338.54 310.51 338.41 310.46 338.27 310.46Z" fill="#4CAF4F" fill-opacity="1.000000" fill-rule="nonzero"/>
	<path id="Vector" d="M314.3 312.29C313.76 312.48 313.17 312.48 312.63 312.29C312.5 312.23 312.4 312.13 312.32 312.01C312.25 311.89 312.2 311.76 312.19 311.62C312.18 311.53 312.19 311.44 312.23 311.36C312.26 311.28 312.31 311.21 312.38 311.15C313.09 310.52 315.97 311.15 316.3 311.28C316.33 311.28 316.36 311.3 316.38 311.33C316.4 311.35 316.41 311.39 316.41 311.42C316.41 311.45 316.4 311.48 316.38 311.51C316.36 311.54 316.34 311.56 316.31 311.58C315.66 311.87 314.99 312.11 314.3 312.29ZM312.86 311.24C312.76 311.26 312.66 311.31 312.58 311.37C312.55 311.39 312.53 311.42 312.52 311.46C312.51 311.49 312.51 311.52 312.51 311.56C312.52 311.65 312.55 311.74 312.6 311.82C312.65 311.9 312.71 311.96 312.79 312.01C313.26 312.26 314.35 312.06 315.75 311.47C314.81 311.23 313.83 311.15 312.86 311.24Z" fill="#4CAF4F" fill-opacity="1.000000" fill-rule="nonzero"/>
	<path id="Vector" d="M316.28 311.58L316.21 311.58C315.33 311.42 313.56 310.4 313.51 309.64C313.51 309.47 313.59 309.22 314.01 309.08C314.16 309.03 314.31 309 314.46 309.01C314.61 309.02 314.76 309.06 314.9 309.13C315.85 309.6 316.35 311.29 316.38 311.37C316.39 311.4 316.39 311.43 316.38 311.45C316.37 311.48 316.35 311.5 316.34 311.52C316.32 311.54 316.3 311.56 316.28 311.58ZM314.19 309.34L314.1 309.34C313.83 309.44 313.83 309.55 313.83 309.59C313.83 310.05 315.11 310.89 316 311.17C315.79 310.46 315.36 309.84 314.76 309.4C314.59 309.31 314.38 309.29 314.19 309.34Z" fill="#4CAF4F" fill-opacity="1.000000" fill-rule="nonzero"/>
	<path id="Vector" d="M303.57 127.48L294.37 131.72L293.3 134.37L296.7 136.66C296.7 136.66 303.05 135.97 304.87 131.88L303.57 127.48Z" fill="#E58A7B" fill-opacity="1.000000" fill-rule="nonzero"/>
	<path id="Vector" d="M303.96 132.99C303.76 131.22 303.17 129.51 302.25 127.99L303.71 126.89C304.8 128.65 305.5 130.62 305.76 132.68L303.96 132.99Z" fill="#263238" fill-opacity="1.000000" fill-rule="nonzero"/>
	<path id="Vector" d="M305.54 128.74C305.73 129.04 305.83 129.4 305.81 129.77C305.79 130.13 305.67 130.48 305.44 130.76C305.22 131.05 304.92 131.26 304.57 131.37C304.23 131.48 303.85 131.48 303.51 131.37C303.16 131.26 302.86 131.04 302.64 130.75C302.42 130.46 302.29 130.12 302.28 129.75C302.27 129.39 302.37 129.03 302.56 128.73C302.76 128.42 303.04 128.19 303.38 128.05C303.76 127.86 304.2 127.82 304.6 127.95C305 128.08 305.34 128.36 305.54 128.74Z" fill="#263238" fill-opacity="1.000000" fill-rule="nonzero"/>
	<path id="Vector" d="M288.14 135.15L289.37 136.39L297.63 132.85L294.37 131.72L288.14 135.15Z" fill="#E58A7B" fill-opacity="1.000000" fill-rule="nonzero"/>
	<g opacity="0.200000">
		<path id="Vector" d="M323.63 296.56C323.68 296.56 324.88 299.93 324.88 299.93L312.66 305.07L310.74 301.48L323.63 296.56Z" fill="#000000" fill-opacity="1.000000" fill-rule="nonzero"/>
	</g>
	<g opacity="0.200000">
		<path id="Vector" d="M348.61 300.84C348.67 300.84 349.02 304.24 349.02 304.24L335.63 304.24L334.68 300.33L348.61 300.84Z" fill="#000000" fill-opacity="1.000000" fill-rule="nonzero"/>
	</g>
	<path id="Vector" d="M346.55 92.22C348.97 100.06 339.48 110.77 339.48 110.77L326.37 105.42C327.92 100.89 329.71 96.45 331.74 92.11C335.76 83.43 344.09 84.32 346.55 92.22Z" fill="#4CAF4F" fill-opacity="1.000000" fill-rule="nonzero"/>
	<g opacity="0.200000">
		<path id="Vector" d="M346.55 92.22C348.97 100.06 339.48 110.77 339.48 110.77L326.37 105.42C327.92 100.89 329.71 96.45 331.74 92.11C335.76 83.43 344.09 84.32 346.55 92.22Z" fill="#000000" fill-opacity="1.000000" fill-rule="nonzero"/>
	</g>
	<path id="Vector" d="M210.6 13.74L216.24 13.74L216.24 14.65L210.6 14.65L210.6 13.74Z" fill="#4CAF4F" fill-opacity="1.000000" fill-rule="evenodd"/>
	<path id="Vector" d="M288.6 64.9L289.29 49.74L290.19 49.78L289.51 64.94L288.6 64.9Z" fill="#4CAF4F" fill-opacity="1.000000" fill-rule="evenodd"/>
	<path id="Vector" d="M287.53 17.82L183.33 17.82L173.63 234.81L277.83 234.81L287.53 17.82Z" fill="#4CAF4F" fill-opacity="1.000000" fill-rule="nonzero"/>
	<g opacity="0.560000">
		<path id="Vector" d="M284.42 20.81L180.22 20.81L170.52 237.8L274.73 237.8L284.42 20.81Z" fill="#FAFAFA" fill-opacity="1.000000" fill-rule="nonzero"/>
	</g>
	<g opacity="0.070000">
		<path id="Vector" d="M281.31 23.78L177.11 23.78L167.41 240.77L271.61 240.77L281.31 23.78Z" fill="#4CAF4F" fill-opacity="1.000000" fill-rule="nonzero"/>
	</g>
	<path id="Vector" d="M269.45 118.42L180.51 118.42L179.77 135.03L268.71 135.03L269.45 118.42Z" fill="#FFFFFF" fill-opacity="1.000000" fill-rule="nonzero"/>
	<path id="Vector" d="M229.42 106.31L181.05 106.31L180.72 113.73L229.1 113.73L229.42 106.31Z" fill="#4CAF4F" fill-opacity="1.000000" fill-rule="nonzero"/>
	<path id="Vector" d="M267.45 163.23L178.51 163.23L177.77 179.83L266.71 179.83L267.45 163.23Z" fill="#FFFFFF" fill-opacity="1.000000" fill-rule="nonzero"/>
	<g opacity="0.470000">
		<path id="Vector" d="M251.14 202.25L191.33 202.25L190.44 222.15L250.25 222.15L251.14 202.25Z" fill="#4CAF4F" fill-opacity="1.000000" fill-rule="nonzero"/>
	</g>
	<path id="Vector" d="M247.14 225.24L187.33 225.24C187.3 225.25 187.28 225.25 187.25 225.24C187.24 225.21 187.24 225.19 187.25 225.16L188.13 205.26C188.13 205.24 188.14 205.23 188.14 205.22C188.15 205.2 188.15 205.19 188.16 205.18C188.17 205.17 188.19 205.17 188.2 205.16C188.21 205.16 188.23 205.16 188.24 205.16L248.05 205.16C248.06 205.15 248.07 205.15 248.08 205.15C248.1 205.15 248.11 205.15 248.12 205.16C248.13 205.17 248.13 205.18 248.13 205.19C248.13 205.21 248.13 205.22 248.12 205.23L247.25 225.18C247.24 225.2 247.23 225.21 247.21 225.23C247.19 225.24 247.16 225.24 247.14 225.24ZM187.44 225.03L247.03 225.03L247.92 205.33L188.32 205.33L187.44 225.03Z" fill="#FFFFFF" fill-opacity="1.000000" fill-rule="nonzero"/>
	<path id="Vector" d="M218.98 151.11L179.05 151.11L178.72 158.55L218.64 158.55L218.98 151.11Z" fill="#4CAF4F" fill-opacity="1.000000" fill-rule="nonzero"/>
	<path id="Vector" d="M250 64.79C249.77 69.63 248.05 74.27 245.08 78.08C242.88 80.97 240.05 83.31 236.8 84.93C233.56 86.54 229.99 87.4 226.36 87.42C223.43 87.44 220.53 86.86 217.83 85.72C215.13 84.58 212.69 82.9 210.67 80.78C208.65 78.66 207.08 76.15 206.06 73.4C205.05 70.65 204.6 67.72 204.76 64.79C205.07 58.72 207.69 53 212.08 48.79C216.47 44.59 222.3 42.22 228.38 42.17C231.32 42.14 234.22 42.72 236.92 43.86C239.63 45 242.07 46.68 244.09 48.8C246.12 50.92 247.69 53.43 248.7 56.19C249.72 58.94 250.16 61.87 250 64.79Z" fill="#FFFFFF" fill-opacity="1.000000" fill-rule="nonzero"/>
	<path id="Vector" d="M252.13 46.9C252.07 48.19 251.61 49.42 250.82 50.44C250.24 51.2 249.48 51.82 248.62 52.25C247.76 52.68 246.81 52.91 245.84 52.92C244.91 52.92 243.99 52.7 243.16 52.27C242.33 51.83 241.62 51.21 241.09 50.44C240.39 49.4 240.04 48.16 240.1 46.9C240.19 45.29 240.88 43.77 242.05 42.66C243.22 41.54 244.77 40.91 246.38 40.9C247.16 40.89 247.93 41.04 248.65 41.35C249.37 41.65 250.01 42.1 250.55 42.66C251.09 43.22 251.51 43.89 251.78 44.62C252.05 45.35 252.17 46.13 252.13 46.9Z" fill="#4CAF4F" fill-opacity="1.000000" fill-rule="nonzero"/>
	<path id="Vector" d="M190.09 126.72C190.05 127.44 189.74 128.1 189.22 128.6C188.71 129.09 188.02 129.37 187.31 129.37C186.97 129.38 186.63 129.31 186.31 129.18C185.99 129.04 185.7 128.85 185.47 128.6C185.23 128.35 185.04 128.06 184.92 127.73C184.8 127.41 184.75 127.07 184.77 126.72C184.81 126.01 185.12 125.34 185.63 124.85C186.15 124.35 186.84 124.08 187.55 124.08C187.89 124.07 188.23 124.14 188.55 124.27C188.87 124.41 189.15 124.6 189.39 124.85C189.63 125.1 189.82 125.39 189.94 125.72C190.06 126.04 190.11 126.38 190.09 126.72Z" fill="#263238" fill-opacity="1.000000" fill-rule="nonzero"/>
	<path id="Vector" d="M202 126.72C201.96 127.44 201.65 128.11 201.13 128.6C200.61 129.09 199.93 129.37 199.22 129.37C198.87 129.38 198.53 129.31 198.21 129.17C197.9 129.04 197.61 128.84 197.38 128.6C197.14 128.35 196.95 128.05 196.83 127.73C196.71 127.41 196.66 127.07 196.68 126.72C196.72 126.01 197.03 125.34 197.54 124.85C198.06 124.36 198.74 124.08 199.45 124.08C199.8 124.07 200.14 124.14 200.46 124.27C200.77 124.4 201.06 124.6 201.3 124.85C201.54 125.1 201.72 125.39 201.84 125.71C201.96 126.04 202.01 126.38 202 126.72Z" fill="#263238" fill-opacity="1.000000" fill-rule="nonzero"/>
	<path id="Vector" d="M213.91 126.72C213.87 127.44 213.56 128.11 213.04 128.6C212.53 129.09 211.84 129.37 211.13 129.37C210.78 129.38 210.44 129.31 210.13 129.17C209.81 129.04 209.52 128.84 209.29 128.6C209.05 128.35 208.86 128.05 208.74 127.73C208.62 127.41 208.57 127.07 208.58 126.72C208.62 126.01 208.93 125.34 209.45 124.85C209.97 124.36 210.65 124.08 211.37 124.08C211.71 124.07 212.05 124.14 212.37 124.27C212.69 124.4 212.97 124.6 213.21 124.85C213.45 125.1 213.63 125.39 213.75 125.71C213.87 126.04 213.93 126.38 213.91 126.72Z" fill="#263238" fill-opacity="1.000000" fill-rule="nonzero"/>
	<path id="Vector" d="M188.09 171.53C188.05 172.24 187.74 172.91 187.22 173.4C186.7 173.89 186.02 174.17 185.31 174.18C184.96 174.18 184.62 174.12 184.31 173.98C183.99 173.85 183.7 173.65 183.46 173.4C183.23 173.16 183.04 172.86 182.92 172.54C182.8 172.22 182.75 171.87 182.76 171.53C182.8 170.82 183.11 170.15 183.63 169.66C184.15 169.16 184.83 168.89 185.55 168.88C185.89 168.88 186.23 168.95 186.55 169.08C186.86 169.21 187.15 169.41 187.39 169.66C187.63 169.91 187.81 170.2 187.93 170.52C188.05 170.84 188.11 171.19 188.09 171.53Z" fill="#263238" fill-opacity="1.000000" fill-rule="nonzero"/>
	<path id="Vector" d="M199.99 171.53C199.95 172.24 199.64 172.91 199.13 173.4C198.61 173.89 197.93 174.17 197.22 174.18C196.88 174.18 196.53 174.12 196.22 173.98C195.9 173.85 195.61 173.65 195.37 173.41C195.14 173.16 194.95 172.86 194.83 172.54C194.71 172.22 194.66 171.87 194.68 171.53C194.72 170.82 195.03 170.15 195.54 169.66C196.06 169.16 196.74 168.89 197.46 168.88C197.8 168.88 198.14 168.95 198.46 169.08C198.77 169.21 199.06 169.41 199.3 169.66C199.53 169.91 199.72 170.2 199.84 170.52C199.96 170.84 200.01 171.19 199.99 171.53Z" fill="#263238" fill-opacity="1.000000" fill-rule="nonzero"/>
	<path id="Vector" d="M211.93 171.53C211.89 172.24 211.58 172.91 211.06 173.41C210.55 173.9 209.86 174.17 209.15 174.18C208.81 174.18 208.47 174.11 208.15 173.98C207.83 173.85 207.55 173.65 207.31 173.4C207.07 173.15 206.89 172.86 206.77 172.54C206.65 172.22 206.59 171.87 206.61 171.53C206.65 170.82 206.96 170.15 207.48 169.66C207.99 169.17 208.68 168.89 209.39 168.88C209.73 168.88 210.07 168.94 210.39 169.08C210.71 169.21 211 169.41 211.23 169.66C211.47 169.9 211.66 170.2 211.78 170.52C211.9 170.84 211.95 171.19 211.93 171.53Z" fill="#263238" fill-opacity="1.000000" fill-rule="nonzero"/>
	<path id="Vector" d="M223.82 171.53C223.77 172.24 223.46 172.91 222.95 173.4C222.43 173.89 221.75 174.17 221.04 174.18C220.69 174.18 220.35 174.11 220.04 173.98C219.72 173.85 219.43 173.65 219.2 173.4C218.96 173.15 218.77 172.86 218.65 172.54C218.53 172.22 218.48 171.87 218.49 171.53C218.53 170.82 218.85 170.15 219.36 169.66C219.88 169.17 220.56 168.89 221.27 168.88C221.62 168.88 221.96 168.95 222.28 169.08C222.59 169.21 222.88 169.41 223.12 169.66C223.35 169.91 223.54 170.2 223.66 170.52C223.78 170.84 223.83 171.19 223.82 171.53Z" fill="#263238" fill-opacity="1.000000" fill-rule="nonzero"/>
	<path id="Vector" d="M235.77 171.53C235.73 172.24 235.42 172.91 234.9 173.4C234.39 173.89 233.71 174.17 232.99 174.18C232.65 174.18 232.31 174.12 231.99 173.98C231.67 173.85 231.39 173.65 231.15 173.41C230.91 173.16 230.72 172.86 230.6 172.54C230.48 172.22 230.43 171.87 230.45 171.53C230.49 170.82 230.8 170.15 231.32 169.66C231.83 169.16 232.52 168.89 233.23 168.88C233.57 168.88 233.92 168.95 234.23 169.08C234.55 169.21 234.84 169.41 235.07 169.66C235.31 169.91 235.5 170.2 235.62 170.52C235.74 170.84 235.79 171.19 235.77 171.53Z" fill="#263238" fill-opacity="1.000000" fill-rule="nonzero"/>
	<path id="Vector" d="M234.4 50.68C237.86 54.21 237.66 60 233.97 63.62C230.27 67.23 224.47 67.3 221.02 63.76C217.57 60.23 217.76 54.44 221.46 50.82C225.15 47.21 230.95 47.14 234.4 50.68Z" fill="#4CAF4F" fill-opacity="1.000000" fill-rule="evenodd"/>
	<path id="Vector" d="M245.08 78.08C242.88 80.97 240.05 83.31 236.8 84.93C233.56 86.54 229.99 87.4 226.36 87.42C222.84 87.45 219.37 86.61 216.26 84.98C213.14 83.36 210.47 80.99 208.49 78.08C212.78 73.81 219.57 71.02 227.09 71.02C234.62 71.02 241.17 73.81 245.08 78.08Z" fill="#4CAF4F" fill-opacity="1.000000" fill-rule="nonzero"/>
	<g opacity="0.100000">
		<path id="Vector" d="M234.4 50.68C237.86 54.21 237.66 60 233.97 63.62C230.27 67.23 224.47 67.3 221.02 63.76C217.57 60.23 217.76 54.44 221.46 50.82C225.15 47.21 230.95 47.14 234.4 50.68Z" fill="#FFFFFF" fill-opacity="1.000000" fill-rule="evenodd"/>
	</g>
	<g opacity="0.100000">
		<path id="Vector" d="M245.08 78.08C242.88 80.97 240.05 83.31 236.8 84.93C233.56 86.54 229.99 87.4 226.36 87.42C222.84 87.45 219.37 86.61 216.26 84.98C213.14 83.36 210.47 80.99 208.49 78.08C212.78 73.81 219.57 71.02 227.09 71.02C234.62 71.02 241.17 73.81 245.08 78.08Z" fill="#FFFFFF" fill-opacity="1.000000" fill-rule="nonzero"/>
	</g>
	<path id="Vector" d="M115.16 139.03C114.32 140.86 113.43 142.88 112.67 144.84C111.9 146.81 111.11 148.83 110.43 150.84C109.04 154.81 107.99 158.88 107.27 163.03L107.08 164.33C107.06 164.55 107.08 164.77 107.14 164.99C107.35 165.72 107.67 166.41 108.11 167.04C109.24 168.65 110.56 170.13 112.03 171.45C113.58 172.89 115.21 174.25 116.9 175.52C118.6 176.83 120.38 178.1 122.14 179.3L120.49 182.4C116.29 180.57 112.31 178.29 108.61 175.59C106.64 174.15 104.86 172.47 103.31 170.58C102.4 169.45 101.68 168.18 101.2 166.81C100.92 165.95 100.78 165.06 100.78 164.16C100.78 163.95 100.78 163.64 100.78 163.49L100.78 163.05L100.87 162.17C101.37 157.57 102.34 153.03 103.76 148.62C104.44 146.45 105.18 144.29 106.02 142.18C106.86 140.07 107.72 138 108.79 135.86L115.16 139.03Z" fill="#E58A7B" fill-opacity="1.000000" fill-rule="nonzero"/>
	<path id="Vector" d="M120.9 178.75L127.14 175.59L125.52 182.45C125.52 182.45 121.24 183.65 119.25 181.56L120.9 178.75Z" fill="#E58A7B" fill-opacity="1.000000" fill-rule="nonzero"/>
	<path id="Vector" d="M132.85 176.71L131.19 182.38L125.52 182.45L127.14 175.59L132.85 176.71Z" fill="#E58A7B" fill-opacity="1.000000" fill-rule="nonzero"/>
	<path id="Vector" d="M141.67 105.96C142 107.19 142.46 108.37 143.05 109.5C142.88 109.69 142.66 109.83 142.41 109.91C142.16 109.99 141.9 110 141.65 109.95L141.67 105.96Z" fill="#DF5753" fill-opacity="1.000000" fill-rule="nonzero"/>
	<path id="Vector" d="M142.14 105C142.14 105.56 141.85 106.02 141.48 106.02C141.11 106.02 140.82 105.56 140.82 105C140.82 104.44 141.11 103.99 141.48 103.99C141.85 103.99 142.14 104.44 142.14 105Z" fill="#263238" fill-opacity="1.000000" fill-rule="evenodd"/>
	<path id="Vector" d="M141.29 104.02L142.63 103.64C142.63 103.64 141.97 104.68 141.29 104.02Z" fill="#263238" fill-opacity="1.000000" fill-rule="nonzero"/>
	<path id="Vector" d="M124.42 112.45C125.22 116.55 126.03 124.08 123.15 126.83C123.15 126.83 124.28 131 131.92 131C140.31 131 135.92 126.83 135.92 126.83C131.34 125.74 131.46 122.34 132.26 119.14L124.42 112.45Z" fill="#E58A7B" fill-opacity="1.000000" fill-rule="nonzero"/>
	<path id="Vector" d="M122.19 103.08C122.61 109.95 122.64 112.86 126.11 116.38C131.33 121.68 139.66 119.67 141.29 112.85C142.77 106.67 141.83 96.5 135.11 93.77C133.64 93.16 132.03 92.94 130.45 93.12C128.86 93.31 127.35 93.9 126.06 94.83C124.76 95.76 123.73 97.01 123.05 98.46C122.37 99.9 122.08 101.49 122.19 103.08Z" fill="#E58A7B" fill-opacity="1.000000" fill-rule="nonzero"/>
	<path id="Vector" d="M122.87 95.37C119.42 96.62 114.83 95.68 116.63 106.31C118.54 117.56 115.61 121.26 115.61 121.26C115.61 121.26 128.67 124.04 142 121.09C142 121.09 137.93 113.97 139.07 108.73C140.53 102.1 139.38 99.66 139.38 99.66C139.38 99.66 127.7 93.6 122.87 95.37Z" fill="#263238" fill-opacity="1.000000" fill-rule="nonzero"/>
	<path id="Vector" d="M137.44 106.66C137.44 107.97 137.81 109.24 138.51 110.34C139.45 111.77 140.55 111.23 140.83 109.71C141.07 108.37 140.89 106.02 139.7 105.1C138.5 104.18 137.45 105.08 137.44 106.66Z" fill="#E58A7B" fill-opacity="1.000000" fill-rule="nonzero"/>
	<path id="Vector" d="M119.87 96.52C118.88 93.74 123.6 89.46 133.58 91.22C143.56 92.99 143.99 101.3 143.99 101.3L141.97 98.9L142.06 101.42L131.81 103.39L119.87 96.52Z" fill="#263238" fill-opacity="1.000000" fill-rule="nonzero"/>
	<path id="Vector" d="M120.72 127.3C120.66 126.9 120.76 126.48 121 126.15C121.24 125.82 121.6 125.6 122 125.53C125.11 125.02 132.17 123.98 135.72 124.47C138.37 124.84 139.06 126.38 139.17 127.64C139.19 127.86 139.16 128.09 139.09 128.29C139.01 128.5 138.89 128.69 138.74 128.85C138.59 129.01 138.4 129.14 138.19 129.22C137.98 129.3 137.76 129.33 137.54 129.32L122.19 128.63C121.83 128.61 121.49 128.47 121.22 128.23C120.95 127.98 120.77 127.66 120.72 127.3Z" fill="#4CAF4F" fill-opacity="1.000000" fill-rule="nonzero"/>
	<g opacity="0.600000">
		<path id="Vector" d="M120.72 127.3C120.66 126.9 120.76 126.48 121 126.15C121.24 125.82 121.6 125.6 122 125.53C125.11 125.02 132.17 123.98 135.72 124.47C138.37 124.84 139.06 126.38 139.17 127.64C139.19 127.86 139.16 128.09 139.09 128.29C139.01 128.5 138.89 128.69 138.74 128.85C138.59 129.01 138.4 129.14 138.19 129.22C137.98 129.3 137.76 129.33 137.54 129.32L122.19 128.63C121.83 128.61 121.49 128.47 121.22 128.23C120.95 127.98 120.77 127.66 120.72 127.3Z" fill="#000000" fill-opacity="1.000000" fill-rule="nonzero"/>
	</g>
	<path id="Vector" d="M129.59 281.57L135.29 285.53L144.82 272.61L139.12 268.66L129.59 281.57Z" fill="#E58A7B" fill-opacity="1.000000" fill-rule="nonzero"/>
	<path id="Vector" d="M116.31 281.31L122.33 284.74L130.76 271.08L124.75 267.65L116.31 281.31Z" fill="#E58A7B" fill-opacity="1.000000" fill-rule="nonzero"/>
	<path id="Vector" d="M144.81 272.61L139.9 279.26L134.2 275.32L139.11 268.66L144.81 272.61Z" fill="#CF6F64" fill-opacity="1.000000" fill-rule="nonzero"/>
	<path id="Vector" d="M124.74 267.65L130.76 271.09L126.42 278.13L120.39 274.69L124.74 267.65Z" fill="#CF6F64" fill-opacity="1.000000" fill-rule="nonzero"/>
	<path id="Vector" d="M134.4 170.43C134.4 170.43 156.63 198.45 152.46 225.25C149.09 246.89 129.58 276.2 129.58 276.2L120.4 271.64C126.87 258.69 132.39 245.27 136.91 231.52C138.31 227.25 138.72 222.71 138.11 218.26C137.49 213.81 135.88 209.56 133.38 205.82C122.11 189.37 104.06 199.16 116.21 170.43L134.4 170.43Z" fill="#4CAF4F" fill-opacity="1.000000" fill-rule="nonzero"/>
	<g opacity="0.600000">
		<path id="Vector" d="M134.4 170.43C134.4 170.43 156.63 198.45 152.46 225.25C149.09 246.89 129.58 276.2 129.58 276.2L120.4 271.64C126.87 258.69 132.39 245.27 136.91 231.52C138.31 227.25 138.72 222.71 138.11 218.26C137.49 213.81 135.88 209.56 133.38 205.82C122.11 189.37 104.06 199.16 116.21 170.43L134.4 170.43Z" fill="#000000" fill-opacity="1.000000" fill-rule="nonzero"/>
	</g>
	<g opacity="0.400000">
		<path id="Vector" d="M145.3 188.42L142.07 185.21C142.07 185.47 148.33 224.12 150.09 234.98C151.13 231.81 151.92 228.56 152.47 225.27C154.53 212.12 150.21 198.69 145.3 188.42Z" fill="#000000" fill-opacity="1.000000" fill-rule="nonzero"/>
	</g>
	<path id="Vector" d="M144.32 170.43C144.32 170.43 171.1 205.64 171.86 226.76C172.48 244.42 142.72 278.64 142.72 278.64L134.06 273.04C134.06 273.04 151.49 248.74 155.87 228.89C154.18 209.21 118.33 170.43 118.33 170.43L144.32 170.43Z" fill="#4CAF4F" fill-opacity="1.000000" fill-rule="nonzero"/>
	<g opacity="0.600000">
		<path id="Vector" d="M144.32 170.43C144.32 170.43 171.1 205.64 171.86 226.76C172.48 244.42 142.72 278.64 142.72 278.64L134.06 273.04C134.06 273.04 151.49 248.74 155.87 228.89C154.18 209.21 118.33 170.43 118.33 170.43L144.32 170.43Z" fill="#000000" fill-opacity="1.000000" fill-rule="nonzero"/>
	</g>
	<path id="Vector" d="M111.2 128.4C108.34 129.08 105.59 139.48 105.59 139.48L116.78 146.96C116.78 146.96 120.51 138.73 119.2 135.12C117.85 131.37 114.79 127.55 111.2 128.4Z" fill="#4CAF4F" fill-opacity="1.000000" fill-rule="nonzero"/>
	<g opacity="0.200000">
		<path id="Vector" d="M113.39 135.1L112.61 144.17L116.77 146.96C117.92 144.38 118.77 141.67 119.31 138.89L113.39 135.1Z" fill="#000000" fill-opacity="1.000000" fill-rule="nonzero"/>
	</g>
	<path id="Vector" d="M147.64 128.61C147.64 128.61 150.94 129.76 144.32 170.42L116.19 170.42C116.67 158.94 116.68 151.87 111.2 128.4C115.14 127.59 119.13 127.06 123.15 126.83C127.4 126.53 131.67 126.53 135.92 126.83C141.42 127.33 147.64 128.61 147.64 128.61Z" fill="#4CAF4F" fill-opacity="1.000000" fill-rule="nonzero"/>
	<path id="Vector" d="M150.5 135.1C151.13 136.87 151.8 138.77 152.51 140.6C153.22 142.42 153.89 144.31 154.6 146.16L156.77 151.71L157.31 153.09L157.6 153.78L157.73 154.13C157.73 154.19 157.73 154.19 157.73 154.18C157.57 153.95 157.36 153.76 157.11 153.63C156.76 153.42 156.37 153.31 155.96 153.29C155.63 153.28 155.29 153.34 154.98 153.47C154.58 153.66 154.58 153.74 154.58 153.73C154.66 153.67 154.72 153.6 154.78 153.53C155.27 152.88 155.69 152.19 156.04 151.47C156.46 150.66 156.85 149.79 157.25 148.92C158.03 147.15 158.74 145.32 159.46 143.48C160.17 141.63 160.85 139.77 161.52 137.89L163.53 132.25L166.93 133.14C166.26 137.16 165.39 141.08 164.35 145.07C163.85 147.06 163.26 149.03 162.59 151.02C162.25 152.02 161.88 153 161.46 154.02C161.01 155.12 160.47 156.18 159.83 157.18C159.6 157.52 159.34 157.84 159.05 158.13C158.6 158.62 158.06 159.01 157.45 159.27C156.91 159.5 156.32 159.61 155.73 159.59C155.07 159.57 154.43 159.38 153.87 159.03C153.2 158.62 152.65 158.05 152.26 157.37C152.13 157.14 152.02 156.91 151.94 156.74L151.77 156.4L151.43 155.72L150.76 154.35C149.88 152.51 149 150.66 148.23 148.79C147.46 146.93 146.65 145.04 145.89 143.14C145.13 141.24 144.45 139.34 143.8 137.29L150.5 135.1Z" fill="#E58A7B" fill-opacity="1.000000" fill-rule="nonzero"/>
	<path id="Vector" d="M147.64 128.61C151.02 129.41 154.82 139.41 154.82 139.41L144.77 147.96C144.77 147.96 138.26 137.06 139.57 133.47C140.94 129.73 143.22 127.55 147.64 128.61Z" fill="#4CAF4F" fill-opacity="1.000000" fill-rule="nonzero"/>
	<path id="Vector" d="M165.13 129.09L168.66 126.14L171.12 129.97L169.31 133.15C169.31 133.15 166.43 135.8 163.88 134.45C163.48 133.54 163.38 132.53 163.61 131.56C163.83 130.6 164.37 129.73 165.13 129.09Z" fill="#E58A7B" fill-opacity="1.000000" fill-rule="nonzero"/>
	<path id="Vector" d="M175.04 126.15L174.77 127.11L169.18 128.05L168.63 126.14L175.04 126.15Z" fill="#E58A7B" fill-opacity="1.000000" fill-rule="nonzero"/>
	<path id="Vector" d="M143.41 279.09L133.32 272.57L135.13 269.43L146.46 276.4L143.41 279.09Z" fill="#4CAF4F" fill-opacity="1.000000" fill-rule="nonzero"/>
	<path id="Vector" d="M126.27 284.28C125.39 284.17 124.54 283.87 123.78 283.4C123.75 283.39 123.73 283.37 123.71 283.34C123.69 283.31 123.68 283.28 123.68 283.25C123.68 283.21 123.69 283.18 123.71 283.16C123.73 283.13 123.75 283.11 123.78 283.1C124.06 283.01 126.43 282.28 127.12 282.84C127.2 282.91 127.26 282.99 127.29 283.08C127.33 283.18 127.33 283.28 127.32 283.38C127.3 283.54 127.25 283.69 127.16 283.82C127.07 283.96 126.95 284.07 126.81 284.14C126.65 284.23 126.46 284.28 126.27 284.28ZM124.29 283.31C125.39 283.87 126.27 284.08 126.7 283.87C126.79 283.81 126.87 283.74 126.92 283.65C126.98 283.56 127.01 283.46 127.02 283.35C127.02 283.21 127.02 283.15 126.94 283.12C126.57 282.81 125.24 283.04 124.27 283.31L124.29 283.31Z" fill="#263238" fill-opacity="1.000000" fill-rule="nonzero"/>
	<path id="Vector" d="M123.85 283.46C123.8 283.46 123.75 283.44 123.72 283.41C123.71 283.38 123.7 283.35 123.7 283.33C123.7 283.3 123.71 283.27 123.72 283.25C123.72 283.17 124.3 281.25 125.2 280.82C125.31 280.77 125.44 280.74 125.56 280.74C125.69 280.74 125.81 280.77 125.93 280.82C126.05 280.86 126.16 280.94 126.23 281.04C126.31 281.15 126.34 281.28 126.34 281.41C126.27 282.21 124.66 283.3 123.92 283.49L123.85 283.46ZM125.56 281.05C125.47 281.05 125.39 281.07 125.31 281.11C124.76 281.38 124.31 282.41 124.09 283.04C124.87 282.71 125.94 281.84 125.97 281.36C125.97 281.28 125.97 281.18 125.77 281.09C125.7 281.06 125.63 281.03 125.56 281.02L125.56 281.05Z" fill="#263238" fill-opacity="1.000000" fill-rule="nonzero"/>
	<path id="Vector" d="M138.88 288.1C137.88 288.1 136.49 286.82 135.73 286.03C135.71 286 135.7 285.97 135.7 285.94C135.7 285.9 135.71 285.87 135.73 285.84C135.75 285.82 135.77 285.79 135.8 285.78C135.83 285.76 135.87 285.75 135.9 285.76C136.25 285.76 139.32 286.21 139.75 287.08C139.8 287.16 139.82 287.25 139.82 287.34C139.82 287.43 139.8 287.51 139.75 287.59C139.68 287.73 139.59 287.84 139.46 287.93C139.34 288.02 139.2 288.07 139.05 288.09L138.88 288.1ZM136.31 286.15C137.43 287.23 138.41 287.83 138.96 287.76C139.06 287.75 139.15 287.71 139.23 287.65C139.31 287.6 139.38 287.52 139.42 287.43C139.44 287.4 139.45 287.37 139.45 287.33C139.45 287.29 139.44 287.26 139.42 287.23C139.19 286.75 137.56 286.35 136.31 286.15Z" fill="#263238" fill-opacity="1.000000" fill-rule="nonzero"/>
	<path id="Vector" d="M136.41 286.11C136.21 286.11 136.02 286.1 135.82 286.06C135.79 286.06 135.77 286.05 135.75 286.03C135.72 286.01 135.71 285.99 135.7 285.97C135.68 285.94 135.68 285.91 135.68 285.88C135.68 285.85 135.68 285.82 135.7 285.8C135.75 285.74 136.94 284.3 138.07 284.2C138.39 284.18 138.71 284.28 138.95 284.48C139.3 284.78 139.28 285.05 139.19 285.22C138.97 285.82 137.44 286.11 136.41 286.11ZM136.18 285.78C137.17 285.84 138.75 285.51 138.95 285.07C138.95 285.07 139.03 284.93 138.8 284.74C138.7 284.66 138.6 284.6 138.48 284.56C138.37 284.53 138.25 284.51 138.12 284.53C137.36 284.74 136.69 285.18 136.18 285.79L136.18 285.78Z" fill="#263238" fill-opacity="1.000000" fill-rule="nonzero"/>
	<path id="Vector" d="M124.08 282.51L116.6 280.39C116.47 280.35 116.33 280.36 116.21 280.41C116.08 280.47 115.99 280.57 115.93 280.7L113.41 286.37C113.35 286.52 113.32 286.68 113.33 286.83C113.33 286.99 113.37 287.14 113.44 287.28C113.51 287.43 113.61 287.55 113.73 287.65C113.85 287.75 113.99 287.82 114.14 287.87C116.79 288.55 118.06 288.75 121.36 289.69C123.39 290.26 126.28 291.31 129.08 292.1C131.88 292.9 132.82 290.17 131.73 289.59C126.82 286.99 126.43 285.17 125.09 283.23C124.85 282.88 124.49 282.62 124.08 282.51Z" fill="#4CAF4F" fill-opacity="1.000000" fill-rule="nonzero"/>
	<path id="Vector" d="M135.93 285L129.54 280.58C129.43 280.5 129.3 280.47 129.17 280.48C129.03 280.49 128.91 280.55 128.82 280.65L124.58 285.21C124.48 285.32 124.4 285.46 124.35 285.61C124.31 285.76 124.29 285.92 124.31 286.08C124.33 286.23 124.39 286.38 124.47 286.51C124.55 286.65 124.66 286.76 124.79 286.85C127.04 288.36 128.21 288.97 131.02 290.92C132.79 292.12 136.21 294.79 138.59 296.45C140.98 298.11 142.75 295.83 141.9 294.93C138.11 290.88 137.28 288.33 136.65 286.03C136.54 285.61 136.29 285.25 135.93 285Z" fill="#4CAF4F" fill-opacity="1.000000" fill-rule="nonzero"/>
	<path id="Vector" d="M130.75 276.78L119.23 271.05L120.42 267.93L132.73 273.97L130.75 276.78Z" fill="#4CAF4F" fill-opacity="1.000000" fill-rule="nonzero"/>
	<path id="Vector" d="M115.77 168.77L114.79 171.31C114.7 171.5 114.93 171.71 115.25 171.71L144.47 171.71C144.72 171.71 144.93 171.58 144.95 171.43L145.2 168.9C145.2 168.73 144.99 168.58 144.72 168.58L116.22 168.58C116.14 168.57 116.05 168.59 115.97 168.62C115.89 168.65 115.82 168.7 115.77 168.77Z" fill="#4CAF4F" fill-opacity="1.000000" fill-rule="nonzero"/>
	<g opacity="0.400000">
		<path id="Vector" d="M115.77 168.77L114.79 171.31C114.7 171.5 114.93 171.71 115.25 171.71L144.47 171.71C144.72 171.71 144.93 171.58 144.95 171.43L145.2 168.9C145.2 168.73 144.99 168.58 144.72 168.58L116.22 168.58C116.14 168.57 116.05 168.59 115.97 168.62C115.89 168.65 115.82 168.7 115.77 168.77Z" fill="#FFFFFF" fill-opacity="1.000000" fill-rule="nonzero"/>
	</g>
	<path id="Vector" d="M120.37 171.95L119.6 171.95C119.45 171.95 119.33 171.88 119.34 171.78L119.7 168.5C119.7 168.41 119.85 168.33 120 168.33L120.76 168.33C120.91 168.33 121.03 168.41 121.02 168.5L120.66 171.78C120.65 171.88 120.52 171.95 120.37 171.95Z" fill="#4CAF4F" fill-opacity="1.000000" fill-rule="nonzero"/>
	<path id="Vector" d="M138.38 171.95L137.62 171.95C137.47 171.95 137.36 171.88 137.37 171.78L137.72 168.5C137.72 168.41 137.87 168.33 138.02 168.33L138.78 168.33C138.93 168.33 139.05 168.41 139.03 168.5L138.68 171.78C138.64 171.88 138.54 171.95 138.38 171.95Z" fill="#4CAF4F" fill-opacity="1.000000" fill-rule="nonzero"/>
	<g style="mix-blend-mode:multiply">
		<path id="Vector" d="M143.35 319.79C143.35 320.74 132.76 321.5 119.7 321.5C106.63 321.5 96.04 320.74 96.04 319.79C96.04 318.84 106.63 318.07 119.7 318.07C132.76 318.07 143.35 318.84 143.35 319.79Z" fill="#F5F5F5" fill-opacity="1.000000" fill-rule="evenodd"/>
	</g>
	<path id="Vector" d="M134.11 317.37C129.92 316.15 125.28 314.59 122.47 312.95C122.39 312.9 122.3 312.87 122.22 312.83L122.22 293.88L130.69 293.88C131.33 293.84 131.94 293.56 132.38 293.09C132.82 292.62 133.07 292 133.07 291.36C133.07 290.71 132.82 290.09 132.38 289.63C131.94 289.16 131.33 288.88 130.69 288.84L122.26 288.84L122.26 202.46L117.18 202.46L117.18 288.84L108.76 288.84C108.42 288.82 108.07 288.87 107.75 288.98C107.43 289.1 107.13 289.28 106.88 289.52C106.63 289.76 106.43 290.04 106.29 290.36C106.16 290.67 106.09 291.01 106.09 291.36C106.09 291.7 106.16 292.04 106.29 292.36C106.43 292.68 106.63 292.96 106.88 293.2C107.13 293.43 107.43 293.62 107.75 293.73C108.07 293.85 108.42 293.9 108.76 293.88L117.18 293.88L117.18 312.8C117.1 312.8 117.02 312.87 116.94 312.93C114.09 314.59 109.48 316.15 105.29 317.34C105.01 317.43 104.77 317.61 104.61 317.86C104.45 318.11 104.38 318.41 104.43 318.7C104.47 318.99 104.61 319.26 104.83 319.46C105.06 319.65 105.34 319.76 105.64 319.76L133.76 319.76C134.04 319.74 134.31 319.63 134.52 319.44C134.73 319.24 134.86 318.99 134.9 318.71C134.94 318.43 134.89 318.14 134.74 317.9C134.6 317.65 134.37 317.47 134.11 317.37Z" fill="#E0E0E0" fill-opacity="1.000000" fill-rule="nonzero"/>
	<path id="Vector" d="M104 193.66L135.4 193.66C137.93 193.66 139.98 195.71 139.98 198.23L139.98 207.57C139.98 210.1 137.93 212.14 135.4 212.14L104 212.14C101.48 212.14 99.43 210.1 99.43 207.57L99.43 198.23C99.43 195.71 101.48 193.66 104 193.66Z" fill="#4CAF4F" fill-opacity="1.000000" fill-rule="evenodd"/>
	<path id="Vector" d="M103.71 212.15L103.71 213.76C103.71 215.08 105.15 216.16 106.92 216.16L132.53 216.16C134.29 216.16 135.73 215.08 135.73 213.76L135.73 212.15L103.71 212.15Z" fill="#4CAF4F" fill-opacity="1.000000" fill-rule="nonzero"/>
	<g opacity="0.300000">
		<path id="Vector" d="M103.71 212.15L103.71 213.76C103.71 215.08 105.15 216.16 106.92 216.16L132.53 216.16C134.29 216.16 135.73 215.08 135.73 213.76L135.73 212.15L103.71 212.15Z" fill="#FFFFFF" fill-opacity="1.000000" fill-rule="nonzero"/>
	</g>
</svg>
