<svg width="441.532837" height="433.399017" viewBox="0 0 441.533 433.399" fill="none" xmlns="http://www.w3.org/2000/svg" xmlns:xlink="http://www.w3.org/1999/xlink">
	<desc>
			Created with Pixso.
	</desc>
	<defs/>
	<g opacity="0.000000">
		<path id="Vector" d="M441.53 291.6L272.14 291.6L272.14 193.59L441.53 193.59L441.53 291.6ZM273.18 290.57L440.49 290.57L440.49 194.62L273.18 194.62L273.18 290.57Z" fill="#E0E0E0" fill-opacity="1.000000" fill-rule="nonzero"/>
		<path id="Vector" d="M294.83 245.85L406.58 245.85L406.58 249.13L294.83 249.13L294.83 245.85Z" fill="#F0F0F0" fill-opacity="1.000000" fill-rule="evenodd"/>
		<path id="Vector" d="M294.83 258.07L414.28 258.07L414.28 261.64L294.83 261.64L294.83 258.07Z" fill="#F0F0F0" fill-opacity="1.000000" fill-rule="evenodd"/>
		<path id="Vector" d="M294.83 270.43L414.28 270.43L414.28 274L294.83 274L294.83 270.43Z" fill="#F0F0F0" fill-opacity="1.000000" fill-rule="evenodd"/>
		<path id="Vector" d="M294.83 228.11L333.89 228.11L333.89 236.61L294.83 236.61L294.83 228.11Z" fill="#F0F0F0" fill-opacity="1.000000" fill-rule="evenodd"/>
		<path id="Vector" d="M272.69 194.1L441.01 194.1L441.01 209.71L272.69 209.71L272.69 194.1Z" fill="#E0E0E0" fill-opacity="1.000000" fill-rule="evenodd"/>
		<path id="Vector" d="M428.06 207.37C427.84 207.17 430.01 204.55 432.9 201.53C435.78 198.52 438.31 196.23 438.52 196.43C438.73 196.62 436.57 199.25 433.68 202.28C430.8 205.31 428.27 207.58 428.06 207.37Z" fill="#FFFFFF" fill-opacity="1.000000" fill-rule="nonzero"/>
		<path id="Vector" d="M438.54 207.37C438.33 207.58 435.81 205.31 432.92 202.28C430.03 199.25 427.87 196.63 428.08 196.43C428.3 196.22 430.81 198.49 433.7 201.53C436.6 204.57 438.74 207.17 438.54 207.37Z" fill="#FFFFFF" fill-opacity="1.000000" fill-rule="nonzero"/>
		<path id="Vector" d="M64.78 0L233.1 0L233.1 96.99L64.78 96.99L64.78 0Z" fill="#E6E6E6" fill-opacity="1.000000" fill-rule="evenodd"/>
		<path id="Vector" d="M86.92 51.75L198.68 51.75L198.68 55.03L86.92 55.03L86.92 51.75Z" fill="#F0F0F0" fill-opacity="1.000000" fill-rule="evenodd"/>
		<path id="Vector" d="M86.92 63.97L206.38 63.97L206.38 67.55L86.92 67.55L86.92 63.97Z" fill="#F0F0F0" fill-opacity="1.000000" fill-rule="evenodd"/>
		<path id="Vector" d="M86.92 76.33L206.38 76.33L206.38 79.91L86.92 79.91L86.92 76.33Z" fill="#F0F0F0" fill-opacity="1.000000" fill-rule="evenodd"/>
		<path id="Vector" d="M86.92 34.01L125.98 34.01L125.98 42.51L86.92 42.51L86.92 34.01Z" fill="#F0F0F0" fill-opacity="1.000000" fill-rule="evenodd"/>
		<path id="Vector" d="M64.78 0L233.1 0L233.1 15.6L64.78 15.6L64.78 0Z" fill="#E0E0E0" fill-opacity="1.000000" fill-rule="evenodd"/>
		<path id="Vector" d="M219.58 13.19C219.36 13 221.53 10.37 224.42 7.35C227.3 4.34 229.83 2.05 230.04 2.26C230.24 2.47 228.08 5.08 225.2 8.1C222.32 11.12 219.79 13.38 219.58 13.19Z" fill="#FFFFFF" fill-opacity="1.000000" fill-rule="nonzero"/>
		<path id="Vector" d="M230.04 13.19C229.83 13.4 227.31 11.13 224.42 8.1C221.52 5.07 219.36 2.47 219.58 2.26C219.8 2.05 222.31 4.33 225.2 7.35C228.09 10.38 230.25 13 230.04 13.19Z" fill="#FFFFFF" fill-opacity="1.000000" fill-rule="nonzero"/>
		<path id="Vector" d="M169.35 180.18L0 180.18L0 82.15L169.35 82.15L169.35 180.18ZM1.03 179.15L168.32 179.15L168.32 83.18L1.03 83.18L1.03 179.15Z" fill="#E0E0E0" fill-opacity="1.000000" fill-rule="nonzero"/>
		<path id="Vector" d="M22.66 134.43L134.42 134.43L134.42 137.7L22.66 137.7L22.66 134.43Z" fill="#F0F0F0" fill-opacity="1.000000" fill-rule="evenodd"/>
		<path id="Vector" d="M22.66 146.64L142.12 146.64L142.12 150.22L22.66 150.22L22.66 146.64Z" fill="#F0F0F0" fill-opacity="1.000000" fill-rule="evenodd"/>
		<path id="Vector" d="M22.66 159L142.12 159L142.12 162.58L22.66 162.58L22.66 159Z" fill="#F0F0F0" fill-opacity="1.000000" fill-rule="evenodd"/>
		<path id="Vector" d="M22.66 116.68L61.72 116.68L61.72 125.19L22.66 125.19L22.66 116.68Z" fill="#F0F0F0" fill-opacity="1.000000" fill-rule="evenodd"/>
		<path id="Vector" d="M0.51 82.67L168.83 82.67L168.83 98.27L0.51 98.27L0.51 82.67Z" fill="#E0E0E0" fill-opacity="1.000000" fill-rule="evenodd"/>
		<path id="Vector" d="M166.05 202.64L364.8 202.64L364.8 380.57L166.05 380.57L166.05 202.64Z" fill="#E6E6E6" fill-opacity="1.000000" fill-rule="evenodd"/>
		<path id="Vector" d="M20.36 146.59L176.05 146.59L176.05 308.35L20.36 308.35L20.36 146.59Z" fill="#F0F0F0" fill-opacity="1.000000" fill-rule="evenodd"/>
		<path id="Vector" d="M20.36 146.59L176.05 146.59L176.05 164.21L20.36 164.21L20.36 146.59Z" fill="#E0E0E0" fill-opacity="1.000000" fill-rule="evenodd"/>
		<path id="Vector" d="M33.21 155.22C33.18 155.86 32.97 156.48 32.59 156.99C32.22 157.51 31.7 157.91 31.1 158.13C30.5 158.36 29.85 158.4 29.23 158.26C28.6 158.12 28.03 157.8 27.59 157.33C27.15 156.87 26.85 156.29 26.74 155.66C26.62 155.03 26.69 154.38 26.95 153.8C27.2 153.21 27.61 152.71 28.15 152.35C28.68 152 29.31 151.81 29.95 151.81C30.83 151.83 31.67 152.2 32.28 152.84C32.9 153.48 33.23 154.34 33.21 155.22Z" fill="#FFFFFF" fill-opacity="1.000000" fill-rule="nonzero"/>
		<path id="Vector" d="M46.47 155.22C46.45 155.86 46.23 156.48 45.86 157C45.48 157.53 44.96 157.92 44.36 158.15C43.76 158.38 43.1 158.42 42.48 158.28C41.85 158.14 41.28 157.82 40.83 157.35C40.39 156.89 40.09 156.3 39.98 155.67C39.86 155.04 39.93 154.39 40.19 153.8C40.44 153.21 40.86 152.7 41.4 152.35C41.94 152 42.56 151.81 43.21 151.81C44.09 151.83 44.93 152.2 45.54 152.84C46.16 153.48 46.49 154.34 46.47 155.22Z" fill="#FFFFFF" fill-opacity="1.000000" fill-rule="nonzero"/>
		<path id="Vector" d="M59.73 155.22C59.71 155.86 59.49 156.48 59.12 157C58.74 157.53 58.22 157.92 57.62 158.15C57.02 158.38 56.36 158.42 55.74 158.28C55.11 158.14 54.54 157.82 54.09 157.35C53.65 156.89 53.35 156.3 53.24 155.67C53.12 155.04 53.19 154.39 53.45 153.8C53.7 153.21 54.12 152.7 54.66 152.35C55.2 152 55.82 151.81 56.47 151.81C57.35 151.83 58.19 152.2 58.8 152.84C59.42 153.48 59.75 154.34 59.73 155.22Z" fill="#FFFFFF" fill-opacity="1.000000" fill-rule="nonzero"/>
		<path id="Vector" d="M220.55 35.37L419.3 35.37L419.3 233.46L220.55 233.46L220.55 35.37Z" fill="#F0F0F0" fill-opacity="1.000000" fill-rule="evenodd"/>
		<path id="Vector" d="M220.55 35.37L419.3 35.37L419.3 58.58L220.55 58.58L220.55 35.37Z" fill="#E0E0E0" fill-opacity="1.000000" fill-rule="evenodd"/>
		<path id="Vector" d="M237.48 46.74C237.44 47.58 237.16 48.4 236.66 49.08C236.17 49.77 235.48 50.29 234.69 50.59C233.9 50.89 233.04 50.95 232.22 50.76C231.4 50.57 230.65 50.15 230.06 49.54C229.48 48.93 229.09 48.16 228.93 47.33C228.78 46.5 228.88 45.64 229.21 44.87C229.54 44.09 230.09 43.43 230.8 42.96C231.5 42.5 232.33 42.25 233.17 42.25C234.34 42.27 235.44 42.76 236.25 43.6C237.06 44.45 237.5 45.57 237.48 46.74Z" fill="#FFFFFF" fill-opacity="1.000000" fill-rule="nonzero"/>
		<path id="Vector" d="M253.67 43.7C254.25 44.33 254.62 45.1 254.76 45.94C254.89 46.77 254.78 47.63 254.43 48.4C254.08 49.17 253.51 49.82 252.8 50.27C252.08 50.72 251.25 50.95 250.4 50.93C249.56 50.91 248.74 50.64 248.04 50.16C247.35 49.68 246.81 49 246.5 48.21C246.19 47.43 246.11 46.57 246.29 45.74C246.46 44.91 246.87 44.15 247.47 43.56C248.32 42.76 249.44 42.32 250.6 42.35C251.77 42.38 252.87 42.86 253.67 43.7Z" fill="#FFFFFF" fill-opacity="1.000000" fill-rule="nonzero"/>
		<path id="Vector" d="M272.39 46.74C272.35 47.58 272.07 48.4 271.58 49.08C271.08 49.77 270.4 50.29 269.61 50.59C268.82 50.89 267.96 50.95 267.13 50.76C266.31 50.57 265.56 50.15 264.97 49.54C264.39 48.93 264 48.16 263.85 47.33C263.69 46.5 263.79 45.64 264.12 44.87C264.45 44.09 265 43.43 265.71 42.96C266.41 42.5 267.24 42.25 268.08 42.25C269.25 42.27 270.36 42.76 271.17 43.6C271.97 44.45 272.41 45.57 272.39 46.74Z" fill="#FFFFFF" fill-opacity="1.000000" fill-rule="nonzero"/>
	</g>
	<g opacity="0.000000">
		<path id="Vector" d="M330.4 100.59C292.56 67.52 241.32 100.59 191.55 170.19C141.77 239.78 118.11 210.49 75.79 241.17C33.48 271.84 22.16 397.5 171.24 385.28C320.32 373.07 429.34 186.93 330.4 100.59Z" fill="#F0F0F0" fill-opacity="1.000000" fill-rule="nonzero"/>
	</g>
	<path id="Vector" d="M376.36 433.13C376.36 433.27 304.6 433.39 216.1 433.39C127.59 433.39 55.8 433.27 55.8 433.13C55.8 432.98 127.55 432.86 216.1 432.86C304.64 432.86 376.36 432.99 376.36 433.13Z" fill="#263238" fill-opacity="1.000000" fill-rule="nonzero"/>
	<path id="Vector" d="M306.44 306.6C290.47 295.45 286.85 274.75 287.48 256.13C287.58 253.03 287.24 249.75 288.72 247.03C290.2 244.31 293.65 242.44 296.43 243.74C298.74 244.83 299.74 247.51 301.03 249.74C302.75 252.7 305.28 255.11 308.32 256.69C310.29 257.73 312.74 258.35 314.69 257.27C317.38 255.79 317.69 252.1 317.67 249C317.67 243.24 317.64 237.48 317.57 231.72C317.38 228.63 317.7 225.53 318.5 222.54C319.46 219.61 321.6 216.89 324.52 216.06C327.45 215.24 331.1 216.94 331.76 219.96C331.87 221.24 331.9 222.52 331.85 223.81C331.93 225.1 332.53 226.51 333.74 226.91C334.95 227.3 336.21 226.4 337.14 225.49C340.33 222.39 342.5 218.35 344.51 214.36C346.53 210.37 348.5 206.27 351.39 202.87C354.29 199.47 358.29 196.77 362.76 196.51C367.24 196.25 371.9 199 373.02 203.34C374.13 207.68 371.6 212.12 368.88 215.64C364.78 220.87 359.95 225.48 354.53 229.34C353.47 229.91 352.62 230.81 352.12 231.91C351.45 233.98 353.4 236.04 355.44 236.69C357.74 237.46 360.24 237.22 362.67 237.51C365.1 237.8 367.68 238.85 368.6 241.13C369.86 244.29 367.22 247.6 364.62 249.77C359.41 254.11 353.5 257.52 347.14 259.87C344.86 260.69 342.48 261.43 340.64 263.02C338.8 264.61 337.7 267.39 338.81 269.57C339.91 271.75 342.75 272.44 345.14 272C347.53 271.55 349.65 270.27 351.92 269.42C356.17 267.81 361.65 268.1 364.32 271.77C365.15 273.04 365.68 274.47 365.86 275.98C366.04 277.48 365.87 279 365.36 280.42C364.32 283.26 362.73 285.85 360.68 288.06C353.91 296.15 345.11 302.29 335.19 305.87C325.34 309.28 316.21 310.21 306.43 306.62L306.44 306.6Z" fill="#4CAF4F" fill-opacity="1.000000" fill-rule="nonzero"/>
	<path id="Vector" d="M368.47 199.06C368.47 199.06 368.38 199.17 368.17 199.35L367.25 200.17C366.44 200.89 365.25 201.95 363.76 203.34C359.51 207.29 355.56 211.55 351.95 216.09C349.65 218.95 347.26 222.19 344.72 225.72C342.18 229.24 339.55 233.05 336.95 237.09C334.17 241.35 331.63 245.76 329.33 250.29C328.13 252.66 327.07 255.13 325.99 257.65L322.79 265.35C318.56 275.05 314.89 284.98 311.77 295.09C309.26 303.36 307.53 311.85 306.6 320.44C306 326.24 305.9 332.08 306.31 337.9C306.48 339.96 306.63 341.54 306.78 342.62C306.84 343.14 306.88 343.55 306.92 343.85L306.92 344.27C306.88 344.14 306.85 344 306.83 343.86C306.78 343.56 306.72 343.16 306.63 342.64C306.45 341.61 306.25 339.97 306.06 337.91C305.57 332.08 305.6 326.22 306.17 320.4C307.04 311.77 308.73 303.24 311.22 294.93C314.31 284.79 317.98 274.84 322.21 265.13L325.49 257.46C326.58 254.95 327.64 252.45 328.85 250.08C331.17 245.53 333.73 241.11 336.53 236.84C339.18 232.7 341.84 228.96 344.36 225.47C346.87 221.98 349.3 218.71 351.59 215.86C355.24 211.33 359.23 207.1 363.55 203.21C365.08 201.83 366.3 200.8 367.12 200.11L368.09 199.33C368.2 199.23 368.33 199.14 368.47 199.06Z" fill="#263238" fill-opacity="1.000000" fill-rule="nonzero"/>
	<path id="Vector" d="M328.99 250.06C328.84 249.63 328.74 249.19 328.69 248.74C328.52 247.89 328.34 246.68 328.12 245.11C327.68 242.01 327.22 237.76 326.73 233.06C326.25 228.35 325.7 224.1 325.25 221.03C325.01 219.5 324.8 218.27 324.66 217.41C324.54 216.97 324.49 216.52 324.48 216.06C324.66 216.48 324.79 216.91 324.86 217.36C325.09 218.2 325.35 219.42 325.64 220.96C326.23 224.06 326.81 228.28 327.29 232.99C327.78 237.71 328.19 241.84 328.51 245.06C328.67 246.5 328.8 247.73 328.9 248.71C328.99 249.16 329.01 249.61 328.99 250.06Z" fill="#263238" fill-opacity="1.000000" fill-rule="nonzero"/>
	<path id="Vector" d="M368.76 242.64C368.25 242.75 367.74 242.81 367.23 242.82C366.19 242.92 364.73 243.04 362.91 243.25C359.27 243.64 354.27 244.36 348.78 245.4C343.29 246.43 338.36 247.6 334.82 248.5C333.05 248.95 331.62 249.36 330.68 249.64C330.18 249.82 329.66 249.95 329.13 250.02C329.61 249.78 330.11 249.58 330.62 249.43C331.59 249.09 333 248.61 334.75 248.1C338.28 247.07 343.21 245.84 348.72 244.79C353.38 243.89 358.09 243.24 362.83 242.82C364.65 242.67 366.13 242.61 367.17 242.58C367.7 242.55 368.23 242.57 368.76 242.64Z" fill="#263238" fill-opacity="1.000000" fill-rule="nonzero"/>
	<path id="Vector" d="M311.73 294.21C311.62 294.06 311.53 293.9 311.46 293.72L310.78 292.29C310.19 291.04 309.39 289.19 308.44 286.92C306.52 282.38 304.07 276.01 301.46 268.94C298.86 261.87 296.46 255.5 294.64 250.9C293.75 248.67 293.02 246.84 292.47 245.48L291.89 244C291.81 243.83 291.76 243.65 291.73 243.46C291.84 243.61 291.93 243.78 292 243.95L292.68 245.39C293.26 246.64 294.06 248.49 295.01 250.75C296.94 255.3 299.39 261.66 301.99 268.73C304.6 275.8 306.99 282.17 308.81 286.77C309.7 289 310.44 290.83 310.97 292.19C311.21 292.78 311.41 293.23 311.56 293.67C311.64 293.84 311.7 294.02 311.73 294.21Z" fill="#263238" fill-opacity="1.000000" fill-rule="nonzero"/>
	<path id="Vector" d="M364.52 277.19C364.35 277.28 364.18 277.35 363.99 277.4L362.46 277.92L356.81 279.75C352.04 281.3 345.44 283.51 338.21 285.95C330.97 288.39 324.35 290.56 319.54 292.01C317.14 292.74 315.19 293.3 313.84 293.67L312.28 294.07C312.09 294.13 311.91 294.17 311.72 294.19C311.88 294.09 312.06 294.02 312.24 293.97L313.77 293.46L319.43 291.63C324.2 290.07 330.8 287.86 338.03 285.42C345.27 282.99 351.88 280.82 356.69 279.37C359.09 278.63 361.04 278.08 362.4 277.7L363.96 277.3C364.14 277.24 364.33 277.21 364.52 277.19Z" fill="#263238" fill-opacity="1.000000" fill-rule="nonzero"/>
	<path id="Vector" d="M342.98 26.48L337.66 28.39L335.37 21.43C331.18 8.6 317.8 1.79 305.52 6.12C293.23 10.45 286.69 24.52 290.88 37.35L293.17 44.3L287.82 46.21C285.78 47 284.13 48.55 283.2 50.53C282.27 52.51 282.15 54.77 282.84 56.84L297.65 102.1C297.96 103.12 298.47 104.08 299.15 104.9C299.84 105.73 300.68 106.4 301.63 106.9C302.58 107.39 303.62 107.69 304.69 107.77C305.75 107.85 306.83 107.72 307.84 107.38L363 87.65C365.07 86.86 366.74 85.3 367.68 83.3C368.62 81.3 368.75 79.01 368.03 76.92L353.21 31.66C352.9 30.64 352.38 29.69 351.69 28.87C351 28.05 350.15 27.38 349.2 26.9C348.24 26.42 347.2 26.13 346.13 26.06C345.06 25.99 343.99 26.13 342.98 26.48ZM300.94 33.72C299.81 30.38 300.01 26.74 301.5 23.55C303 20.36 305.67 17.88 308.96 16.61C310.58 16.06 312.3 15.84 314.01 15.96C315.72 16.08 317.39 16.55 318.92 17.33C320.44 18.11 321.8 19.2 322.9 20.51C324 21.83 324.82 23.35 325.32 25L327.59 31.95L303.21 40.67L300.94 33.72ZM331.94 73.88L335.73 85.44C335.8 85.67 335.77 85.92 335.66 86.13C335.55 86.35 335.37 86.51 335.14 86.59L329.84 88.49C329.62 88.54 329.4 88.52 329.21 88.41C329.01 88.31 328.87 88.14 328.8 87.93L324.99 76.42C322.89 76.31 320.87 75.56 319.2 74.26C317.54 72.97 316.31 71.2 315.69 69.19C314.79 66.53 314.95 63.63 316.14 61.09C317.34 58.55 319.46 56.57 322.08 55.57C323.38 55.13 324.75 54.95 326.11 55.05C327.47 55.15 328.8 55.52 330.02 56.14C331.23 56.76 332.31 57.63 333.19 58.67C334.06 59.72 334.72 60.94 335.12 62.24C335.78 64.29 335.84 66.48 335.27 68.55C334.71 70.62 333.56 72.49 331.95 73.91L331.94 73.88Z" fill="#4CAF4F" fill-opacity="1.000000" fill-rule="nonzero"/>
	<path id="Vector" d="M337.42 28.26C337.42 28.41 327.55 32.12 315.27 36.53C302.99 40.94 292.98 44.49 292.93 44.38C292.88 44.28 302.8 40.54 315.09 36.12C327.38 31.69 337.37 28.13 337.42 28.26Z" fill="#263238" fill-opacity="1.000000" fill-rule="nonzero"/>
	<path id="Vector" d="M349.14 30.16C349.19 30.25 349.23 30.35 349.26 30.44C349.34 30.65 349.43 30.92 349.55 31.25C349.82 32 350.2 33.05 350.66 34.35L354.63 45.9C356.28 50.8 358.26 56.61 360.45 63.06C361.48 66.3 362.7 69.67 363.84 73.21C364.45 75.04 364.71 76.96 364.61 78.88C364.53 79.88 364.24 80.86 363.78 81.75C363.28 82.63 362.62 83.42 361.82 84.05C360.23 85.22 358.45 86.12 356.57 86.73L351.25 88.64L341.17 92.25L324.11 98.32L312.59 102.38L309.49 103.41L308.66 103.68C308.57 103.72 308.48 103.74 308.38 103.75C308.38 103.75 308.46 103.75 308.64 103.63L309.44 103.31L312.54 102.14L324.01 97.92L341.04 91.72L351.09 88.08L356.42 86.16C358.25 85.58 359.97 84.7 361.51 83.57C362.25 82.98 362.87 82.25 363.33 81.43C363.77 80.6 364.03 79.7 364.11 78.77C364.2 76.92 363.95 75.06 363.36 73.3C362.25 69.79 361.07 66.39 360 63.15C357.85 56.69 355.87 50.87 354.3 45.97C352.73 41.07 351.4 37.13 350.5 34.36C350.06 33.01 349.73 31.95 349.46 31.19L349.21 30.36C349.18 30.3 349.16 30.23 349.14 30.16Z" fill="#263238" fill-opacity="1.000000" fill-rule="nonzero"/>
	<path id="Vector" d="M320.04 15.91C320.04 15.91 319.49 15.64 318.48 15.23C317.03 14.67 315.51 14.37 313.96 14.32C311.67 14.24 309.39 14.67 307.28 15.58C304.72 16.71 302.54 18.54 300.97 20.86C299.39 23.17 298.54 25.91 298.54 28.71C298.56 31 298.91 33.28 299.57 35.48C300.11 37.36 300.67 38.86 301.04 39.9C301.26 40.43 301.44 40.98 301.58 41.53C301.28 41.04 301.04 40.51 300.84 39.97C300.42 38.94 299.81 37.47 299.21 35.58C298.48 33.36 298.07 31.04 298.02 28.71C298 25.8 298.86 22.96 300.5 20.56C302.12 18.16 304.4 16.27 307.07 15.13C309.24 14.21 311.59 13.81 313.94 13.95C315.52 14.03 317.07 14.4 318.52 15.03C318.91 15.21 319.28 15.42 319.63 15.65C319.78 15.72 319.92 15.8 320.04 15.91Z" fill="#263238" fill-opacity="1.000000" fill-rule="nonzero"/>
	<path id="Vector" d="M320.51 56.35C320.68 56.25 320.85 56.17 321.03 56.09C321.55 55.86 322.08 55.67 322.63 55.53C323.5 55.27 324.4 55.12 325.31 55.07C326.54 55.01 327.78 55.19 328.94 55.62C331.58 56.55 334.01 59.25 335.21 62.85C335.78 64.79 335.78 66.85 335.21 68.79C334.57 70.89 333.43 72.8 331.88 74.36L331.94 74.08C333.32 77.85 334.82 81.94 336.37 86.21L336.46 86.47L336.2 86.56L333.83 87.35L328.67 89.07L328.41 89.16L328.33 88.9C326.91 84.62 325.36 80.63 324.19 76.71L324.42 76.89C322.4 76.72 320.47 75.96 318.88 74.71C317.44 73.6 316.26 72.19 315.42 70.57C314.66 69.14 314.28 67.54 314.32 65.92C314.37 64.27 314.78 62.65 315.53 61.17C316.28 59.69 317.35 58.4 318.65 57.39C319.19 56.95 319.79 56.6 320.44 56.35C319.86 56.7 319.29 57.08 318.75 57.48C317.31 58.69 316.21 60.26 315.55 62.02C314.99 63.34 314.72 64.78 314.78 66.22C314.83 67.67 315.21 69.08 315.87 70.36C316.7 71.91 317.85 73.26 319.25 74.33C320.77 75.52 322.61 76.24 324.53 76.39L324.71 76.39L324.76 76.55C325.9 80.39 327.46 84.41 328.89 88.71L328.55 88.55L333.72 86.82L336.08 86.03L335.91 86.38C334.37 82.11 332.88 78.01 331.52 74.23L331.52 74.08L331.64 73.95C333.15 72.46 334.27 70.63 334.91 68.61C335.46 66.76 335.46 64.79 334.91 62.94C333.78 59.46 331.46 56.83 328.94 55.9C327.82 55.47 326.63 55.27 325.43 55.31C324.54 55.33 323.65 55.45 322.79 55.67C321.25 56.05 320.52 56.4 320.51 56.35Z" fill="#263238" fill-opacity="1.000000" fill-rule="nonzero"/>
	<path id="Vector" d="M288.57 354.77L185.33 354.3C179.37 354.27 173.66 351.87 169.46 347.63C165.27 343.4 162.93 337.67 162.95 331.71L164.05 72.9C164.06 69.95 164.65 67.02 165.8 64.3C166.94 61.58 168.61 59.1 170.7 57.02C172.8 54.95 175.29 53.3 178.02 52.18C180.76 51.07 183.69 50.5 186.64 50.51L289.87 50.99C295.83 51.02 301.54 53.41 305.73 57.65C309.93 61.88 312.28 67.61 312.25 73.57L311.16 332.37C311.15 335.32 310.55 338.25 309.41 340.97C308.27 343.7 306.6 346.17 304.5 348.25C302.41 350.33 299.92 351.98 297.18 353.1C294.45 354.22 291.52 354.79 288.57 354.77Z" fill="#455A64" fill-opacity="1.000000" fill-rule="nonzero"/>
	<path id="Vector" d="M289.71 59.89L269.7 59.89C269.05 59.9 268.41 60.04 267.81 60.3C267.21 60.56 266.67 60.94 266.22 61.41C265.76 61.88 265.41 62.43 265.17 63.04C264.93 63.65 264.81 64.3 264.83 64.95L264.83 68.58C264.84 69.23 264.72 69.88 264.48 70.49C264.24 71.1 263.89 71.65 263.44 72.12C262.98 72.59 262.44 72.96 261.84 73.22C261.24 73.48 260.6 73.62 259.95 73.63L220.94 73.46C219.62 73.42 218.37 72.87 217.46 71.91C216.55 70.95 216.06 69.67 216.1 68.35L216.1 64.72C216.13 63.41 215.64 62.13 214.73 61.17C213.83 60.22 212.58 59.66 211.26 59.62L204.22 59.62L186.7 59.54C182.54 59.51 178.53 61.14 175.56 64.06C172.59 66.99 170.9 70.97 170.86 75.13L169.82 327.75C169.82 329.81 170.21 331.86 171 333.78C171.78 335.69 172.93 337.43 174.38 338.9C175.84 340.37 177.57 341.53 179.47 342.33C181.38 343.13 183.43 343.55 185.49 343.56L288.51 344.04C290.58 344.05 292.63 343.65 294.55 342.86C296.46 342.08 298.2 340.93 299.67 339.47C301.14 338.02 302.31 336.29 303.11 334.38C303.91 332.47 304.33 330.43 304.34 328.36L305.37 75.74C305.4 71.56 303.76 67.55 300.82 64.57C297.89 61.6 293.89 59.92 289.71 59.89Z" fill="#FFFFFF" fill-opacity="1.000000" fill-rule="nonzero"/>
	<path id="Vector" d="M275.85 310.33L199.25 310C198.45 310 197.81 309.13 197.82 308.08L197.91 288.04C197.91 287.01 198.56 286.12 199.35 286.12L275.96 286.47C276.4 286.54 276.79 286.79 277.06 287.15C277.32 287.51 277.44 287.96 277.38 288.4L277.31 308.42C277.31 309.49 276.65 310.34 275.85 310.33Z" fill="#4CAF4F" fill-opacity="1.000000" fill-rule="nonzero"/>
	<path id="SING UP" d="M221.62 300.01Q222.06 300.12 222.54 300.12Q223.24 300.12 223.72 299.91Q224.2 299.71 224.43 299.35Q224.54 299.19 224.59 299.01Q224.66 298.8 224.66 298.57Q224.66 298.08 224.42 297.78Q224.41 297.76 224.39 297.74Q224.28 297.62 224.16 297.52Q223.97 297.38 223.74 297.29Q223.35 297.14 222.73 296.98Q222.2 296.85 221.88 296.74Q221.57 296.63 221.36 296.42Q221.31 296.37 221.27 296.31Q221.16 296.13 221.16 295.87Q221.16 295.67 221.23 295.5Q221.33 295.29 221.53 295.13Q221.91 294.84 222.66 294.84Q223.05 294.84 223.46 294.96Q223.61 295.01 223.76 295.07Q224 295.17 224.22 295.31L224.43 294.83Q224.09 294.6 223.62 294.47Q223.42 294.41 223.21 294.37Q222.94 294.33 222.66 294.33Q221.96 294.33 221.49 294.54Q221.02 294.75 220.79 295.11Q220.69 295.26 220.64 295.42Q220.56 295.65 220.56 295.89Q220.56 296.39 220.81 296.7Q220.82 296.71 220.84 296.73Q220.98 296.89 221.15 297.01Q221.31 297.12 221.49 297.19Q221.87 297.34 222.52 297.5Q223.05 297.63 223.35 297.74Q223.65 297.85 223.86 298.06Q223.91 298.1 223.95 298.16Q224.07 298.34 224.07 298.6Q224.07 298.79 224 298.95Q223.91 299.17 223.69 299.33Q223.3 299.61 222.54 299.61Q222.29 299.61 222.04 299.57Q221.76 299.52 221.48 299.42Q220.97 299.23 220.66 298.92L220.43 299.38Q220.74 299.71 221.32 299.92Q221.47 299.97 221.62 300.01ZM239.62 297.22L239.05 297.22L239.05 299.14Q238.98 299.19 238.91 299.24Q238.34 299.58 237.56 299.58Q236.98 299.58 236.5 299.37Q236.41 299.33 236.31 299.28Q236 299.1 235.76 298.85Q235.58 298.66 235.44 298.43Q235.36 298.29 235.3 298.14Q235.13 297.72 235.13 297.22Q235.13 296.74 235.29 296.33Q235.35 296.17 235.44 296.02Q235.59 295.77 235.79 295.57Q236.02 295.34 236.32 295.17Q236.41 295.12 236.52 295.08Q237 294.87 237.57 294.87Q238.25 294.87 238.78 295.16Q239.05 295.31 239.28 295.53L239.66 295.15Q239.56 295.05 239.46 294.96Q239.15 294.69 238.74 294.54Q238.19 294.33 237.54 294.33Q236.77 294.33 236.14 294.63Q236.07 294.67 236 294.71Q235.63 294.91 235.35 295.19Q235.1 295.44 234.92 295.74Q234.82 295.92 234.74 296.11Q234.53 296.63 234.53 297.22Q234.53 297.83 234.75 298.35Q234.82 298.54 234.92 298.71Q235.1 299.01 235.34 299.25Q235.63 299.54 236 299.75Q236.09 299.8 236.18 299.84Q236.79 300.12 237.53 300.12Q238.1 300.12 238.61 299.96Q238.65 299.95 238.68 299.93Q239.22 299.75 239.62 299.4L239.62 297.22ZM226.57 294.38L225.97 294.38L225.97 300.07L226.57 300.07L226.57 294.38ZM233.18 300.07L233.18 294.38L232.59 294.38L232.59 299L228.92 294.38L228.43 294.38L228.43 300.07L229.03 300.07L229.03 295.45L232.69 300.07L233.18 300.07ZM244.23 299.67Q244.81 300.12 245.75 300.12Q246.68 300.12 247.27 299.67Q247.37 299.59 247.47 299.49Q247.48 299.48 247.49 299.47Q248.08 298.83 248.08 297.64L248.08 294.38L247.5 294.38L247.5 297.62Q247.5 298.61 247.05 299.1Q246.99 299.16 246.92 299.22Q246.48 299.58 245.75 299.58Q245.03 299.58 244.59 299.23Q244.52 299.17 244.45 299.1Q244.01 298.61 244.01 297.62L244.01 294.38L243.4 294.38L243.4 297.64Q243.4 298.83 244 299.46Q244.01 299.47 244.02 299.49Q244.12 299.59 244.23 299.67ZM253.73 294.9Q253.11 294.38 252.02 294.38L249.89 294.38L249.89 300.07L250.5 300.07L250.5 298.27L252.02 298.27Q253.11 298.27 253.73 297.76Q253.94 297.59 254.07 297.37Q254.35 296.94 254.35 296.33Q254.35 295.73 254.08 295.29Q253.94 295.07 253.73 294.9ZM253.3 297.38Q252.85 297.75 252.01 297.75L250.5 297.75L250.5 294.9L252.01 294.9Q252.85 294.9 253.3 295.27Q253.42 295.37 253.51 295.49Q253.75 295.82 253.75 296.33Q253.75 296.81 253.53 297.13Q253.43 297.27 253.3 297.38Z" fill="#E8E8E3" fill-opacity="1.000000" fill-rule="evenodd"/>
	<path id="Vector" d="M187.95 134.03L214.53 134.15L214.51 139.03L187.92 138.9L187.95 134.03Z" fill="#4CAF4F" fill-opacity="1.000000" fill-rule="evenodd"/>
	<g opacity="0.100000">
		<path id="Vector" d="M187.95 134.03L214.53 134.15L214.51 139.03L187.92 138.9L187.95 134.03Z" fill="#000000" fill-opacity="1.000000" fill-rule="evenodd"/>
	</g>
	<path id="Vector" d="M292.45 164.1C292.66 164.08 292.87 164.03 293.06 163.95C293.35 163.84 293.6 163.65 293.78 163.41C293.96 163.16 294.07 162.87 294.1 162.56C294.1 160.92 294.1 158.52 294.1 155.44C294.1 153.9 294.1 152.17 294.1 150.27C294.1 149.81 294.1 149.32 294.1 148.83C294.16 148.36 294.06 147.88 293.81 147.48C293.66 147.29 293.48 147.13 293.26 147.02C293.05 146.91 292.82 146.85 292.58 146.85L290.96 146.85L276.03 146.85L189.59 146.53C189.36 146.53 189.15 146.57 188.95 146.67C188.75 146.77 188.58 146.92 188.45 147.1C188.2 147.5 188.1 147.98 188.18 148.45C188.18 149.48 188.18 150.52 188.18 151.55C188.18 153.62 188.18 155.69 188.18 157.75C188.18 158.79 188.18 159.82 188.18 160.85C188.14 161.34 188.14 161.82 188.18 162.3C188.23 162.51 188.34 162.7 188.47 162.86C188.61 163.02 188.79 163.15 188.99 163.23C189.19 163.31 189.41 163.35 189.63 163.34L194.89 163.34L217.84 163.47L256.7 163.71L282.9 163.91L290.02 164L291.87 164C292.3 164 292.5 164 292.5 164L291.87 164L290.02 164L282.9 164L256.7 164L217.84 163.87L194.89 163.78L189.63 163.78C189.34 163.79 189.05 163.74 188.78 163.63C188.51 163.52 188.27 163.34 188.07 163.12C187.88 162.89 187.74 162.63 187.66 162.34C187.6 162.07 187.58 161.79 187.6 161.52L187.6 160.75C187.6 159.72 187.6 158.68 187.6 157.65C187.6 155.58 187.6 153.52 187.6 151.45C187.6 150.42 187.6 149.38 187.6 148.35C187.58 148.07 187.58 147.8 187.6 147.52C187.64 147.22 187.76 146.93 187.94 146.68C188.12 146.43 188.36 146.23 188.63 146.09C188.9 145.95 189.21 145.88 189.51 145.89L275.96 146.36L290.89 146.47L292.5 146.47C292.79 146.47 293.07 146.53 293.32 146.67C293.57 146.8 293.79 146.99 293.95 147.22C294.24 147.67 294.36 148.21 294.28 148.74C294.28 149.23 294.28 149.71 294.28 150.18C294.28 152.06 294.28 153.78 294.28 155.34C294.28 158.45 294.21 160.82 294.19 162.48C294.16 162.79 294.05 163.1 293.85 163.35C293.66 163.61 293.4 163.8 293.1 163.91C292.91 164.03 292.68 164.1 292.45 164.1Z" fill="#E0E0E0" fill-opacity="1.000000" fill-rule="nonzero"/>
	<path id="Vector" d="M195.93 151.72L244.55 151.72L244.55 156.28L195.93 156.28L195.93 151.72Z" fill="#4CAF4F" fill-opacity="1.000000" fill-rule="evenodd"/>
	<g opacity="0.200000">
		<path id="Vector" d="M195.93 151.72L244.55 151.72L244.55 156.28L195.93 156.28L195.93 151.72Z" fill="#FFFFFF" fill-opacity="1.000000" fill-rule="evenodd"/>
	</g>
	<path id="Vector" d="M187.77 178.53L214.35 178.65L214.33 183.53L187.74 183.41L187.77 178.53Z" fill="#4CAF4F" fill-opacity="1.000000" fill-rule="evenodd"/>
	<g opacity="0.100000">
		<path id="Vector" d="M187.77 178.53L214.35 178.65L214.33 183.53L187.74 183.41L187.77 178.53Z" fill="#000000" fill-opacity="1.000000" fill-rule="evenodd"/>
	</g>
	<path id="Vector" d="M291.78 208.6C291.99 208.58 292.2 208.54 292.4 208.49C292.69 208.4 292.96 208.24 293.18 208.04C293.4 207.84 293.58 207.59 293.7 207.31C293.87 206.89 293.93 206.44 293.89 206C293.89 205.5 293.89 204.96 293.89 204.37C293.89 203.17 293.89 201.8 293.89 200.23L293.89 193.67C293.94 193.19 293.83 192.71 293.59 192.3C293.33 191.88 292.93 191.57 292.46 191.43C291.95 191.33 291.42 191.31 290.9 191.34L276.03 191.34L189.89 191.02C189.42 191.02 188.97 191.19 188.63 191.5C188.28 191.8 188.05 192.23 187.99 192.69C187.99 193.67 187.99 194.75 187.99 195.79C187.99 197.85 187.99 199.92 187.99 201.99C187.99 203.02 187.99 204.06 187.99 205.09C187.96 205.57 187.98 206.06 188.06 206.54C188.19 206.95 188.45 207.32 188.81 207.57C189.19 207.81 189.64 207.93 190.09 207.9L191.53 207.9L194.52 207.9L217.39 208.01L256.11 208.25L282.22 208.46L289.32 208.54L282.22 208.54L256.11 208.54L217.37 208.5L194.49 208.42L190 208.42C189.44 208.45 188.89 208.3 188.42 207.99C187.95 207.67 187.6 207.19 187.45 206.64C187.35 206.11 187.33 205.58 187.36 205.05C187.36 204.01 187.36 202.98 187.36 201.95C187.36 199.88 187.36 197.81 187.36 195.75C187.36 194.71 187.36 193.68 187.36 192.64C187.44 192.05 187.73 191.51 188.17 191.12C188.62 190.72 189.2 190.51 189.79 190.51L275.94 190.98L290.81 191.09C291.36 191.06 291.92 191.1 292.46 191.21C293 191.38 293.45 191.75 293.73 192.24C294 192.7 294.12 193.23 294.06 193.75C294.06 194.24 294.06 194.71 294.06 195.19C294.06 197.06 294.06 198.77 294.06 200.36C294.06 201.94 294.06 203.27 294.06 204.49C294.06 205.08 294.06 205.63 294.06 206.13C294.1 206.59 294.03 207.06 293.85 207.49C293.71 207.77 293.52 208.02 293.28 208.23C293.04 208.43 292.76 208.58 292.45 208.66C292.23 208.68 292 208.66 291.78 208.6Z" fill="#E0E0E0" fill-opacity="1.000000" fill-rule="nonzero"/>
	<path id="Vector" d="M187.57 224.96L214.15 225.08L214.13 229.96L187.54 229.84L187.57 224.96Z" fill="#4CAF4F" fill-opacity="1.000000" fill-rule="evenodd"/>
	<g opacity="0.100000">
		<path id="Vector" d="M187.57 224.96L214.15 225.08L214.13 229.96L187.54 229.84L187.57 224.96Z" fill="#000000" fill-opacity="1.000000" fill-rule="evenodd"/>
	</g>
	<path id="Vector" d="M291.57 255.02C291.78 254.99 291.99 254.96 292.19 254.9C292.48 254.81 292.75 254.66 292.97 254.46C293.2 254.26 293.37 254.01 293.5 253.74C293.66 253.32 293.72 252.87 293.68 252.42C293.68 251.92 293.68 251.39 293.68 250.78C293.68 249.59 293.68 248.22 293.68 246.65L293.68 240.08C293.73 239.61 293.63 239.13 293.38 238.72C293.12 238.31 292.72 238 292.26 237.85C291.74 237.76 291.22 237.72 290.7 237.76L275.82 237.76L189.68 237.44C189.22 237.44 188.77 237.61 188.42 237.91C188.07 238.22 187.85 238.64 187.79 239.1C187.79 240.14 187.79 241.17 187.79 242.2C187.79 244.27 187.79 246.34 187.79 248.4C187.79 249.44 187.79 250.47 187.79 251.5C187.75 251.98 187.77 252.47 187.85 252.94C187.97 253.36 188.24 253.73 188.6 253.97C188.98 254.22 189.43 254.34 189.89 254.31L194.38 254.31L217.25 254.43L255.98 254.67L282.09 254.87L289.19 254.96L282.09 254.96L255.98 254.96L217.25 254.84L194.38 254.75L189.89 254.75C189.33 254.79 188.77 254.64 188.3 254.33C187.83 254 187.49 253.52 187.33 252.97C187.24 252.45 187.21 251.91 187.25 251.38C187.25 250.35 187.25 249.31 187.25 248.28C187.25 246.21 187.25 244.15 187.25 242.08C187.25 241.04 187.25 240.01 187.25 238.93C187.32 238.34 187.61 237.79 188.05 237.4C188.5 237.01 189.07 236.79 189.67 236.79L275.81 237.26L290.69 237.38C291.24 237.34 291.79 237.38 292.34 237.49C292.88 237.66 293.33 238.03 293.61 238.52C293.88 238.98 293.99 239.51 293.94 240.03C293.94 240.52 293.94 241 293.94 241.47C293.94 243.34 293.94 245.05 293.94 246.64C293.94 248.22 293.94 249.55 293.94 250.77C293.94 251.36 293.94 251.91 293.94 252.41C293.98 252.88 293.91 253.34 293.72 253.77C293.59 254.05 293.4 254.31 293.15 254.51C292.91 254.71 292.63 254.86 292.33 254.95C292.09 255.03 291.83 255.05 291.57 255.02Z" fill="#E0E0E0" fill-opacity="1.000000" fill-rule="nonzero"/>
	<path id="Vector" d="M194.89 197.29L243.51 197.51L243.49 202.07L194.87 201.85L194.89 197.29Z" fill="#4CAF4F" fill-opacity="1.000000" fill-rule="evenodd"/>
	<g opacity="0.200000">
		<path id="Vector" d="M194.89 197.29L243.51 197.51L243.49 202.07L194.87 201.85L194.89 197.29Z" fill="#FFFFFF" fill-opacity="1.000000" fill-rule="evenodd"/>
	</g>
	<path id="Vector" d="M199.29 246.58C199.26 247 199.11 247.4 198.85 247.73C198.6 248.06 198.25 248.31 197.86 248.44C197.47 248.58 197.04 248.59 196.64 248.49C196.23 248.39 195.87 248.17 195.59 247.86C195.31 247.55 195.13 247.16 195.06 246.75C195 246.34 195.06 245.92 195.23 245.54C195.41 245.16 195.69 244.84 196.04 244.62C196.4 244.4 196.81 244.29 197.22 244.3C197.8 244.33 198.34 244.59 198.73 245.02C199.11 245.45 199.32 246.01 199.29 246.58Z" fill="#4CAF4F" fill-opacity="1.000000" fill-rule="nonzero"/>
	<path id="Vector" d="M205.87 246.62C205.89 246.91 205.85 247.2 205.76 247.47C205.66 247.75 205.51 248 205.31 248.22C205.11 248.43 204.87 248.6 204.6 248.72C204.33 248.83 204.04 248.89 203.75 248.89C203.46 248.89 203.17 248.83 202.9 248.72C202.63 248.6 202.39 248.43 202.19 248.22C201.99 248 201.84 247.75 201.74 247.47C201.65 247.2 201.61 246.91 201.63 246.62C201.61 246.32 201.65 246.03 201.74 245.76C201.84 245.48 201.99 245.23 202.19 245.02C202.39 244.8 202.63 244.63 202.9 244.51C203.17 244.4 203.46 244.34 203.75 244.34C204.04 244.34 204.33 244.4 204.6 244.51C204.87 244.63 205.11 244.8 205.31 245.02C205.51 245.23 205.66 245.48 205.76 245.76C205.85 246.03 205.89 246.32 205.87 246.62Z" fill="#4CAF4F" fill-opacity="1.000000" fill-rule="nonzero"/>
	<path id="Vector" d="M212.47 246.65C212.44 247.06 212.29 247.46 212.03 247.79C211.78 248.12 211.43 248.37 211.04 248.5C210.64 248.64 210.22 248.66 209.81 248.55C209.41 248.45 209.05 248.23 208.77 247.92C208.49 247.61 208.3 247.23 208.24 246.81C208.18 246.4 208.24 245.98 208.41 245.6C208.58 245.22 208.87 244.9 209.22 244.68C209.57 244.46 209.98 244.35 210.4 244.36C210.98 244.4 211.51 244.66 211.9 245.08C212.29 245.51 212.49 246.07 212.47 246.65Z" fill="#4CAF4F" fill-opacity="1.000000" fill-rule="nonzero"/>
	<path id="Vector" d="M219.05 246.68C219.02 247.09 218.87 247.49 218.61 247.82C218.36 248.15 218.01 248.4 217.62 248.54C217.23 248.67 216.8 248.69 216.4 248.58C215.99 248.48 215.63 248.26 215.35 247.95C215.07 247.64 214.89 247.26 214.82 246.84C214.76 246.43 214.82 246.01 214.99 245.63C215.17 245.25 215.45 244.93 215.8 244.71C216.16 244.49 216.57 244.38 216.98 244.39C217.56 244.43 218.1 244.69 218.48 245.11C218.87 245.54 219.07 246.1 219.05 246.68Z" fill="#4CAF4F" fill-opacity="1.000000" fill-rule="nonzero"/>
	<path id="Vector" d="M225.64 246.7C225.61 247.11 225.46 247.51 225.2 247.85C224.95 248.18 224.6 248.43 224.21 248.56C223.82 248.7 223.39 248.72 222.99 248.62C222.58 248.51 222.22 248.29 221.94 247.98C221.65 247.68 221.47 247.29 221.41 246.88C221.34 246.47 221.4 246.04 221.58 245.67C221.75 245.29 222.03 244.97 222.39 244.75C222.74 244.53 223.15 244.41 223.57 244.42C224.14 244.46 224.68 244.72 225.06 245.14C225.45 245.57 225.65 246.12 225.64 246.7Z" fill="#4CAF4F" fill-opacity="1.000000" fill-rule="nonzero"/>
	<path id="Vector" d="M232.23 246.73C232.2 247.14 232.05 247.54 231.8 247.87C231.55 248.2 231.21 248.45 230.82 248.59C230.43 248.73 230 248.75 229.6 248.65C229.2 248.55 228.83 248.34 228.55 248.04C228.26 247.73 228.08 247.35 228.01 246.94C227.94 246.53 227.99 246.11 228.15 245.73C228.32 245.35 228.59 245.03 228.94 244.8C229.29 244.57 229.7 244.45 230.11 244.46C230.69 244.48 231.24 244.73 231.64 245.15C232.04 245.58 232.25 246.15 232.23 246.73Z" fill="#4CAF4F" fill-opacity="1.000000" fill-rule="nonzero"/>
	<path id="Vector" d="M238.81 246.76C238.83 247.05 238.79 247.34 238.7 247.62C238.6 247.89 238.44 248.15 238.25 248.36C238.05 248.57 237.81 248.74 237.54 248.86C237.27 248.98 236.98 249.04 236.69 249.04C236.4 249.04 236.11 248.98 235.84 248.86C235.57 248.74 235.33 248.57 235.13 248.36C234.93 248.15 234.78 247.89 234.68 247.62C234.58 247.34 234.54 247.05 234.56 246.76C234.54 246.47 234.58 246.18 234.68 245.9C234.78 245.63 234.93 245.37 235.13 245.16C235.33 244.95 235.57 244.78 235.84 244.66C236.11 244.54 236.4 244.48 236.69 244.48C236.98 244.48 237.27 244.54 237.54 244.66C237.81 244.78 238.05 244.95 238.25 245.16C238.44 245.37 238.6 245.63 238.7 245.9C238.79 246.18 238.83 246.47 238.81 246.76Z" fill="#4CAF4F" fill-opacity="1.000000" fill-rule="nonzero"/>
	<path id="Vector" d="M245.4 246.79C245.37 247.21 245.22 247.6 244.97 247.93C244.72 248.26 244.38 248.51 243.98 248.65C243.59 248.79 243.17 248.81 242.77 248.71C242.36 248.62 242 248.4 241.71 248.1C241.43 247.79 241.24 247.41 241.17 247.01C241.1 246.6 241.15 246.18 241.32 245.79C241.49 245.41 241.76 245.09 242.11 244.86C242.46 244.64 242.86 244.52 243.28 244.52C243.86 244.54 244.41 244.79 244.81 245.22C245.2 245.64 245.42 246.21 245.4 246.79Z" fill="#4CAF4F" fill-opacity="1.000000" fill-rule="nonzero"/>
	<path id="Vector" d="M251.98 246.82C251.95 247.24 251.8 247.64 251.55 247.97C251.29 248.3 250.95 248.55 250.55 248.69C250.16 248.82 249.74 248.84 249.33 248.74C248.93 248.64 248.56 248.42 248.28 248.11C248 247.8 247.82 247.42 247.75 247C247.69 246.59 247.75 246.17 247.92 245.79C248.09 245.41 248.38 245.09 248.73 244.87C249.08 244.65 249.5 244.54 249.91 244.55C250.49 244.58 251.02 244.84 251.41 245.27C251.79 245.69 252 246.25 251.98 246.82Z" fill="#4CAF4F" fill-opacity="1.000000" fill-rule="nonzero"/>
	<g opacity="0.200000">
		<path id="Vector" d="M199.29 246.58C199.26 247 199.11 247.4 198.85 247.73C198.6 248.06 198.25 248.31 197.86 248.44C197.47 248.58 197.04 248.59 196.64 248.49C196.23 248.39 195.87 248.17 195.59 247.86C195.31 247.55 195.13 247.16 195.06 246.75C195 246.34 195.06 245.92 195.23 245.54C195.41 245.16 195.69 244.84 196.04 244.62C196.4 244.4 196.81 244.29 197.22 244.3C197.8 244.33 198.34 244.59 198.73 245.02C199.11 245.45 199.32 246.01 199.29 246.58Z" fill="#FFFFFF" fill-opacity="1.000000" fill-rule="nonzero"/>
		<path id="Vector" d="M205.87 246.62C205.89 246.91 205.85 247.2 205.76 247.47C205.66 247.75 205.51 248 205.31 248.22C205.11 248.43 204.87 248.6 204.6 248.72C204.33 248.83 204.04 248.89 203.75 248.89C203.46 248.89 203.17 248.83 202.9 248.72C202.63 248.6 202.39 248.43 202.19 248.22C201.99 248 201.84 247.75 201.74 247.47C201.65 247.2 201.61 246.91 201.63 246.62C201.61 246.32 201.65 246.03 201.74 245.76C201.84 245.48 201.99 245.23 202.19 245.02C202.39 244.8 202.63 244.63 202.9 244.51C203.17 244.4 203.46 244.34 203.75 244.34C204.04 244.34 204.33 244.4 204.6 244.51C204.87 244.63 205.11 244.8 205.31 245.02C205.51 245.23 205.66 245.48 205.76 245.76C205.85 246.03 205.89 246.32 205.87 246.62Z" fill="#FFFFFF" fill-opacity="1.000000" fill-rule="nonzero"/>
		<path id="Vector" d="M212.47 246.65C212.44 247.06 212.29 247.46 212.03 247.79C211.78 248.12 211.43 248.37 211.04 248.5C210.64 248.64 210.22 248.66 209.81 248.55C209.41 248.45 209.05 248.23 208.77 247.92C208.49 247.61 208.3 247.23 208.24 246.81C208.18 246.4 208.24 245.98 208.41 245.6C208.58 245.22 208.87 244.9 209.22 244.68C209.57 244.46 209.98 244.35 210.4 244.36C210.98 244.4 211.51 244.66 211.9 245.08C212.29 245.51 212.49 246.07 212.47 246.65Z" fill="#FFFFFF" fill-opacity="1.000000" fill-rule="nonzero"/>
		<path id="Vector" d="M219.05 246.68C219.02 247.09 218.87 247.49 218.61 247.82C218.36 248.15 218.01 248.4 217.62 248.54C217.23 248.67 216.8 248.69 216.4 248.58C215.99 248.48 215.63 248.26 215.35 247.95C215.07 247.64 214.89 247.26 214.82 246.84C214.76 246.43 214.82 246.01 214.99 245.63C215.17 245.25 215.45 244.93 215.8 244.71C216.16 244.49 216.57 244.38 216.98 244.39C217.56 244.43 218.1 244.69 218.48 245.11C218.87 245.54 219.07 246.1 219.05 246.68Z" fill="#FFFFFF" fill-opacity="1.000000" fill-rule="nonzero"/>
		<path id="Vector" d="M225.64 246.7C225.61 247.11 225.46 247.51 225.2 247.85C224.95 248.18 224.6 248.43 224.21 248.56C223.82 248.7 223.39 248.72 222.99 248.62C222.58 248.51 222.22 248.29 221.94 247.98C221.65 247.68 221.47 247.29 221.41 246.88C221.34 246.47 221.4 246.04 221.58 245.67C221.75 245.29 222.03 244.97 222.39 244.75C222.74 244.53 223.15 244.41 223.57 244.42C224.14 244.46 224.68 244.72 225.06 245.14C225.45 245.57 225.65 246.12 225.64 246.7Z" fill="#FFFFFF" fill-opacity="1.000000" fill-rule="nonzero"/>
		<path id="Vector" d="M232.23 246.73C232.2 247.14 232.05 247.54 231.8 247.87C231.55 248.2 231.21 248.45 230.82 248.59C230.43 248.73 230 248.75 229.6 248.65C229.2 248.55 228.83 248.34 228.55 248.04C228.26 247.73 228.08 247.35 228.01 246.94C227.94 246.53 227.99 246.11 228.15 245.73C228.32 245.35 228.59 245.03 228.94 244.8C229.29 244.57 229.7 244.45 230.11 244.46C230.69 244.48 231.24 244.73 231.64 245.15C232.04 245.58 232.25 246.15 232.23 246.73Z" fill="#FFFFFF" fill-opacity="1.000000" fill-rule="nonzero"/>
		<path id="Vector" d="M238.81 246.76C238.83 247.05 238.79 247.34 238.7 247.62C238.6 247.89 238.44 248.15 238.25 248.36C238.05 248.57 237.81 248.74 237.54 248.86C237.27 248.98 236.98 249.04 236.69 249.04C236.4 249.04 236.11 248.98 235.84 248.86C235.57 248.74 235.33 248.57 235.13 248.36C234.93 248.15 234.78 247.89 234.68 247.62C234.58 247.34 234.54 247.05 234.56 246.76C234.54 246.47 234.58 246.18 234.68 245.9C234.78 245.63 234.93 245.37 235.13 245.16C235.33 244.95 235.57 244.78 235.84 244.66C236.11 244.54 236.4 244.48 236.69 244.48C236.98 244.48 237.27 244.54 237.54 244.66C237.81 244.78 238.05 244.95 238.25 245.16C238.44 245.37 238.6 245.63 238.7 245.9C238.79 246.18 238.83 246.47 238.81 246.76Z" fill="#FFFFFF" fill-opacity="1.000000" fill-rule="nonzero"/>
		<path id="Vector" d="M245.4 246.79C245.37 247.21 245.22 247.6 244.97 247.93C244.72 248.26 244.38 248.51 243.98 248.65C243.59 248.79 243.17 248.81 242.77 248.71C242.36 248.62 242 248.4 241.71 248.1C241.43 247.79 241.24 247.41 241.17 247.01C241.1 246.6 241.15 246.18 241.32 245.79C241.49 245.41 241.76 245.09 242.11 244.86C242.46 244.64 242.86 244.52 243.28 244.52C243.86 244.54 244.41 244.79 244.81 245.22C245.2 245.64 245.42 246.21 245.4 246.79Z" fill="#FFFFFF" fill-opacity="1.000000" fill-rule="nonzero"/>
		<path id="Vector" d="M251.98 246.82C251.95 247.24 251.8 247.64 251.55 247.97C251.29 248.3 250.95 248.55 250.55 248.69C250.16 248.82 249.74 248.84 249.33 248.74C248.93 248.64 248.56 248.42 248.28 248.11C248 247.8 247.82 247.42 247.75 247C247.69 246.59 247.75 246.17 247.92 245.79C248.09 245.41 248.38 245.09 248.73 244.87C249.08 244.65 249.5 244.54 249.91 244.55C250.49 244.58 251.02 244.84 251.41 245.27C251.79 245.69 252 246.25 251.98 246.82Z" fill="#FFFFFF" fill-opacity="1.000000" fill-rule="nonzero"/>
	</g>
	<path id="Vector" d="M242.63 97.62C243.34 97.31 243.95 96.79 244.38 96.13C244.8 95.47 245.02 94.7 245.01 93.91C245.04 93.4 244.96 92.89 244.79 92.41C244.61 91.93 244.34 91.5 243.99 91.13C243.63 90.75 243.21 90.46 242.74 90.26C242.27 90.06 241.77 89.95 241.26 89.95C240.75 89.95 240.24 90.06 239.77 90.26C239.3 90.46 238.88 90.75 238.53 91.13C238.18 91.5 237.9 91.93 237.73 92.41C237.55 92.89 237.47 93.4 237.5 93.91C237.48 94.7 237.7 95.48 238.13 96.15C238.56 96.82 239.17 97.34 239.9 97.66C234.11 98.53 234.37 104.82 234.37 104.82L248.05 104.88C248.05 104.88 248.37 98.48 242.63 97.62Z" fill="#4CAF4F" fill-opacity="1.000000" fill-rule="nonzero"/>
	<g opacity="0.100000">
		<path id="Vector" d="M242.63 97.62C243.34 97.31 243.95 96.79 244.38 96.13C244.8 95.47 245.02 94.7 245.01 93.91C245.04 93.4 244.96 92.89 244.79 92.41C244.61 91.93 244.34 91.5 243.99 91.13C243.63 90.75 243.21 90.46 242.74 90.26C242.27 90.06 241.77 89.95 241.26 89.95C240.75 89.95 240.24 90.06 239.77 90.26C239.3 90.46 238.88 90.75 238.53 91.13C238.18 91.5 237.9 91.93 237.73 92.41C237.55 92.89 237.47 93.4 237.5 93.91C237.48 94.7 237.7 95.48 238.13 96.15C238.56 96.82 239.17 97.34 239.9 97.66C234.11 98.53 234.37 104.82 234.37 104.82L248.05 104.88C248.05 104.88 248.37 98.48 242.63 97.62Z" fill="#000000" fill-opacity="1.000000" fill-rule="nonzero"/>
	</g>
	<path id="Vector" d="M216.09 108.71L264.86 108.93L264.84 114.76L216.06 114.54L216.09 108.71Z" fill="#4CAF4F" fill-opacity="1.000000" fill-rule="evenodd"/>
	<g opacity="0.200000">
		<path id="Vector" d="M216.09 108.71L264.86 108.93L264.84 114.76L216.06 114.54L216.09 108.71Z" fill="#FFFFFF" fill-opacity="1.000000" fill-rule="evenodd"/>
	</g>
	<path id="Vector" d="M85.56 139.14L85.07 139.14L83.67 139.24C82.91 139.29 82.15 139.39 81.41 139.54C80.92 139.61 80.44 139.7 79.97 139.82L78.37 140.27C75.64 141.1 73.07 142.38 70.75 144.04C67.69 146.26 65.13 149.11 63.25 152.39C62.14 154.28 61.26 156.3 60.62 158.39C59.95 160.67 59.57 163.03 59.47 165.4C59.41 166.65 59.43 167.9 59.54 169.14C59.54 169.77 59.71 170.4 59.79 171.04C59.86 171.69 59.99 172.33 60.16 172.96C61.09 177.1 62.97 180.98 65.66 184.27C68.36 187.55 71.78 190.17 75.66 191.9C78.47 193.11 81.48 193.79 84.54 193.9C87.7 194.07 90.86 193.62 93.84 192.56L94.75 192.22L94.87 192.22L94.98 192.28L108.01 198.9L107.63 199.23C106.23 194.91 104.89 190.72 103.59 186.7L103.59 186.55L103.7 186.43C106.86 183.25 109.21 179.35 110.54 175.06C111.75 171.15 112.1 167.02 111.58 162.95C111.11 159.34 109.95 155.85 108.15 152.68C106.61 149.95 104.62 147.51 102.26 145.44C100.32 143.81 98.17 142.44 95.86 141.37C94.12 140.62 92.31 140.05 90.45 139.67L88.38 139.33L86.88 139.21L85.97 139.15L85.66 139.15C85.77 139.14 85.87 139.14 85.97 139.15L86.89 139.15L88.39 139.21L90.46 139.51C92.34 139.87 94.18 140.42 95.95 141.15C98.29 142.21 100.48 143.58 102.46 145.22C104.86 147.27 106.89 149.72 108.47 152.45C110.32 155.66 111.51 159.19 112 162.86C112.57 166.99 112.24 171.19 111.04 175.18C109.7 179.55 107.31 183.53 104.09 186.78L104.15 186.52C105.46 190.54 106.81 194.72 108.22 199.03L108.41 199.66L107.82 199.36L94.79 192.76L95.02 192.76L94.09 193.1C91.05 194.17 87.83 194.63 84.61 194.46C81.49 194.34 78.41 193.64 75.55 192.4C70.08 190.06 65.53 185.99 62.6 180.81C61.25 178.42 60.26 175.84 59.67 173.16C59.51 172.52 59.39 171.87 59.31 171.21C59.23 170.56 59.09 169.92 59.06 169.28C58.78 165.6 59.17 161.9 60.21 158.36C60.86 156.24 61.77 154.2 62.91 152.28C64.83 148.97 67.44 146.11 70.56 143.88C72.92 142.22 75.54 140.95 78.31 140.14L79.93 139.73C80.41 139.62 80.89 139.53 81.37 139.47C82.13 139.33 82.89 139.25 83.66 139.22L85.07 139.17C85.24 139.15 85.4 139.14 85.56 139.14Z" fill="#4CAF4F" fill-opacity="1.000000" fill-rule="nonzero"/>
	<path id="Vector" d="M91.45 163.24L89.54 163.24L85.41 157.43L85.41 153.62C85.41 153.62 82.45 153.43 82.8 158.42C83.15 163.42 82.8 162.14 82.8 162.14C82.8 162.14 76.53 162.14 76.01 162.71C75.49 163.28 75.46 169.34 75.39 172.72C75.35 173.53 75.58 174.34 76.05 175C76.52 175.67 77.2 176.16 77.98 176.4C78.2 176.46 78.43 176.49 78.66 176.49C80.23 176.49 88.22 175.22 88.22 175.22L91.51 175.22L91.45 163.24Z" fill="#4CAF4F" fill-opacity="1.000000" fill-rule="nonzero"/>
	<path id="Vector" d="M96.92 162.22L95.74 175.28L92.48 175.28L92.48 162.49L96.92 162.22Z" fill="#4CAF4F" fill-opacity="1.000000" fill-rule="nonzero"/>
	<path id="Vector" d="M135.87 428.18L135.87 419.34L120.03 419.22L119.89 432.59L120.88 432.66C125.25 432.94 143.12 433.35 146.05 432.44C149.32 431.43 135.87 428.18 135.87 428.18Z" fill="#4CAF4F" fill-opacity="1.000000" fill-rule="nonzero"/>
	<path id="Vector" d="M146.42 431.62C146.42 431.76 140.49 431.89 133.19 431.89C125.88 431.89 119.95 431.76 119.95 431.62C119.95 431.47 125.88 431.35 133.19 431.35C140.49 431.35 146.42 431.47 146.42 431.62Z" fill="#263238" fill-opacity="1.000000" fill-rule="nonzero"/>
	<path id="Vector" d="M136.15 429.98C136.02 429.91 136.15 429.45 136.47 428.95C136.79 428.45 137.23 428.25 137.33 428.35C137.43 428.45 137.22 428.85 136.91 429.27C136.6 429.69 136.29 430.06 136.15 429.98Z" fill="#263238" fill-opacity="1.000000" fill-rule="nonzero"/>
	<path id="Vector" d="M137.17 430.56C137.02 430.56 137.09 429.98 137.4 429.44C137.71 428.89 138.13 428.56 138.24 428.64C138.35 428.72 138.17 429.19 137.88 429.67C137.59 430.16 137.3 430.61 137.17 430.56Z" fill="#263238" fill-opacity="1.000000" fill-rule="nonzero"/>
	<path id="Vector" d="M124.72 431.58C124.66 431.58 124.42 431.39 124.08 431C123.66 430.49 123.2 430.03 122.7 429.61C122.2 429.22 121.61 428.95 120.98 428.86C120.49 428.8 120.18 428.86 120.15 428.8C120.12 428.73 120.42 428.52 120.99 428.47C121.74 428.46 122.47 428.71 123.06 429.18C123.61 429.62 124.07 430.17 124.42 430.78C124.66 431.23 124.78 431.53 124.72 431.58Z" fill="#263238" fill-opacity="1.000000" fill-rule="nonzero"/>
	<path id="Vector" d="M136.2 428.32C136.28 428.44 136.01 428.75 135.55 428.92C135.1 429.08 134.69 429.02 134.67 428.92C134.65 428.82 134.97 428.6 135.37 428.45C135.76 428.31 136.12 428.2 136.2 428.32Z" fill="#263238" fill-opacity="1.000000" fill-rule="nonzero"/>
	<path id="Vector" d="M135.96 427.46C135.96 427.62 135.54 427.74 135 427.75C134.47 427.76 134.04 427.64 134.05 427.49C134.06 427.35 134.49 427.21 135 427.2C135.52 427.19 135.94 427.32 135.96 427.46Z" fill="#263238" fill-opacity="1.000000" fill-rule="nonzero"/>
	<path id="Vector" d="M174.89 428.18L174.89 419.34L159.04 419.22L158.91 432.45L159.89 432.53C164.26 432.81 182.14 433.35 185.07 432.44C188.34 431.43 174.89 428.18 174.89 428.18Z" fill="#4CAF4F" fill-opacity="1.000000" fill-rule="nonzero"/>
	<path id="Vector" d="M185.44 431.64C185.44 431.78 179.52 431.91 172.2 431.91C164.88 431.91 158.97 431.78 158.97 431.64C158.97 431.49 164.89 431.37 172.2 431.37C179.51 431.37 185.44 431.49 185.44 431.64Z" fill="#263238" fill-opacity="1.000000" fill-rule="nonzero"/>
	<path id="Vector" d="M175.17 429.98C175.04 429.91 175.17 429.45 175.49 428.95C175.81 428.45 176.24 428.25 176.35 428.35C176.45 428.45 176.23 428.85 175.92 429.27C175.61 429.69 175.3 430.06 175.17 429.98Z" fill="#263238" fill-opacity="1.000000" fill-rule="nonzero"/>
	<path id="Vector" d="M176.18 430.56C176.05 430.56 176.11 429.98 176.43 429.44C176.75 428.89 177.15 428.56 177.27 428.64C177.38 428.72 177.18 429.19 176.89 429.67C176.6 430.16 176.33 430.61 176.18 430.56Z" fill="#263238" fill-opacity="1.000000" fill-rule="nonzero"/>
	<path id="Vector" d="M163.74 431.58C163.67 431.58 163.45 431.39 163.1 431C162.68 430.49 162.22 430.03 161.71 429.61C161.21 429.22 160.62 428.95 160 428.86C159.52 428.8 159.2 428.86 159.17 428.8C159.14 428.73 159.44 428.52 160.01 428.47C160.76 428.46 161.49 428.71 162.07 429.18C162.62 429.62 163.09 430.16 163.44 430.78C163.67 431.23 163.8 431.53 163.74 431.58Z" fill="#263238" fill-opacity="1.000000" fill-rule="nonzero"/>
	<path id="Vector" d="M175.22 428.32C175.29 428.44 175.02 428.75 174.57 428.92C174.11 429.08 173.71 429.02 173.69 428.92C173.67 428.82 173.99 428.6 174.38 428.45C174.78 428.31 175.14 428.2 175.22 428.32Z" fill="#263238" fill-opacity="1.000000" fill-rule="nonzero"/>
	<path id="Vector" d="M174.99 427.46C174.99 427.62 174.58 427.74 174.04 427.75C173.5 427.76 173.09 427.64 173.1 427.49C173.11 427.35 173.52 427.21 174.04 427.2C174.56 427.19 174.99 427.32 174.99 427.46Z" fill="#263238" fill-opacity="1.000000" fill-rule="nonzero"/>
	<path id="Vector" d="M233.26 165.76C232.85 165.34 231.83 165.55 231.83 165.55C231.93 164.95 231.93 164.34 231.83 163.75C231.64 163.17 230.34 163.28 230.34 163.28C230.28 162.8 230.28 162.3 230.34 161.81C230.35 161.71 230.32 161.6 230.27 161.5C230.22 161.41 230.14 161.33 230.04 161.29C229.42 161.04 228.76 160.92 228.09 160.94C227.3 160.37 230.52 155.85 231.72 154.4C232.92 152.96 232.7 151.83 231.64 151.83C230.91 151.83 227.14 156.17 225.99 157.63C224.83 159.09 221.76 163.14 221.66 159.9C221.55 156.67 220.25 154.23 219.43 153.82C218.62 153.4 217.75 154.37 218.19 155.27C218.58 156.29 218.83 157.37 218.92 158.46C219.03 159.32 218.99 160.21 218.8 161.06C218.46 162.65 217.99 164.21 217.41 165.73L217.33 165.73C217.33 165.73 194.77 187.36 193.14 188.9C191.68 190.29 162.37 187.26 156.49 186.64C154.49 186.35 152.48 186.21 150.46 186.23C147.9 186.34 147.45 186.7 144.91 186.73C138.49 186.8 132.08 187.37 125.74 188.42C122.88 188.91 120.2 190.17 118 192.08C115.8 193.98 114.17 196.46 113.28 199.23C107.36 217.73 93.94 261.52 91.58 286.12C89.79 289.36 88.17 292.7 86.74 296.11C85.07 300.64 85.48 300.79 86.04 300.9C87.55 301.18 89.26 293.05 89.9 295.01C90.54 296.98 86.65 304.7 88.23 304.93C90.29 305.22 91.94 296.66 92.13 295.98C92.33 295.29 93.35 295.51 93.17 296.15C92.87 297.06 89.96 306.7 91.99 307.01C93.11 307.18 93.23 305.14 93.23 305.14C93.23 305.14 95.3 295.91 96.24 296.1C97.18 296.29 96.17 301.73 95.7 303.55C95.22 305.37 95.89 306.29 96.86 305.85C97.52 305.54 99.1 300.01 99.53 298.21C99.97 296.41 101.05 291.43 102.51 294.31C103.97 297.2 106.18 298.87 107.09 298.91C107.29 298.89 107.49 298.8 107.64 298.67C107.8 298.54 107.91 298.36 107.97 298.16C108.02 297.96 108.02 297.75 107.95 297.55C107.88 297.36 107.76 297.19 107.6 297.06C106.81 296.3 106.14 295.43 105.6 294.48C105.12 293.74 104.77 292.92 104.57 292.06C104.15 290.35 103.91 288.59 103.84 286.83L103.68 285.8C105.99 274.33 112.66 240.69 122.28 219.21L126.23 227.33L127.95 233.35L117.42 259.32L162.3 258.73L155.6 232.95L163.74 206.08C172.53 206.28 195.11 206.61 198.88 204.9C203.61 202.84 228.09 171.91 228.09 171.91C229.69 170.67 231.22 169.35 232.67 167.94C232.67 167.94 234.16 166.69 233.26 165.76Z" fill="#FFBE9D" fill-opacity="1.000000" fill-rule="nonzero"/>
	<path id="Vector" d="M115.45 240.13C116.75 235.68 123.44 213.71 123.44 213.71C123.44 213.71 126.73 231.62 125.86 233.78C125.06 235.63 124.12 237.41 123.04 239.11C115.45 250.66 116.44 256.43 116.44 256.43L162.28 255.04C162.38 248.63 158.59 233.73 157.8 231.35C157.02 228.97 159.63 221.19 159.63 221.19C159.63 221.19 164.8 215.93 164.62 213.22C164.52 210.79 164.22 208.37 163.72 205.99L191.62 207.02L190.74 188.11L150.66 184.1C149.27 188.04 136.65 186.1 136.65 186.1C123.03 186.56 122.18 189.06 116.52 193.46C110.85 197.86 101.48 235.65 101.48 235.65L115.45 240.13Z" fill="#4CAF4F" fill-opacity="1.000000" fill-rule="nonzero"/>
	<path id="Vector" d="M142.55 235.65C141.75 235.79 140.95 235.83 140.14 235.77C138.64 235.77 136.59 235.67 134.32 235.44C132.06 235.22 130.01 234.9 128.56 234.61C127.75 234.5 126.96 234.3 126.21 234.01C127.02 234.01 127.82 234.08 128.62 234.23C130.09 234.42 132.12 234.68 134.37 234.91C136.63 235.13 138.67 235.29 140.15 235.39C140.96 235.4 141.76 235.49 142.55 235.65Z" fill="#263238" fill-opacity="1.000000" fill-rule="nonzero"/>
	<path id="Vector" d="M145.69 231.75C144.9 232.14 144.06 232.43 143.19 232.61C139.07 233.69 134.81 234.2 130.55 234.11C129.67 234.14 128.79 234.06 127.93 233.86C128.8 233.75 129.67 233.71 130.55 233.73C132.17 233.68 134.41 233.56 136.87 233.27C139.33 232.98 141.52 232.57 143.07 232.24C143.93 232.01 144.81 231.85 145.69 231.75Z" fill="#263238" fill-opacity="1.000000" fill-rule="nonzero"/>
	<path id="Vector" d="M161.11 214.37C161.09 215.16 160.98 215.94 160.79 216.71C160.52 218.14 160.11 220.11 159.58 222.26C159.06 224.41 158.55 226.39 158.09 227.73C157.91 228.5 157.64 229.25 157.29 229.96C157.35 229.17 157.49 228.39 157.72 227.64C158.11 226.03 158.56 224.17 159.06 222.13C159.55 220.1 160.03 218.23 160.42 216.62C160.56 215.85 160.79 215.09 161.11 214.37Z" fill="#263238" fill-opacity="1.000000" fill-rule="nonzero"/>
	<path id="Vector" d="M115.94 237.49C113.55 237.12 111.19 236.57 108.88 235.85C106.52 235.29 104.2 234.57 101.95 233.68C104.34 234.05 106.7 234.6 109.01 235.32C111.37 235.87 113.69 236.59 115.94 237.49Z" fill="#263238" fill-opacity="1.000000" fill-rule="nonzero"/>
	<path id="Vector" d="M164.21 205.76C163.82 205.83 163.42 205.83 163.03 205.76C161.95 205.65 160.89 205.4 159.88 205.01C158.19 204.37 156.65 203.39 155.36 202.12C154.07 200.86 153.07 199.34 152.4 197.66C151.66 195.81 151.35 193.82 151.48 191.84C151.53 190.2 152.01 188.61 152.89 187.23C153.51 186.3 154.44 185.62 155.51 185.3C155.8 185.22 156.09 185.18 156.39 185.18C156.6 185.18 156.7 185.18 156.7 185.18C156.7 185.18 156.26 185.18 155.57 185.46C154.59 185.82 153.76 186.5 153.21 187.39C151.8 189.61 151.41 193.65 152.91 197.42C153.6 199.2 154.7 200.8 156.1 202.09C157.25 203.15 158.58 204 160.02 204.61C161.37 205.15 162.78 205.53 164.21 205.76Z" fill="#263238" fill-opacity="1.000000" fill-rule="nonzero"/>
	<path id="Vector" d="M188.3 206.65C188.05 203.48 187.96 200.3 188.06 197.12C187.97 193.94 188.07 190.77 188.35 187.6C188.6 190.77 188.69 193.94 188.59 197.12C188.68 200.3 188.58 203.48 188.3 206.65Z" fill="#263238" fill-opacity="1.000000" fill-rule="nonzero"/>
	<path id="Vector" d="M150.39 185.26C150.51 182.95 150.75 180.35 150.75 180.35C150.75 180.35 156.45 179.72 156.79 173.82C157.13 167.93 156.79 154.34 156.79 154.34L146.46 149.05L134.98 158.07L136.75 187.53L147.27 188.2C148.08 188.22 148.86 187.93 149.44 187.37C150.03 186.82 150.37 186.06 150.39 185.26Z" fill="#FFBE9D" fill-opacity="1.000000" fill-rule="nonzero"/>
	<path id="Vector" d="M151.42 169.16C151.42 169.16 151.42 169.28 151.32 169.41C151.25 169.51 151.15 169.59 151.03 169.64C150.92 169.69 150.8 169.71 150.67 169.7C150.01 169.7 149.37 168.94 149.14 168.05C149.03 167.62 149.03 167.17 149.14 166.73C149.16 166.55 149.23 166.37 149.34 166.21C149.45 166.06 149.59 165.93 149.76 165.85C149.9 165.79 150.06 165.79 150.2 165.85C150.3 165.9 150.38 165.98 150.44 166.08C150.51 166.26 150.44 166.37 150.44 166.36C150.44 166.35 150.44 166.26 150.33 166.16C150.28 166.08 150.2 166.03 150.11 166.01C150.02 165.99 149.92 166.01 149.85 166.05C149.72 166.13 149.61 166.24 149.54 166.36C149.47 166.49 149.42 166.64 149.42 166.79C149.34 167.17 149.34 167.57 149.42 167.95C149.63 168.76 150.19 169.41 150.68 169.47C150.78 169.49 150.88 169.48 150.97 169.45C151.07 169.43 151.16 169.38 151.23 169.32C151.36 169.24 151.4 169.15 151.42 169.16Z" fill="#EB996E" fill-opacity="1.000000" fill-rule="nonzero"/>
	<path id="Vector" d="M160.34 151.16C159.54 148.45 156.66 147.11 154.03 146.36C150.03 145.23 145.71 144.73 141.81 146.17C137.9 147.6 133.21 150.13 133.21 154.44C130.9 154.25 129.58 156.26 128.67 158.77C128.09 160.29 127.74 161.89 127.64 163.52C127.35 169.16 125.77 176.96 122.11 181.09C120.04 183.39 117.18 184.99 116 187.86C114.97 190.35 115.5 193.31 114.54 195.83C113.68 198.05 111.79 199.63 110.41 201.56C109 203.76 108.17 206.27 107.99 208.87C107.82 211.48 108.31 214.08 109.43 216.44C110.54 218.74 112.12 220.78 114.05 222.45C115.99 224.12 118.24 225.38 120.68 226.15C125.51 227.62 130.66 227.67 135.51 226.3C139.16 225.43 142.55 223.74 145.45 221.37C148.42 218.94 150.46 215.57 151.22 211.82C151.95 207.6 150.78 203.31 149.9 199.11C147.15 185.85 147.93 185.16 151.41 172.85C151.49 172.64 151.53 172.41 151.59 172.19C151.66 171.97 151.69 171.87 151.73 171.71C151.83 171.22 151.88 170.72 151.88 170.23C151.38 170.42 150.82 170.46 150.3 170.34C149.77 170.23 149.28 169.97 148.89 169.59C148.51 169.18 148.24 168.68 148.12 168.13C147.99 167.59 148.02 167.02 148.19 166.49C148.44 165.9 148.8 165.38 149.26 164.95C149.72 164.51 150.26 164.18 150.86 163.97C152.01 163.5 153.24 163.25 154.36 162.72C156.75 161.59 158.4 159.23 159.53 156.76C160.46 155.05 160.74 153.06 160.34 151.16Z" fill="#263238" fill-opacity="1.000000" fill-rule="nonzero"/>
	<path id="Vector" d="M151.83 169.44C152.05 169.76 152.23 170.11 152.37 170.48C152.68 171.13 153.09 172.05 153.55 173.11L153.63 173.31L153.41 173.31L152.38 173.4C151.67 173.4 151.07 173.54 150.36 173.52C150.3 173.51 150.25 173.48 150.2 173.44C150.15 173.4 150.12 173.35 150.09 173.29C150.06 173.19 150.06 173.09 150.09 173C150.12 172.86 150.15 172.72 150.19 172.58L150.37 171.85C150.47 171.36 150.61 170.88 150.81 170.42C150.79 170.92 150.72 171.42 150.59 171.9L150.45 172.64C150.39 172.88 150.3 173.27 150.45 173.24C150.96 173.24 151.7 173.12 152.38 173.08L153.41 172.99L153.28 173.21C152.83 172.18 152.46 171.21 152.24 170.54C152.05 170.19 151.91 169.83 151.83 169.44Z" fill="#4CAF4F" fill-opacity="1.000000" fill-rule="nonzero"/>
	<path id="Vector" d="M116.44 256.43L162.28 255.04L182.23 332.9L178.56 422.22L154.32 422.22L157.29 334.81L139.56 280.6L142.29 425.68L117.8 426.05L115.22 289.67C115.11 285.88 113.87 277.33 114.33 273.57L116.44 256.43Z" fill="#263238" fill-opacity="1.000000" fill-rule="nonzero"/>
	<path id="Vector" d="M145.66 281.7C144.91 281.75 144.16 281.71 143.42 281.57C142.03 281.4 140.14 281.11 138.06 280.7C135.99 280.29 134.13 279.81 132.78 279.43C132.06 279.27 131.37 279.02 130.72 278.69C130.72 278.53 134.09 279.34 138.22 280.17C142.35 281.01 145.68 281.55 145.66 281.7Z" fill="#455A64" fill-opacity="1.000000" fill-rule="nonzero"/>
	<path id="Vector" d="M178.31 417.32C178.31 417.47 172.82 417.59 166.05 417.59C159.28 417.59 153.78 417.47 153.78 417.32C153.78 417.18 159.27 417.05 166.05 417.05C172.83 417.05 178.31 417.17 178.31 417.32Z" fill="#455A64" fill-opacity="1.000000" fill-rule="nonzero"/>
	<path id="Vector" d="M142.07 421.91C142.07 422.07 136.74 422.18 130.17 422.18C123.59 422.18 118.27 422.07 118.27 421.91C118.27 421.76 123.61 421.64 130.17 421.64C136.73 421.64 142.07 421.77 142.07 421.91Z" fill="#455A64" fill-opacity="1.000000" fill-rule="nonzero"/>
	<path id="Vector" d="M138.91 421.54C138.77 421.54 138.13 389.84 137.48 350.74C136.82 311.65 136.44 279.93 136.58 279.93C136.71 279.93 137.37 311.61 138.01 350.73C138.65 389.85 139.07 421.54 138.91 421.54Z" fill="#455A64" fill-opacity="1.000000" fill-rule="nonzero"/>
	<path id="Vector" d="M175.05 417.32C175.04 417.18 175.04 417.04 175.05 416.9L175.05 415.66C175.05 414.54 175.14 412.94 175.2 410.9C175.34 406.77 175.55 400.77 175.81 393.41C176.37 378.61 177.15 358.21 178.01 335.68C178.01 335.47 178.01 335.26 178.01 335.07L178.01 335.15C172.58 313.44 167.67 293.74 164.11 279.49L159.98 262.64C159.5 260.66 159.14 259.12 158.88 258.05C158.75 257.54 158.67 257.15 158.6 256.85C158.56 256.71 158.53 256.57 158.53 256.43C158.58 256.56 158.62 256.7 158.65 256.84C158.73 257.13 158.84 257.52 158.98 258.01C159.26 259.05 159.66 260.62 160.18 262.58C161.22 266.57 162.67 272.32 164.49 279.4C168.09 293.64 173.05 313.29 178.55 335.02L178.55 335.1C178.55 335.28 178.55 335.5 178.55 335.71C177.63 358.23 176.79 378.62 176.18 393.42C175.86 400.79 175.59 406.75 175.41 410.9C175.3 412.97 175.22 414.54 175.17 415.66C175.17 416.19 175.11 416.6 175.1 416.9C175.1 417.04 175.08 417.18 175.05 417.32Z" fill="#455A64" fill-opacity="1.000000" fill-rule="nonzero"/>
	<path id="Vector" d="M167.15 333.26C165.41 333.83 163.61 334.23 161.79 334.44C159.56 334.83 157.66 335.1 156.8 335.14L156.8 334.93C157.08 335.01 157.23 335.06 157.23 335.11C157.23 335.15 157.05 335.11 156.76 335.11L156.14 335.11L156.76 334.92C157.57 334.68 159.47 334.29 161.7 333.89C163.49 333.5 165.32 333.29 167.15 333.26Z" fill="#455A64" fill-opacity="1.000000" fill-rule="nonzero"/>
	<path id="Vector" d="M166.72 336.22C165.11 336.3 163.5 336.22 161.9 336.01C160.28 335.97 158.67 335.8 157.09 335.48C160.32 335.21 163.57 335.47 166.72 336.22Z" fill="#455A64" fill-opacity="1.000000" fill-rule="nonzero"/>
	<g opacity="0.200000">
		<path id="Vector" d="M116.25 258.08C116.79 258.77 117.47 259.35 118.25 259.76C119.03 260.18 119.89 260.43 120.77 260.49C122.62 260.7 124.49 260.67 126.32 260.38C138.16 259.07 150.69 257.86 162.28 255.04C147.28 255.88 131.44 255.6 116.44 256.43L116.29 257.72L116.25 258.08Z" fill="#000000" fill-opacity="1.000000" fill-rule="nonzero"/>
	</g>
	<g opacity="0.200000">
		<path id="Vector" d="M131.7 279.21L140.15 312.02L139.56 280.6L131.7 279.21Z" fill="#000000" fill-opacity="1.000000" fill-rule="nonzero"/>
	</g>
</svg>
