<svg width="191.000000" height="29.671875" viewBox="0 0 191 29.6719" fill="none" xmlns="http://www.w3.org/2000/svg" xmlns:xlink="http://www.w3.org/1999/xlink">
	<desc>
			Created with Pixso.
	</desc>
	<defs/>
	<rect id="Icon" rx="0.000000" width="42.034969" height="28.435421" transform="translate(0.618161 0.618161)" fill="#FFFFFF" fill-opacity="0"/>
	<path id="Vector" d="M23.22 16.23L16.56 27.65L9.89 16.23L23.22 16.23ZM25.01 15.21L8.1 15.21L16.56 29.67L25.01 15.21Z" fill="#FFFFFF" fill-opacity="1.000000" fill-rule="nonzero"/>
	<path id="Vector" d="M34.81 2.04L41.47 13.45L28.14 13.45L34.81 2.04ZM34.81 0L26.35 14.45L43.27 14.45L34.81 0Z" fill="#FFFFFF" fill-opacity="1.000000" fill-rule="nonzero"/>
	<path id="Vector" d="M0 0L7.09 12.78L14.84 0.32L0 0Z" fill="#4CAF4F" fill-opacity="1.000000" fill-rule="nonzero"/>
	<path id="Vector" d="M16.56 1.11L23.99 13.83L9.1 13.83L16.56 1.11Z" fill="#4CAF4F" fill-opacity="1.000000" fill-rule="nonzero"/>
	<path id="Vector" d="M25.91 16.6L33.36 29.67L18.11 29.67L25.68 16.6L25.91 16.6Z" fill="#4CAF4F" fill-opacity="1.000000" fill-rule="nonzero"/>
	<path id="Vector" d="M27.52 15.81L34.81 28.67L42.2 15.81L27.52 15.81Z" fill="#4CAF4F" fill-opacity="1.000000" fill-rule="nonzero"/>
	<path id="Nexcent" d="M74.21 2.06L74.21 27.23L69.62 27.23L58.66 11.39L58.48 11.39L58.48 27.23L53.16 27.23L53.16 2.06L57.83 2.06L68.7 17.89L68.92 17.89L68.92 2.06L74.21 2.06ZM181.86 3.83L187.1 3.83L187.1 8.35L190.65 8.35L190.65 12.29L187.1 12.29L187.1 21.43C187.1 21.92 187.17 22.29 187.32 22.56C187.47 22.83 187.67 23.01 187.93 23.12C188.2 23.22 188.52 23.28 188.87 23.28C189.11 23.28 189.36 23.26 189.61 23.21C189.85 23.17 190.04 23.13 190.17 23.1L191 27C190.73 27.08 190.36 27.18 189.89 27.28C189.41 27.4 188.84 27.47 188.16 27.49Q186.26 27.57 184.84 26.99C183.89 26.6 183.16 26.01 182.64 25.19C182.12 24.4 181.86 23.39 181.86 22.18L181.86 22.12L181.86 12.29L179.28 12.29L179.28 8.35L181.86 8.35L181.86 3.83ZM87.12 27.6C85.18 27.6 83.51 27.21 82.1 26.42Q81.18 25.9 80.45 25.18Q79.52 24.27 78.88 23.05Q77.75 20.87 77.75 17.88Q77.75 14.97 78.88 12.77Q79.57 11.42 80.61 10.44Q81.27 9.82 82.07 9.34Q82.11 9.31 82.15 9.29Q84.19 8.11 86.91 8.11C88.16 8.11 89.32 8.31 90.39 8.71C91.47 9.1 92.41 9.7 93.22 10.49C94.03 11.29 94.66 12.29 95.11 13.49Q95.79 15.29 95.79 17.7L95.79 19.13L82.93 19.13L82.93 19.15C82.93 20.08 83.1 20.89 83.44 21.57C83.8 22.25 84.29 22.77 84.93 23.14C85.57 23.51 86.33 23.69 87.21 23.69Q88.08 23.69 88.8 23.45C89.29 23.28 89.7 23.04 90.05 22.71C90.39 22.38 90.65 21.98 90.83 21.51L95.68 21.83C95.43 22.99 94.93 24.01 94.16 24.87C93.41 25.73 92.43 26.41 91.24 26.89Q89.46 27.6 87.12 27.6ZM126.6 27.6C124.66 27.6 123 27.19 121.61 26.37Q120.7 25.83 119.98 25.11Q119.04 24.17 118.41 22.93C117.67 21.47 117.31 19.78 117.31 17.87Q117.31 14.97 118.42 12.78C119.18 11.31 120.25 10.17 121.63 9.35C123.02 8.52 124.66 8.11 126.57 8.11C128.22 8.11 129.66 8.41 130.9 9C132.14 9.6 133.12 10.44 133.84 11.52C134.56 12.61 134.96 13.88 135.03 15.33L130.09 15.33C129.95 14.39 129.58 13.63 128.98 13.06C128.39 12.48 127.62 12.19 126.66 12.19C125.85 12.19 125.14 12.41 124.53 12.85C123.94 13.29 123.47 13.92 123.13 14.76C122.8 15.59 122.63 16.61 122.63 17.79C122.63 19 122.79 20.02 123.12 20.87C123.46 21.71 123.93 22.35 124.53 22.8C125.14 23.24 125.85 23.46 126.66 23.46C127.26 23.46 127.8 23.34 128.27 23.09C128.75 22.85 129.15 22.49 129.46 22.02C129.78 21.55 129.99 20.98 130.09 20.31L135.03 20.31C134.95 21.76 134.56 23.03 133.85 24.12C133.15 25.21 132.19 26.07 130.96 26.68C129.73 27.3 128.28 27.6 126.6 27.6ZM146.99 27.6C145.05 27.6 143.38 27.21 141.97 26.42C140.58 25.63 139.51 24.51 138.75 23.05C138 21.6 137.62 19.87 137.62 17.88C137.62 15.94 138 14.23 138.75 12.77C139.51 11.3 140.57 10.16 141.94 9.34Q141.98 9.31 142.02 9.29Q144.06 8.11 146.78 8.11Q148.65 8.11 150.26 8.71C151.34 9.1 152.28 9.7 153.09 10.49C153.9 11.29 154.53 12.29 154.98 13.49Q155.66 15.29 155.66 17.7L155.66 19.13L142.8 19.13L142.8 19.15C142.8 20.08 142.97 20.89 143.31 21.57C143.67 22.25 144.16 22.77 144.8 23.14C145.44 23.51 146.2 23.69 147.08 23.69Q147.95 23.69 148.67 23.45C149.16 23.28 149.57 23.04 149.92 22.71C150.26 22.38 150.52 21.98 150.7 21.51L155.55 21.83C155.3 22.99 154.8 24.01 154.03 24.87C153.28 25.73 152.3 26.41 151.11 26.89C149.92 27.37 148.55 27.6 146.99 27.6ZM164.31 16.32L164.31 27.23L159.07 27.23L159.07 8.35L164.06 8.35L164.06 11.68L164.29 11.68C164.7 10.59 165.4 9.72 166.39 9.08C167.37 8.43 168.56 8.11 169.97 8.11C171.28 8.11 172.42 8.39 173.4 8.97C174.37 9.54 175.13 10.36 175.67 11.43C176.21 12.48 176.48 13.75 176.48 15.21L176.48 27.23L171.24 27.23L171.24 16.15C171.24 16.13 171.24 16.12 171.24 16.1C171.24 14.97 170.95 14.08 170.36 13.44C169.76 12.79 168.94 12.46 167.89 12.46Q166.86 12.46 166.06 12.89Q166.05 12.89 166.04 12.9Q166.03 12.91 166.02 12.91C165.49 13.22 165.07 13.66 164.77 14.24C164.47 14.81 164.32 15.51 164.31 16.32ZM103.24 8.35L106.71 14.95L110.26 8.35L115.63 8.35L110.16 17.79L115.78 27.23L110.43 27.23L106.71 20.71L103.05 27.23L97.64 27.23L103.24 17.79L97.83 8.35L103.24 8.35ZM82.93 15.89L90.86 15.89C90.86 15.13 90.69 14.47 90.36 13.88C90.04 13.3 89.58 12.85 89 12.52C88.43 12.18 87.76 12.02 87 12.02C86.2 12.02 85.5 12.2 84.88 12.57C84.28 12.93 83.8 13.42 83.46 14.03C83.14 14.59 82.96 15.21 82.93 15.89ZM142.8 15.89L150.73 15.89C150.73 15.13 150.56 14.47 150.24 13.88C149.91 13.3 149.45 12.85 148.87 12.52C148.3 12.18 147.63 12.02 146.87 12.02C146.07 12.02 145.37 12.2 144.75 12.57C144.14 12.93 143.67 13.42 143.33 14.03C143.01 14.59 142.83 15.21 142.8 15.89Z" fill="#FFFFFF" fill-opacity="1.000000" fill-rule="evenodd"/>
</svg>
