<svg width="154.490417" height="24.000000" viewBox="0 0 154.49 24" fill="none" xmlns="http://www.w3.org/2000/svg" xmlns:xlink="http://www.w3.org/1999/xlink">
	<desc>
			Created with Pixso.
	</desc>
	<defs/>
	<rect id="Icon" rx="0.000000" width="34.000000" height="23.000000" transform="translate(0.500000 0.500000)" fill="#FFFFFF" fill-opacity="0"/>
	<path id="Vector" d="M18.78 13.13L13.39 22.36L8 13.13L18.78 13.13ZM20.23 12.3L6.55 12.3L13.39 24L20.23 12.3Z" fill="#263238" fill-opacity="1.000000" fill-rule="nonzero"/>
	<path id="Vector" d="M28.15 1.65L33.55 10.88L22.76 10.88L28.15 1.65ZM28.15 0L21.31 11.69L35 11.69L28.15 0Z" fill="#263238" fill-opacity="1.000000" fill-rule="nonzero"/>
	<path id="Vector" d="M0 0L5.73 10.34L12 0.25L0 0Z" fill="#4CAF4F" fill-opacity="1.000000" fill-rule="nonzero"/>
	<path id="Vector" d="M13.39 0.9L19.41 11.18L7.36 11.18L13.39 0.9Z" fill="#4CAF4F" fill-opacity="1.000000" fill-rule="nonzero"/>
	<path id="Vector" d="M20.96 13.43L26.98 24L14.65 24L20.77 13.43L20.96 13.43Z" fill="#4CAF4F" fill-opacity="1.000000" fill-rule="nonzero"/>
	<path id="Vector" d="M22.26 12.79L28.15 23.19L34.13 12.79L22.26 12.79Z" fill="#4CAF4F" fill-opacity="1.000000" fill-rule="nonzero"/>
	<path id="Nexcent" d="M60.03 1.66L60.03 22.03L56.31 22.03L47.45 9.21L47.3 9.21L47.3 22.03L43 22.03L43 1.66L46.77 1.66L55.56 14.47L55.74 14.47L55.74 1.66L60.03 1.66ZM147.1 3.1L151.33 3.1L151.33 6.75L154.21 6.75L154.21 9.94L151.33 9.94L151.33 17.33C151.33 17.73 151.39 18.03 151.51 18.25C151.63 18.46 151.8 18.61 152.01 18.7C152.23 18.78 152.48 18.83 152.77 18.83C152.96 18.83 153.16 18.81 153.36 18.78C153.56 18.74 153.71 18.71 153.82 18.69L154.49 21.84C154.27 21.9 153.98 21.98 153.59 22.07C153.21 22.16 152.74 22.22 152.19 22.24C151.17 22.28 150.27 22.14 149.5 21.83C148.74 21.52 148.15 21.03 147.72 20.38C147.31 19.73 147.1 18.92 147.1 17.94C147.1 17.92 147.1 17.91 147.1 17.89L147.1 9.94L145.01 9.94L145.01 6.75L147.1 6.75L147.1 3.1ZM70.47 22.33C68.89 22.33 67.54 22.01 66.41 21.37C65.28 20.73 64.41 19.82 63.8 18.65Q62.89 16.88 62.89 14.46Q62.89 12.1 63.8 10.32Q64.36 9.24 65.2 8.44Q65.73 7.94 66.38 7.55Q66.41 7.53 66.44 7.51L66.44 7.51Q68.09 6.56 70.3 6.56C71.3 6.56 72.24 6.72 73.11 7.04C73.99 7.36 74.75 7.84 75.4 8.48C76.05 9.13 76.56 9.94 76.93 10.91C77.29 11.88 77.48 13.01 77.48 14.31L77.48 15.48L67.07 15.48L67.07 15.49C67.07 16.24 67.21 16.89 67.49 17.44C67.78 17.99 68.18 18.42 68.7 18.72C69.21 19.01 69.83 19.16 70.54 19.16C71.01 19.16 71.44 19.1 71.83 18.96C72.22 18.83 72.55 18.63 72.83 18.37C73.11 18.1 73.32 17.78 73.47 17.39L77.39 17.65C77.19 18.59 76.78 19.42 76.16 20.12Q75.25 21.16 73.8 21.75C72.84 22.13 71.73 22.33 70.47 22.33ZM102.4 22.33C100.83 22.33 99.49 21.99 98.36 21.33C97.24 20.66 96.38 19.73 95.78 18.55C95.18 17.36 94.88 16 94.88 14.45C94.88 12.89 95.18 11.51 95.79 10.33C96.4 9.15 97.26 8.22 98.38 7.56Q100.06 6.56 102.38 6.56C103.71 6.56 104.88 6.8 105.88 7.28C106.88 7.77 107.67 8.45 108.26 9.32C108.84 10.2 109.16 11.22 109.22 12.4L105.22 12.4C105.11 11.64 104.81 11.03 104.33 10.56C103.85 10.09 103.22 9.86 102.45 9.86C101.79 9.86 101.22 10.04 100.73 10.39C100.24 10.75 99.87 11.26 99.59 11.94C99.32 12.61 99.19 13.43 99.19 14.39C99.19 15.37 99.32 16.19 99.58 16.88C99.86 17.56 100.24 18.08 100.73 18.44C101.22 18.8 101.79 18.98 102.45 18.98C102.93 18.98 103.37 18.88 103.75 18.68C104.14 18.48 104.46 18.19 104.72 17.81C104.97 17.43 105.14 16.97 105.22 16.43L109.22 16.43C109.15 17.6 108.84 18.62 108.27 19.51C107.7 20.39 106.92 21.08 105.93 21.58Q104.44 22.33 102.4 22.33ZM118.89 22.33C117.32 22.33 115.97 22.01 114.83 21.37C113.71 20.73 112.84 19.82 112.23 18.65C111.62 17.47 111.32 16.07 111.32 14.46C111.32 12.89 111.62 11.51 112.23 10.32C112.84 9.14 113.7 8.21 114.81 7.55C115.92 6.89 117.22 6.56 118.72 6.56Q120.23 6.56 121.54 7.04C122.41 7.36 123.17 7.84 123.82 8.48C124.48 9.13 124.99 9.94 125.35 10.91C125.72 11.88 125.9 13.01 125.9 14.31L125.9 15.48L115.5 15.48L115.5 15.49C115.5 16.24 115.64 16.89 115.92 17.44C116.2 17.99 116.6 18.42 117.12 18.72C117.64 19.01 118.25 19.16 118.96 19.16C119.43 19.16 119.86 19.1 120.25 18.96C120.65 18.83 120.98 18.63 121.26 18.37C121.54 18.1 121.75 17.78 121.89 17.39L125.81 17.65C125.61 18.59 125.21 19.42 124.59 20.12Q123.67 21.16 122.22 21.75C121.26 22.13 120.15 22.33 118.89 22.33ZM132.9 13.2L132.9 22.03L128.67 22.03L128.67 6.75L132.7 6.75L132.7 9.45L132.88 9.45C133.22 8.56 133.79 7.86 134.58 7.34C135.38 6.82 136.34 6.56 137.48 6.56C138.54 6.56 139.46 6.79 140.25 7.25C141.04 7.72 141.65 8.38 142.09 9.24Q142.75 10.52 142.75 12.3L142.75 22.03L138.51 22.03L138.51 13.06C138.51 13.05 138.51 13.03 138.51 13.02C138.51 12.1 138.27 11.39 137.79 10.87C137.31 10.34 136.64 10.08 135.8 10.08C135.23 10.08 134.72 10.2 134.28 10.44Q134.1 10.55 133.93 10.69Q133.53 11.02 133.27 11.52C133.03 11.98 132.91 12.54 132.9 13.2ZM83.51 6.75L86.31 12.09L89.18 6.75L93.53 6.75L89.1 14.39L93.65 22.03L89.32 22.03L86.31 16.75L83.35 22.03L78.97 22.03L83.51 14.39L79.13 6.75L83.51 6.75ZM67.08 12.85L73.49 12.85C73.49 12.24 73.36 11.7 73.09 11.23C72.83 10.76 72.46 10.39 71.99 10.13C71.52 9.85 70.98 9.72 70.37 9.72C69.72 9.72 69.15 9.87 68.66 10.17Q68.28 10.39 67.99 10.69L67.99 10.69Q67.71 10.98 67.5 11.35C67.25 11.8 67.1 12.3 67.08 12.85ZM115.51 12.85L121.91 12.85C121.91 12.24 121.78 11.7 121.52 11.23C121.25 10.76 120.88 10.39 120.41 10.13Q120.41 10.12 120.4 10.12Q120.38 10.11 120.37 10.1Q119.69 9.72 118.79 9.72C118.15 9.72 117.58 9.87 117.08 10.17C116.59 10.46 116.21 10.85 115.93 11.35C115.67 11.8 115.53 12.3 115.51 12.85Z" fill="#263238" fill-opacity="1.000000" fill-rule="evenodd"/>
</svg>
