<svg width="65.000000" height="56.000000" viewBox="0 0 65 56" fill="none" xmlns="http://www.w3.org/2000/svg" xmlns:xlink="http://www.w3.org/1999/xlink">
	<desc>
			Created with Pixso.
	</desc>
	<defs/>
	<path id="Rectangle 157" d="M47 56L20 56C17.23 56 15 53.76 15 51L15 17C15 11.47 19.47 7 25 7L60 7C62.76 7 65 9.23 65 12L65 38C65 47.94 56.94 56 47 56Z" fill="#E8F5E9" fill-opacity="1.000000" fill-rule="evenodd"/>
	<path id="Vector" d="M23.99 10C20.41 10 17.51 12.93 17.51 16.52C17.51 18.78 18.67 20.79 20.43 21.96C18.31 22.67 16.47 23.99 15.12 25.73C14.37 25.16 13.54 24.7 12.64 24.37C14 23.35 14.89 21.73 14.89 19.91C14.89 16.86 12.43 14.37 9.41 14.37C6.39 14.37 3.93 16.86 3.93 19.91C3.93 21.73 4.82 23.36 6.18 24.37C2.57 25.7 0 29.19 0 33.29L0 36.17C0 36.39 0.08 36.6 0.24 36.76C0.39 36.91 0.61 37 0.83 37L13.47 37C13.5 37 13.53 37 13.56 37L34.41 37C34.44 37 34.47 37 34.5 37L47.15 37C47.6 36.99 47.97 36.63 47.97 36.17L47.97 33.29C47.97 29.19 45.4 25.7 41.79 24.37C43.15 23.36 44.04 21.73 44.04 19.9C44.04 16.86 41.58 14.37 38.56 14.37C35.54 14.37 33.08 16.86 33.08 19.9C33.08 21.73 33.97 23.35 35.33 24.37C34.43 24.7 33.6 25.16 32.85 25.73C31.5 24 29.67 22.67 27.54 21.96C29.3 20.79 30.47 18.78 30.47 16.52C30.47 12.93 27.56 10 23.99 10L23.99 10ZM23.99 11.65C26.66 11.65 28.81 13.82 28.81 16.52C28.81 19.19 26.69 21.34 24.05 21.37C24.03 21.37 24.01 21.37 23.99 21.37C23.96 21.37 23.94 21.37 23.92 21.37C21.28 21.34 19.16 19.19 19.16 16.52C19.16 13.82 21.31 11.65 23.98 11.65L23.99 11.65ZM9.41 16.03C11.53 16.03 13.24 17.75 13.24 19.9C13.24 22.05 11.55 23.76 9.45 23.78C9.44 23.78 9.42 23.78 9.41 23.78C9.4 23.78 9.38 23.78 9.37 23.78C7.27 23.76 5.58 22.05 5.58 19.9C5.58 17.75 7.29 16.03 9.41 16.03L9.41 16.03ZM38.56 16.03C40.68 16.03 42.39 17.75 42.39 19.9C42.39 22.05 40.7 23.76 38.6 23.78C38.59 23.78 38.57 23.78 38.56 23.78C38.55 23.78 38.53 23.78 38.52 23.78C36.42 23.76 34.73 22.05 34.73 19.9C34.73 17.75 36.44 16.03 38.56 16.03L38.56 16.03ZM23.92 23.03C23.94 23.03 23.96 23.03 23.98 23.03C24.01 23.03 24.03 23.03 24.05 23.03C29.35 23.06 33.58 27.34 33.58 32.69L33.58 35.35L14.39 35.35L14.39 32.69C14.39 27.34 18.62 23.06 23.92 23.03L23.92 23.03ZM9.35 25.44C9.37 25.44 9.39 25.44 9.41 25.44C9.43 25.44 9.45 25.44 9.47 25.44C11.27 25.45 12.9 26.07 14.2 27.11C13.27 28.75 12.73 30.66 12.73 32.69L12.73 35.34L1.65 35.34L1.65 33.29C1.65 28.94 5.07 25.47 9.35 25.44L9.35 25.44ZM38.5 25.44C38.52 25.44 38.54 25.44 38.56 25.44C38.58 25.44 38.6 25.44 38.62 25.44C42.9 25.47 46.32 28.94 46.32 33.29L46.32 35.34L35.23 35.34L35.23 32.69C35.23 30.66 34.7 28.76 33.77 27.11C35.07 26.07 36.7 25.45 38.5 25.44L38.5 25.44Z" fill="#103E13" fill-opacity="1.000000" fill-rule="nonzero"/>
</svg>
