<svg width="40.000000" height="28.000000" viewBox="0 0 40 28" fill="none" xmlns="http://www.w3.org/2000/svg" xmlns:xlink="http://www.w3.org/1999/xlink">
	<desc>
			Created with Pixso.
	</desc>
	<defs/>
	<path id="Vector" d="M9.98 4.11L0 14C1.99 15.97 4.27 17.64 6.76 18.94C7.45 20.75 8.53 22.44 10 23.89C15.52 29.36 24.47 29.36 30 23.89C31.46 22.44 32.54 20.75 33.23 18.94C35.72 17.64 38 15.97 40 14L30.02 4.12C30.01 4.11 30 4.1 30 4.1C24.47 -1.37 15.52 -1.37 10 4.1C9.99 4.1 9.99 4.1 9.98 4.11ZM29.04 20.73C26.13 21.7 23.07 22.2 20 22.2C16.92 22.2 13.86 21.7 10.95 20.73C11.27 21.14 11.61 21.54 12 21.91C16.41 26.29 23.58 26.29 28 21.91C28.38 21.54 28.72 21.14 29.04 20.73ZM12.2 5.88C12.95 6.37 13.75 6.79 14.58 7.13C16.3 7.83 18.14 8.2 20 8.2C21.85 8.2 23.69 7.83 25.41 7.13C26.24 6.79 27.04 6.37 27.79 5.88C23.43 1.77 16.56 1.77 12.2 5.88Z" fill="#3B4158" fill-opacity="1.000000" fill-rule="evenodd"/>
</svg>
