<svg width="52.000000" height="20.000000" viewBox="0 0 52 20" fill="none" xmlns="http://www.w3.org/2000/svg" xmlns:xlink="http://www.w3.org/1999/xlink">
	<desc>
			Created with Pixso.
	</desc>
	<defs>
		<clipPath id="clip211_848">
			<rect id="Logo" rx="0.000000" width="51.000000" height="19.000000" transform="translate(0.500000 0.500000)" fill="white" fill-opacity="0"/>
		</clipPath>
	</defs>
	<rect id="Logo" rx="0.000000" width="51.000000" height="19.000000" transform="translate(0.500000 0.500000)" fill="#FFFFFF" fill-opacity="0"/>
	<g clip-path="url(#clip211_848)">
		<path id="Vector" d="M12.34 0C10.31 0 8.36 0.8 6.92 2.24L2.24 6.92C0.8 8.36 0 10.31 0 12.34C0 16.57 3.42 20 7.65 20C9.68 20 11.63 19.19 13.07 17.75L16.31 14.51L25.75 5.07C26.44 4.38 27.37 4 28.34 4C29.96 4 31.34 5.05 31.82 6.52L34.8 3.54C33.44 1.41 31.05 0 28.34 0C26.31 0 24.36 0.8 22.92 2.24L10.24 14.92C9.55 15.61 8.62 16 7.65 16C5.63 16 4 14.36 4 12.34C4 11.37 4.38 10.44 5.07 9.75L9.75 5.07C10.44 4.38 11.37 4 12.34 4C13.96 4 15.34 5.05 15.82 6.52L18.8 3.54C17.44 1.41 15.05 0 12.34 0Z" fill="#394149" fill-opacity="1.000000" fill-rule="nonzero"/>
		<path id="Vector" d="M26.24 14.92C25.55 15.61 24.62 16 23.65 16C22.03 16 20.65 14.94 20.17 13.47L17.19 16.45C18.55 18.58 20.94 20 23.65 20C25.68 20 27.63 19.19 29.07 17.75L41.75 5.07C42.44 4.38 43.37 4 44.34 4C46.36 4 47.99 5.63 47.99 7.65C47.99 8.62 47.61 9.55 46.92 10.24L42.24 14.92C41.55 15.61 40.62 16 39.65 16C38.03 16 36.65 14.94 36.17 13.47L33.19 16.45C34.55 18.58 36.94 20 39.65 20C41.68 20 43.63 19.19 45.07 17.75L49.75 13.07C51.19 11.63 51.99 9.68 51.99 7.65C51.99 3.42 48.57 0 44.34 0C42.31 0 40.36 0.8 38.92 2.24L26.24 14.92Z" fill="#394149" fill-opacity="1.000000" fill-rule="nonzero"/>
	</g>
</svg>
