<svg width="55.000000" height="30.000000" viewBox="0 0 55 30" fill="none" xmlns="http://www.w3.org/2000/svg" xmlns:xlink="http://www.w3.org/1999/xlink">
	<desc>
			Created with Pixso.
	</desc>
	<defs>
		<clipPath id="clip211_824">
			<rect id="Logo" rx="0.000000" width="54.000000" height="29.000000" transform="translate(0.500000 0.500000)" fill="white" fill-opacity="0"/>
		</clipPath>
	</defs>
	<rect id="Logo" rx="0.000000" width="54.000000" height="29.000000" transform="translate(0.500000 0.500000)" fill="#FFFFFF" fill-opacity="0"/>
	<g clip-path="url(#clip211_824)">
		<path id="Vector" d="M54.99 10.66C55 10.62 55 10.58 54.99 10.54C55 10.51 55 10.47 54.99 10.44L54.58 7.5C54.52 7.15 54.37 6.82 54.13 6.56L54.06 6.48L53.93 6.35L46.88 0.39L47.08 0.59C46.91 0.4 46.71 0.25 46.48 0.14C46.25 0.04 46 -0.01 45.75 0L43.61 0C43.26 -0.01 42.92 0.1 42.64 0.3C42.35 0.1 42 -0.01 41.64 0L39.5 0C39.22 -0.01 38.94 0.06 38.7 0.19C38.45 0.33 38.25 0.52 38.1 0.76C37.88 1.1 37.8 1.51 37.87 1.9L38.14 3.75C37.96 3.65 37.76 3.6 37.55 3.6L27.18 3.6C26.81 3.6 26.45 3.71 26.14 3.91C25.83 4.09 25.59 4.36 25.44 4.67L24.63 4C24.32 3.71 23.9 3.56 23.47 3.57L7.2 3.57C6.83 3.57 6.46 3.68 6.14 3.86C5.7 4.12 5.38 4.52 5.24 5L0.08 21.95C-0.02 22.23 -0.03 22.53 0.05 22.82C0.13 23.1 0.29 23.35 0.52 23.55C0.58 23.6 0.64 23.64 0.7 23.68C0.7 23.68 0.6 23.62 0.54 23.56L7.59 29.53C7.89 29.8 8.28 29.95 8.69 29.95L25.09 29.95C25.46 29.94 25.83 29.83 26.15 29.64C26.33 29.54 26.49 29.42 26.63 29.26L26.68 29.18L26.78 29.07L26.85 28.95L27.61 29.6C27.91 29.85 28.29 30 28.69 30L45.12 30C45.49 29.98 45.86 29.88 46.18 29.69C46.36 29.58 46.52 29.46 46.66 29.31L46.71 29.23L46.81 29.12C46.86 29.04 46.9 28.97 46.94 28.89C46.97 28.82 47.01 28.75 47.03 28.67L51.74 13.2L51.74 13.06C51.75 13.01 51.75 12.95 51.74 12.9L51.74 12.8C51.75 12.76 51.75 12.73 51.74 12.7C51.75 12.62 51.75 12.55 51.74 12.48L53.26 12.48C53.39 12.49 53.52 12.49 53.65 12.48L53.76 12.48C53.84 12.45 53.92 12.42 54 12.38L54.12 12.38L54.33 12.22L54.42 12.15L54.58 11.94L54.58 11.87L54.7 11.68C54.69 11.64 54.69 11.6 54.7 11.57C54.69 11.55 54.69 11.53 54.7 11.51C54.72 11.44 54.74 11.37 54.76 11.3C54.75 11.28 54.75 11.26 54.76 11.24C54.75 11.2 54.75 11.17 54.76 11.13C54.76 11.13 54.99 10.69 54.99 10.66Z" fill="#000000" fill-opacity="1.000000" fill-rule="nonzero"/>
		<path id="Vector" d="M23.95 4.87C24.01 4.92 24.05 4.99 24.07 5.07C24.09 5.15 24.08 5.24 24.05 5.31L18.9 22.25C18.83 22.43 18.7 22.59 18.52 22.68C18.38 22.77 18.22 22.83 18.05 22.84L1.66 22.84C1.52 22.83 1.39 22.78 1.29 22.68C1.23 22.63 1.18 22.56 1.17 22.48C1.15 22.4 1.15 22.32 1.18 22.25L6.35 5.31C6.41 5.13 6.54 4.97 6.71 4.87C6.85 4.78 7.02 4.73 7.19 4.72L23.58 4.72C23.71 4.72 23.85 4.77 23.95 4.87ZM15.39 18.84L18.48 8.72L9.84 8.72L6.77 18.84L15.39 18.84ZM39.59 5.04C39.65 5.1 39.72 5.15 39.8 5.19C39.87 5.22 39.96 5.24 40.05 5.23L42.18 5.23C42.26 5.23 42.34 5.21 42.41 5.18C42.48 5.14 42.54 5.08 42.58 5.02C42.62 4.96 42.65 4.9 42.66 4.84C42.68 4.78 42.68 4.71 42.66 4.65L42.25 1.64C42.21 1.5 42.13 1.37 42.04 1.26C41.98 1.2 41.91 1.15 41.83 1.11C41.75 1.08 41.67 1.06 41.58 1.07L39.45 1.07C39.37 1.07 39.29 1.09 39.22 1.12C39.15 1.16 39.09 1.22 39.04 1.28C38.96 1.44 38.93 1.55 38.96 1.64L39.39 4.65C39.42 4.8 39.49 4.93 39.59 5.04ZM46.35 1.62C46.31 1.48 46.24 1.35 46.14 1.24C46.09 1.18 46.02 1.13 45.95 1.09C45.87 1.06 45.79 1.04 45.7 1.05L43.56 1.05C43.48 1.04 43.4 1.06 43.33 1.1C43.26 1.14 43.2 1.19 43.16 1.26C43.09 1.36 43.05 1.49 43.07 1.62L43.5 4.63C43.53 4.77 43.6 4.91 43.7 5.02C43.76 5.08 43.83 5.13 43.91 5.16C43.98 5.2 44.07 5.21 44.15 5.21L46.3 5.21C46.38 5.21 46.45 5.19 46.52 5.15C46.59 5.12 46.65 5.06 46.69 4.99C46.73 4.94 46.76 4.88 46.77 4.82C46.79 4.76 46.79 4.69 46.77 4.63L46.35 1.62ZM37.72 6.18L37.51 4.7L27.18 4.7C27.02 4.71 26.86 4.76 26.73 4.84C26.64 4.89 26.57 4.95 26.51 5.03C26.45 5.11 26.41 5.2 26.39 5.29L25.53 8.12C25.5 8.19 25.48 8.27 25.5 8.35C25.51 8.42 25.55 8.5 25.6 8.55C25.7 8.64 25.83 8.7 25.96 8.7L38.51 8.7L35.42 18.81L22.91 18.81C22.75 18.82 22.59 18.86 22.46 18.95C22.29 19.05 22.17 19.21 22.12 19.39L21.25 22.22C21.22 22.3 21.21 22.38 21.23 22.45C21.24 22.53 21.28 22.6 21.33 22.66C21.42 22.75 21.55 22.81 21.69 22.82L38.12 22.82C38.29 22.8 38.46 22.75 38.6 22.66C38.77 22.56 38.9 22.41 38.96 22.22L43.69 6.75L38.37 6.75C38.28 6.75 38.2 6.74 38.12 6.71C38.05 6.67 37.97 6.63 37.92 6.57C37.82 6.46 37.75 6.34 37.72 6.2L37.72 6.18Z" fill="#FFFFFF" fill-opacity="1.000000" fill-rule="nonzero"/>
	</g>
</svg>
